M48
; DRILL file {KiCad 9.0.7} date 2026-04-19T23:57:08+0800
; FORMAT={-:-/ absolute / metric / decimal}
; #@! TF.CreationDate,2026-04-19T23:57:08+08:00
; #@! TF.GenerationSoftware,Kicad,Pcbnew,9.0.7
; #@! TF.FileFunction,NonPlated,1,2,NPTH
FMAT,2
METRIC
; #@! TA.AperFunction,NonPlated,NPTH,ComponentDrill
T1C1.750
; #@! TA.AperFunction,NonPlated,NPTH,ComponentDrill
T2C2.200
; #@! TA.AperFunction,NonPlated,NPTH,ComponentDrill
T3C3.000
; #@! TA.AperFunction,NonPlated,NPTH,ComponentDrill
T4C3.988
%
G90
G05
T1
X121.336Y-88.062
X121.336Y-107.112
X131.496Y-88.062
X131.496Y-107.112
X140.386Y-88.062
X140.386Y-107.112
X150.546Y-88.062
X150.546Y-107.112
X159.436Y-88.062
X159.436Y-107.112
X169.596Y-88.062
X169.596Y-107.112
T2
X115.418Y-58.649
X115.418Y-117.577
X175.565Y-117.577
T3
X122.606Y-85.522
X122.606Y-104.572
X128.956Y-82.982
X128.956Y-102.032
X141.656Y-85.522
X141.656Y-104.572
X148.006Y-82.982
X148.006Y-102.032
X160.706Y-85.522
X160.706Y-104.572
X167.056Y-82.982
X167.056Y-102.032
T4
X126.416Y-88.062
X126.416Y-107.112
X145.466Y-88.062
X145.466Y-107.112
X164.516Y-88.062
X164.516Y-107.112
M30
