%TF.GenerationSoftware,KiCad,Pcbnew,9.0.7*%
%TF.CreationDate,2026-04-19T23:56:59+08:00*%
%TF.ProjectId,final macropad,66696e61-6c20-46d6-9163-726f7061642e,rev?*%
%TF.SameCoordinates,Original*%
%TF.FileFunction,Soldermask,Top*%
%TF.FilePolarity,Negative*%
%FSLAX46Y46*%
G04 Gerber Fmt 4.6, Leading zero omitted, Abs format (unit mm)*
G04 Created by KiCad (PCBNEW 9.0.7) date 2026-04-19 23:56:59*
%MOMM*%
%LPD*%
G01*
G04 APERTURE LIST*
%ADD10C,1.750000*%
%ADD11C,3.000000*%
%ADD12C,3.987800*%
%ADD13C,2.200000*%
%ADD14R,1.700000X1.700000*%
%ADD15C,1.700000*%
%ADD16R,1.600000X1.600000*%
%ADD17O,1.600000X1.600000*%
%ADD18C,1.600000*%
G04 APERTURE END LIST*
D10*
%TO.C,SW6*%
X159435800Y-107111800D03*
D11*
X160705800Y-104571800D03*
D12*
X164515800Y-107111800D03*
D11*
X167055800Y-102031800D03*
D10*
X169595800Y-107111800D03*
%TD*%
%TO.C,SW3*%
X159435800Y-88061800D03*
D11*
X160705800Y-85521800D03*
D12*
X164515800Y-88061800D03*
D11*
X167055800Y-82981800D03*
D10*
X169595800Y-88061800D03*
%TD*%
D13*
%TO.C,REF\u002A\u002A*%
X115417600Y-117576600D03*
%TD*%
D10*
%TO.C,SW4*%
X121335800Y-107111800D03*
D11*
X122605800Y-104571800D03*
D12*
X126415800Y-107111800D03*
D11*
X128955800Y-102031800D03*
D10*
X131495800Y-107111800D03*
%TD*%
D13*
%TO.C,REF\u002A\u002A*%
X115417600Y-58648600D03*
%TD*%
D10*
%TO.C,SW1*%
X121335800Y-88061800D03*
D11*
X122605800Y-85521800D03*
D12*
X126415800Y-88061800D03*
D11*
X128955800Y-82981800D03*
D10*
X131495800Y-88061800D03*
%TD*%
%TO.C,SW2*%
X140385800Y-88061800D03*
D11*
X141655800Y-85521800D03*
D12*
X145465800Y-88061800D03*
D11*
X148005800Y-82981800D03*
D10*
X150545800Y-88061800D03*
%TD*%
%TO.C,SW5*%
X140385800Y-107111800D03*
D11*
X141655800Y-104571800D03*
D12*
X145465800Y-107111800D03*
D11*
X148005800Y-102031800D03*
D10*
X150545800Y-107111800D03*
%TD*%
D13*
%TO.C,REF\u002A\u002A*%
X175564800Y-117576600D03*
%TD*%
D14*
%TO.C,J1*%
X119069400Y-62468600D03*
D15*
X119069400Y-65008600D03*
X119069400Y-67548600D03*
X119069400Y-70088600D03*
%TD*%
D16*
%TO.C,U1*%
X171297600Y-73964800D03*
D17*
X168757600Y-73964800D03*
X166217600Y-73964800D03*
X163677600Y-73964800D03*
X161137600Y-73964800D03*
X158597600Y-73964800D03*
X156057600Y-73964800D03*
X153517600Y-73964800D03*
X150977600Y-73964800D03*
X148437600Y-73964800D03*
X145897600Y-73964800D03*
X143357600Y-73964800D03*
X143357600Y-58724800D03*
X145897600Y-58724800D03*
X148437600Y-58724800D03*
X150977600Y-58724800D03*
X153517600Y-58724800D03*
X156057600Y-58724800D03*
X158597600Y-58724800D03*
X161137600Y-58724800D03*
X163677600Y-58724800D03*
X166217600Y-58724800D03*
X168757600Y-58724800D03*
X171297600Y-58724800D03*
%TD*%
D18*
%TO.C,R8*%
X127635000Y-76885800D03*
X135255000Y-76885800D03*
%TD*%
%TO.C,R6*%
X160705800Y-115570000D03*
X168325800Y-115570000D03*
%TD*%
%TO.C,R3*%
X160705800Y-96520000D03*
X168325800Y-96520000D03*
%TD*%
%TO.C,R2*%
X141681200Y-96520000D03*
X149301200Y-96520000D03*
%TD*%
%TO.C,R5*%
X141655800Y-115570000D03*
X149275800Y-115570000D03*
%TD*%
%TO.C,R4*%
X122605800Y-115544600D03*
X130225800Y-115544600D03*
%TD*%
%TO.C,R1*%
X122605800Y-96520000D03*
X130225800Y-96520000D03*
%TD*%
%TO.C,R7*%
X127635000Y-73837800D03*
X135255000Y-73837800D03*
%TD*%
M02*
