%TF.GenerationSoftware,KiCad,Pcbnew,9.0.7*%
%TF.CreationDate,2026-04-19T23:56:59+08:00*%
%TF.ProjectId,final macropad,66696e61-6c20-46d6-9163-726f7061642e,rev?*%
%TF.SameCoordinates,Original*%
%TF.FileFunction,Copper,L2,Bot*%
%TF.FilePolarity,Positive*%
%FSLAX46Y46*%
G04 Gerber Fmt 4.6, Leading zero omitted, Abs format (unit mm)*
G04 Created by KiCad (PCBNEW 9.0.7) date 2026-04-19 23:56:59*
%MOMM*%
%LPD*%
G01*
G04 APERTURE LIST*
%TA.AperFunction,SMDPad,CuDef*%
%ADD10R,2.550000X2.500000*%
%TD*%
%TA.AperFunction,ComponentPad*%
%ADD11R,1.700000X1.700000*%
%TD*%
%TA.AperFunction,ComponentPad*%
%ADD12C,1.700000*%
%TD*%
%TA.AperFunction,ComponentPad*%
%ADD13R,1.600000X1.600000*%
%TD*%
%TA.AperFunction,ComponentPad*%
%ADD14O,1.600000X1.600000*%
%TD*%
%TA.AperFunction,ComponentPad*%
%ADD15C,1.600000*%
%TD*%
%TA.AperFunction,ViaPad*%
%ADD16C,0.600000*%
%TD*%
%TA.AperFunction,Conductor*%
%ADD17C,0.200000*%
%TD*%
G04 APERTURE END LIST*
D10*
%TO.P,SW6,1,1*%
%TO.N,Key 6*%
X157430800Y-104571800D03*
%TO.P,SW6,2,2*%
%TO.N,GND*%
X170357800Y-102031800D03*
%TD*%
%TO.P,SW3,1,1*%
%TO.N,Key 3*%
X157430800Y-85521800D03*
%TO.P,SW3,2,2*%
%TO.N,GND*%
X170357800Y-82981800D03*
%TD*%
%TO.P,SW4,1,1*%
%TO.N,Key 4*%
X119330800Y-104571800D03*
%TO.P,SW4,2,2*%
%TO.N,GND*%
X132257800Y-102031800D03*
%TD*%
%TO.P,SW1,1,1*%
%TO.N,Key 1*%
X119330800Y-85521800D03*
%TO.P,SW1,2,2*%
%TO.N,GND*%
X132257800Y-82981800D03*
%TD*%
%TO.P,SW2,1,1*%
%TO.N,Key 2*%
X138380800Y-85521800D03*
%TO.P,SW2,2,2*%
%TO.N,GND*%
X151307800Y-82981800D03*
%TD*%
%TO.P,SW5,1,1*%
%TO.N,Key 5*%
X138380800Y-104571800D03*
%TO.P,SW5,2,2*%
%TO.N,GND*%
X151307800Y-102031800D03*
%TD*%
D11*
%TO.P,J1,1,Pin_1*%
%TO.N,SDA*%
X119069400Y-62468600D03*
D12*
%TO.P,J1,2,Pin_2*%
%TO.N,SCL*%
X119069400Y-65008600D03*
%TO.P,J1,3,Pin_3*%
%TO.N,+5V*%
X119069400Y-67548600D03*
%TO.P,J1,4,Pin_4*%
%TO.N,GND*%
X119069400Y-70088600D03*
%TD*%
D13*
%TO.P,U1,1,D1/TX*%
%TO.N,unconnected-(U1-D1{slash}TX-Pad1)*%
X171297600Y-73964800D03*
D14*
%TO.P,U1,2,D0/RX*%
%TO.N,unconnected-(U1-D0{slash}RX-Pad2)*%
X168757600Y-73964800D03*
%TO.P,U1,3,GND*%
%TO.N,unconnected-(U1-GND-Pad3)*%
X166217600Y-73964800D03*
%TO.P,U1,4,GND*%
%TO.N,unconnected-(U1-GND-Pad4)*%
X163677600Y-73964800D03*
%TO.P,U1,5,D2*%
%TO.N,SDA*%
X161137600Y-73964800D03*
%TO.P,U1,6,~D3*%
%TO.N,SCL*%
X158597600Y-73964800D03*
%TO.P,U1,7,D4/A6*%
%TO.N,unconnected-(U1-D4{slash}A6-Pad7)*%
X156057600Y-73964800D03*
%TO.P,U1,8,~D5*%
%TO.N,unconnected-(U1-~D5-Pad8)*%
X153517600Y-73964800D03*
%TO.P,U1,9,~D6/A7*%
%TO.N,unconnected-(U1-~D6{slash}A7-Pad9)*%
X150977600Y-73964800D03*
%TO.P,U1,10,D7*%
%TO.N,unconnected-(U1-D7-Pad10)*%
X148437600Y-73964800D03*
%TO.P,U1,11,D8/A8*%
%TO.N,Key 4*%
X145897600Y-73964800D03*
%TO.P,U1,12,~D9/A9*%
%TO.N,Key 5*%
X143357600Y-73964800D03*
%TO.P,U1,13,~D10/A10*%
%TO.N,Key 6*%
X143357600Y-58724800D03*
%TO.P,U1,14,D16*%
%TO.N,Key 2*%
X145897600Y-58724800D03*
%TO.P,U1,15,D14*%
%TO.N,Key 3*%
X148437600Y-58724800D03*
%TO.P,U1,16,D15*%
%TO.N,Key 1*%
X150977600Y-58724800D03*
%TO.P,U1,17,D18/A0*%
%TO.N,unconnected-(U1-D18{slash}A0-Pad17)*%
X153517600Y-58724800D03*
%TO.P,U1,18,D19/A1*%
%TO.N,unconnected-(U1-D19{slash}A1-Pad18)*%
X156057600Y-58724800D03*
%TO.P,U1,19,D20/A2*%
%TO.N,unconnected-(U1-D20{slash}A2-Pad19)*%
X158597600Y-58724800D03*
%TO.P,U1,20,D21/A3*%
%TO.N,unconnected-(U1-D21{slash}A3-Pad20)*%
X161137600Y-58724800D03*
%TO.P,U1,21,VCC*%
%TO.N,+5V*%
X163677600Y-58724800D03*
%TO.P,U1,22,RST*%
%TO.N,unconnected-(U1-RST-Pad22)*%
X166217600Y-58724800D03*
%TO.P,U1,23,GND*%
%TO.N,GND*%
X168757600Y-58724800D03*
%TO.P,U1,24,RAW*%
%TO.N,unconnected-(U1-RAW-Pad24)*%
X171297600Y-58724800D03*
%TD*%
D15*
%TO.P,R8,1*%
%TO.N,+5V*%
X127635000Y-76885800D03*
%TO.P,R8,2*%
%TO.N,SDA*%
X135255000Y-76885800D03*
%TD*%
%TO.P,R6,1*%
%TO.N,+5V*%
X160705800Y-115570000D03*
%TO.P,R6,2*%
%TO.N,Key 6*%
X168325800Y-115570000D03*
%TD*%
%TO.P,R3,1*%
%TO.N,+5V*%
X160705800Y-96520000D03*
%TO.P,R3,2*%
%TO.N,Key 3*%
X168325800Y-96520000D03*
%TD*%
%TO.P,R2,1*%
%TO.N,+5V*%
X141681200Y-96520000D03*
%TO.P,R2,2*%
%TO.N,Key 2*%
X149301200Y-96520000D03*
%TD*%
%TO.P,R5,1*%
%TO.N,+5V*%
X141655800Y-115570000D03*
%TO.P,R5,2*%
%TO.N,Key 5*%
X149275800Y-115570000D03*
%TD*%
%TO.P,R4,1*%
%TO.N,+5V*%
X122605800Y-115544600D03*
%TO.P,R4,2*%
%TO.N,Key 4*%
X130225800Y-115544600D03*
%TD*%
%TO.P,R1,1*%
%TO.N,+5V*%
X122605800Y-96520000D03*
%TO.P,R1,2*%
%TO.N,Key 1*%
X130225800Y-96520000D03*
%TD*%
%TO.P,R7,1*%
%TO.N,+5V*%
X127635000Y-73837800D03*
%TO.P,R7,2*%
%TO.N,SCL*%
X135255000Y-73837800D03*
%TD*%
D16*
%TO.N,GND*%
X120319800Y-72796400D03*
X169545000Y-85344000D03*
X149936200Y-99441000D03*
X152679400Y-104495600D03*
X151739600Y-90093800D03*
X136906000Y-76733400D03*
X117805200Y-106883200D03*
X121945400Y-71069200D03*
X121920000Y-69265800D03*
X133604000Y-90170000D03*
X130886200Y-80289400D03*
X133705600Y-85344000D03*
X156413200Y-102438200D03*
X117246400Y-84455000D03*
X150266400Y-85344000D03*
X148615400Y-91643200D03*
X136296400Y-84455000D03*
X170789600Y-90093800D03*
X163195000Y-82067400D03*
X171170600Y-80289400D03*
X133756400Y-80289400D03*
X125730000Y-76733400D03*
X117246400Y-86664800D03*
X133629400Y-99441000D03*
X155346400Y-86664800D03*
X136296400Y-86664800D03*
X145923000Y-76708000D03*
X130022600Y-91643200D03*
X150114000Y-80289400D03*
X168757600Y-60502800D03*
X152704800Y-99441000D03*
X158115000Y-102412800D03*
X171043600Y-85344000D03*
X149961600Y-104444800D03*
X137083800Y-106883200D03*
X170154600Y-76708000D03*
X169062400Y-99441000D03*
X130987800Y-99441000D03*
X130937000Y-104140000D03*
X162077400Y-76708000D03*
X169087800Y-104343200D03*
X156235400Y-106883200D03*
X171805600Y-99441000D03*
X137566400Y-102412800D03*
X139242800Y-102412800D03*
X120116600Y-102336600D03*
X118110000Y-102362000D03*
X140639800Y-76708000D03*
X169291000Y-80289400D03*
X130886200Y-85344000D03*
X171831000Y-104368600D03*
X133578600Y-104140000D03*
X168478200Y-91643200D03*
X117856000Y-72796400D03*
X155346400Y-84455000D03*
%TD*%
D17*
%TO.N,GND*%
X151307800Y-102031800D02*
X151307800Y-102006400D01*
X132257800Y-102031800D02*
X132283200Y-102031800D01*
X170357800Y-102031800D02*
X170332400Y-102031800D01*
%TO.N,Key 1*%
X119330800Y-85521800D02*
X119330800Y-76477800D01*
X127635000Y-96520000D02*
X130225800Y-96520000D01*
X119330800Y-88215800D02*
X127635000Y-96520000D01*
X149402800Y-57150000D02*
X150977600Y-58724800D01*
X119330800Y-76477800D02*
X138658600Y-57150000D01*
X138658600Y-57150000D02*
X149402800Y-57150000D01*
X119330800Y-85521800D02*
X119330800Y-88215800D01*
%TO.N,Key 2*%
X138380800Y-85521800D02*
X138380800Y-87790626D01*
X138380800Y-85521800D02*
X138380800Y-72439200D01*
X147110174Y-96520000D02*
X149301200Y-96520000D01*
X138380800Y-72439200D02*
X145897600Y-64922400D01*
X145897600Y-64922400D02*
X145897600Y-58724800D01*
X138380800Y-87790626D02*
X147110174Y-96520000D01*
%TO.N,Key 3*%
X166160174Y-96520000D02*
X168325800Y-96520000D01*
X157430800Y-85521800D02*
X157430800Y-87790626D01*
X157430800Y-85521800D02*
X157430800Y-73610800D01*
X148437600Y-64617600D02*
X148437600Y-58724800D01*
X157430800Y-87790626D02*
X166160174Y-96520000D01*
X157430800Y-73610800D02*
X148437600Y-64617600D01*
%TO.N,Key 4*%
X119330800Y-104571800D02*
X119330800Y-106840626D01*
X152883800Y-94494450D02*
X152883800Y-80951000D01*
X119330800Y-106840626D02*
X128034774Y-115544600D01*
X119330800Y-104571800D02*
X126281600Y-97621000D01*
X126281600Y-97621000D02*
X149757250Y-97621000D01*
X152883800Y-80951000D02*
X145897600Y-73964800D01*
X149757250Y-97621000D02*
X152883800Y-94494450D01*
X128034774Y-115544600D02*
X130225800Y-115544600D01*
%TO.N,Key 5*%
X154305000Y-74734450D02*
X154618600Y-74420850D01*
X154618600Y-74420850D02*
X154618600Y-72703600D01*
X138380800Y-104571800D02*
X144930600Y-98022000D01*
X144930600Y-98022000D02*
X149923350Y-98022000D01*
X138380800Y-104571800D02*
X138380800Y-106840626D01*
X149923350Y-98022000D02*
X154305000Y-93640350D01*
X147110174Y-115570000D02*
X149275800Y-115570000D01*
X154618600Y-72703600D02*
X153670000Y-71755000D01*
X138380800Y-106840626D02*
X147110174Y-115570000D01*
X153670000Y-71755000D02*
X145567400Y-71755000D01*
X145567400Y-71755000D02*
X143357600Y-73964800D01*
X154305000Y-93640350D02*
X154305000Y-74734450D01*
%TO.N,Key 6*%
X170815000Y-71120000D02*
X161290000Y-71120000D01*
X172398600Y-72703600D02*
X170815000Y-71120000D01*
X149538600Y-58268750D02*
X148893650Y-57623800D01*
X168781850Y-97621000D02*
X172398600Y-94004250D01*
X149538600Y-59368600D02*
X149538600Y-58268750D01*
X157430800Y-104571800D02*
X157430800Y-106840626D01*
X144458600Y-57623800D02*
X143357600Y-58724800D01*
X172398600Y-94004250D02*
X172398600Y-72703600D01*
X166160174Y-115570000D02*
X168325800Y-115570000D01*
X148893650Y-57623800D02*
X144458600Y-57623800D01*
X161290000Y-71120000D02*
X149538600Y-59368600D01*
X157430800Y-104571800D02*
X164381600Y-97621000D01*
X164381600Y-97621000D02*
X168781850Y-97621000D01*
X157430800Y-106840626D02*
X166160174Y-115570000D01*
%TD*%
%TA.AperFunction,Conductor*%
%TO.N,GND*%
G36*
X137863942Y-56882785D02*
G01*
X137909697Y-56935589D01*
X137919641Y-57004747D01*
X137890616Y-57068303D01*
X137884584Y-57074780D01*
X128290556Y-66668808D01*
X118962086Y-75997278D01*
X118850281Y-76109082D01*
X118850280Y-76109084D01*
X118805679Y-76186336D01*
X118771223Y-76246015D01*
X118730299Y-76398743D01*
X118730299Y-76398745D01*
X118730299Y-76566846D01*
X118730300Y-76566859D01*
X118730300Y-83647300D01*
X118710615Y-83714339D01*
X118657811Y-83760094D01*
X118606300Y-83771300D01*
X118007929Y-83771300D01*
X118007923Y-83771301D01*
X117948316Y-83777708D01*
X117813471Y-83828002D01*
X117813464Y-83828006D01*
X117698255Y-83914252D01*
X117698252Y-83914255D01*
X117612006Y-84029464D01*
X117612002Y-84029471D01*
X117561708Y-84164317D01*
X117555626Y-84220897D01*
X117555301Y-84223923D01*
X117555300Y-84223935D01*
X117555300Y-86819670D01*
X117555301Y-86819676D01*
X117561708Y-86879283D01*
X117612002Y-87014128D01*
X117612006Y-87014135D01*
X117698252Y-87129344D01*
X117698255Y-87129347D01*
X117813464Y-87215593D01*
X117813471Y-87215597D01*
X117858418Y-87232361D01*
X117948317Y-87265891D01*
X118007927Y-87272300D01*
X118606300Y-87272299D01*
X118673339Y-87291983D01*
X118719094Y-87344787D01*
X118730300Y-87396299D01*
X118730300Y-88129130D01*
X118730299Y-88129148D01*
X118730299Y-88294854D01*
X118730298Y-88294854D01*
X118730299Y-88294857D01*
X118771223Y-88447585D01*
X118797930Y-88493842D01*
X118801832Y-88500600D01*
X118850279Y-88584514D01*
X118850281Y-88584517D01*
X118969149Y-88703385D01*
X118969155Y-88703390D01*
X127074584Y-96808819D01*
X127108069Y-96870142D01*
X127103085Y-96939834D01*
X127061213Y-96995767D01*
X126995749Y-97020184D01*
X126986903Y-97020500D01*
X126368270Y-97020500D01*
X126368254Y-97020499D01*
X126360658Y-97020499D01*
X126202543Y-97020499D01*
X126126179Y-97040961D01*
X126049814Y-97061423D01*
X126049809Y-97061426D01*
X125912890Y-97140475D01*
X125912882Y-97140481D01*
X120268382Y-102784981D01*
X120207059Y-102818466D01*
X120180701Y-102821300D01*
X118007929Y-102821300D01*
X118007923Y-102821301D01*
X117948316Y-102827708D01*
X117813471Y-102878002D01*
X117813464Y-102878006D01*
X117698255Y-102964252D01*
X117698252Y-102964255D01*
X117612006Y-103079464D01*
X117612002Y-103079471D01*
X117561708Y-103214317D01*
X117555301Y-103273916D01*
X117555300Y-103273935D01*
X117555300Y-105869670D01*
X117555301Y-105869676D01*
X117561708Y-105929283D01*
X117612002Y-106064128D01*
X117612006Y-106064135D01*
X117698252Y-106179344D01*
X117698255Y-106179347D01*
X117813464Y-106265593D01*
X117813471Y-106265597D01*
X117858418Y-106282361D01*
X117948317Y-106315891D01*
X118007927Y-106322300D01*
X118606300Y-106322299D01*
X118673339Y-106341983D01*
X118719094Y-106394787D01*
X118730300Y-106446299D01*
X118730300Y-106753956D01*
X118730299Y-106753974D01*
X118730299Y-106919680D01*
X118730298Y-106919680D01*
X118771223Y-107072411D01*
X118800158Y-107122526D01*
X118800159Y-107122530D01*
X118800160Y-107122530D01*
X118850279Y-107209340D01*
X118850281Y-107209343D01*
X118969149Y-107328211D01*
X118969155Y-107328216D01*
X127549913Y-115908974D01*
X127549923Y-115908985D01*
X127554253Y-115913315D01*
X127554254Y-115913316D01*
X127666058Y-116025120D01*
X127742442Y-116069219D01*
X127752869Y-116075239D01*
X127752871Y-116075241D01*
X127790925Y-116097211D01*
X127802989Y-116104177D01*
X127955717Y-116145100D01*
X128996198Y-116145100D01*
X129063237Y-116164785D01*
X129106683Y-116212805D01*
X129113515Y-116226214D01*
X129233828Y-116391813D01*
X129378586Y-116536571D01*
X129533549Y-116649156D01*
X129544190Y-116656887D01*
X129660407Y-116716103D01*
X129726576Y-116749818D01*
X129726578Y-116749818D01*
X129726581Y-116749820D01*
X129804748Y-116775218D01*
X129921265Y-116813077D01*
X130022357Y-116829088D01*
X130123448Y-116845100D01*
X130123449Y-116845100D01*
X130328151Y-116845100D01*
X130328152Y-116845100D01*
X130530334Y-116813077D01*
X130725019Y-116749820D01*
X130907410Y-116656887D01*
X131038059Y-116561966D01*
X131073013Y-116536571D01*
X131073015Y-116536568D01*
X131073019Y-116536566D01*
X131217766Y-116391819D01*
X131217768Y-116391815D01*
X131217771Y-116391813D01*
X131270532Y-116319190D01*
X131338087Y-116226210D01*
X131431020Y-116043819D01*
X131494277Y-115849134D01*
X131526300Y-115646952D01*
X131526300Y-115467648D01*
X140355300Y-115467648D01*
X140355300Y-115672351D01*
X140387322Y-115874534D01*
X140450581Y-116069223D01*
X140543515Y-116251613D01*
X140663828Y-116417213D01*
X140808586Y-116561971D01*
X140963549Y-116674556D01*
X140974190Y-116682287D01*
X141090407Y-116741503D01*
X141156576Y-116775218D01*
X141156578Y-116775218D01*
X141156581Y-116775220D01*
X141260937Y-116809127D01*
X141351265Y-116838477D01*
X141393081Y-116845100D01*
X141553448Y-116870500D01*
X141553449Y-116870500D01*
X141758151Y-116870500D01*
X141758152Y-116870500D01*
X141960334Y-116838477D01*
X142155019Y-116775220D01*
X142337410Y-116682287D01*
X142430390Y-116614732D01*
X142503013Y-116561971D01*
X142503015Y-116561968D01*
X142503019Y-116561966D01*
X142647766Y-116417219D01*
X142647768Y-116417215D01*
X142647771Y-116417213D01*
X142700532Y-116344590D01*
X142768087Y-116251610D01*
X142861020Y-116069219D01*
X142924277Y-115874534D01*
X142956300Y-115672352D01*
X142956300Y-115467648D01*
X142924277Y-115265466D01*
X142861020Y-115070781D01*
X142861018Y-115070778D01*
X142861018Y-115070776D01*
X142827303Y-115004607D01*
X142768087Y-114888390D01*
X142749629Y-114862985D01*
X142647771Y-114722786D01*
X142503013Y-114578028D01*
X142337413Y-114457715D01*
X142337412Y-114457714D01*
X142337410Y-114457713D01*
X142280453Y-114428691D01*
X142155023Y-114364781D01*
X141960334Y-114301522D01*
X141785795Y-114273878D01*
X141758152Y-114269500D01*
X141553448Y-114269500D01*
X141529129Y-114273351D01*
X141351265Y-114301522D01*
X141156576Y-114364781D01*
X140974186Y-114457715D01*
X140808586Y-114578028D01*
X140663828Y-114722786D01*
X140543515Y-114888386D01*
X140450581Y-115070776D01*
X140387322Y-115265465D01*
X140355300Y-115467648D01*
X131526300Y-115467648D01*
X131526300Y-115442248D01*
X131494277Y-115240066D01*
X131431020Y-115045381D01*
X131431018Y-115045378D01*
X131431018Y-115045376D01*
X131383741Y-114952591D01*
X131338087Y-114862990D01*
X131330356Y-114852349D01*
X131217771Y-114697386D01*
X131073013Y-114552628D01*
X130907413Y-114432315D01*
X130907412Y-114432314D01*
X130907410Y-114432313D01*
X130850453Y-114403291D01*
X130725023Y-114339381D01*
X130530334Y-114276122D01*
X130355795Y-114248478D01*
X130328152Y-114244100D01*
X130123448Y-114244100D01*
X130099129Y-114247951D01*
X129921265Y-114276122D01*
X129726576Y-114339381D01*
X129544186Y-114432315D01*
X129378586Y-114552628D01*
X129233828Y-114697386D01*
X129113515Y-114862985D01*
X129106683Y-114876395D01*
X129058709Y-114927191D01*
X128996198Y-114944100D01*
X128334871Y-114944100D01*
X128267832Y-114924415D01*
X128247190Y-114907781D01*
X121704428Y-108365019D01*
X121670943Y-108303696D01*
X121675927Y-108234004D01*
X121717799Y-108178071D01*
X121753795Y-108159406D01*
X121767842Y-108154842D01*
X121925690Y-108074414D01*
X122069014Y-107970283D01*
X122194283Y-107845014D01*
X122298414Y-107701690D01*
X122378842Y-107543842D01*
X122433586Y-107375355D01*
X122461300Y-107200379D01*
X122461300Y-107023221D01*
X122452031Y-106964700D01*
X124171400Y-106964700D01*
X124171400Y-107258899D01*
X124171401Y-107258916D01*
X124209801Y-107550596D01*
X124285952Y-107834794D01*
X124398534Y-108106594D01*
X124398542Y-108106610D01*
X124545640Y-108361389D01*
X124545651Y-108361405D01*
X124724748Y-108594809D01*
X124724754Y-108594816D01*
X124932783Y-108802845D01*
X124932789Y-108802850D01*
X125166203Y-108981955D01*
X125166210Y-108981959D01*
X125420989Y-109129057D01*
X125421005Y-109129065D01*
X125692805Y-109241647D01*
X125692807Y-109241647D01*
X125692813Y-109241650D01*
X125977000Y-109317798D01*
X126268694Y-109356200D01*
X126268701Y-109356200D01*
X126562899Y-109356200D01*
X126562906Y-109356200D01*
X126854600Y-109317798D01*
X127138787Y-109241650D01*
X127212118Y-109211275D01*
X127410594Y-109129065D01*
X127410597Y-109129063D01*
X127410603Y-109129061D01*
X127665397Y-108981955D01*
X127898811Y-108802850D01*
X128106850Y-108594811D01*
X128285955Y-108361397D01*
X128433061Y-108106603D01*
X128446395Y-108074413D01*
X128545647Y-107834794D01*
X128545646Y-107834794D01*
X128545650Y-107834787D01*
X128621798Y-107550600D01*
X128660200Y-107258906D01*
X128660200Y-107023221D01*
X130370300Y-107023221D01*
X130370300Y-107200378D01*
X130398014Y-107375356D01*
X130452756Y-107543839D01*
X130452757Y-107543842D01*
X130533186Y-107701690D01*
X130637317Y-107845014D01*
X130762586Y-107970283D01*
X130905910Y-108074414D01*
X130969084Y-108106603D01*
X131063757Y-108154842D01*
X131063760Y-108154843D01*
X131135250Y-108178071D01*
X131232245Y-108209586D01*
X131407221Y-108237300D01*
X131407222Y-108237300D01*
X131584378Y-108237300D01*
X131584379Y-108237300D01*
X131759355Y-108209586D01*
X131927842Y-108154842D01*
X132085690Y-108074414D01*
X132229014Y-107970283D01*
X132354283Y-107845014D01*
X132458414Y-107701690D01*
X132538842Y-107543842D01*
X132593586Y-107375355D01*
X132621300Y-107200379D01*
X132621300Y-107023221D01*
X132593586Y-106848245D01*
X132538842Y-106679758D01*
X132538842Y-106679757D01*
X132458413Y-106521909D01*
X132447318Y-106506638D01*
X132354283Y-106378586D01*
X132229014Y-106253317D01*
X132085690Y-106149186D01*
X132022532Y-106117005D01*
X131927842Y-106068757D01*
X131927839Y-106068756D01*
X131759356Y-106014014D01*
X131671867Y-106000157D01*
X131584379Y-105986300D01*
X131407221Y-105986300D01*
X131348895Y-105995538D01*
X131232243Y-106014014D01*
X131063760Y-106068756D01*
X131063757Y-106068757D01*
X130905909Y-106149186D01*
X130824138Y-106208596D01*
X130762586Y-106253317D01*
X130762584Y-106253319D01*
X130762583Y-106253319D01*
X130637319Y-106378583D01*
X130637319Y-106378584D01*
X130637317Y-106378586D01*
X130592596Y-106440138D01*
X130533186Y-106521909D01*
X130452757Y-106679757D01*
X130452756Y-106679760D01*
X130398014Y-106848243D01*
X130370300Y-107023221D01*
X128660200Y-107023221D01*
X128660200Y-106964694D01*
X128621798Y-106673000D01*
X128545650Y-106388813D01*
X128526253Y-106341983D01*
X128433065Y-106117005D01*
X128433057Y-106116989D01*
X128285959Y-105862210D01*
X128285955Y-105862203D01*
X128106850Y-105628789D01*
X128106845Y-105628783D01*
X127898816Y-105420754D01*
X127898809Y-105420748D01*
X127665405Y-105241651D01*
X127665403Y-105241649D01*
X127665397Y-105241645D01*
X127665392Y-105241642D01*
X127665389Y-105241640D01*
X127410610Y-105094542D01*
X127410594Y-105094534D01*
X127138794Y-104981952D01*
X126885344Y-104914040D01*
X126854600Y-104905802D01*
X126854599Y-104905801D01*
X126854596Y-104905801D01*
X126562916Y-104867401D01*
X126562911Y-104867400D01*
X126562906Y-104867400D01*
X126268694Y-104867400D01*
X126268688Y-104867400D01*
X126268683Y-104867401D01*
X125977003Y-104905801D01*
X125692805Y-104981952D01*
X125421005Y-105094534D01*
X125420989Y-105094542D01*
X125166210Y-105241640D01*
X125166194Y-105241651D01*
X124932790Y-105420748D01*
X124932783Y-105420754D01*
X124724754Y-105628783D01*
X124724748Y-105628790D01*
X124545651Y-105862194D01*
X124545640Y-105862210D01*
X124398542Y-106116989D01*
X124398534Y-106117005D01*
X124285952Y-106388805D01*
X124209801Y-106673003D01*
X124171401Y-106964683D01*
X124171400Y-106964700D01*
X122452031Y-106964700D01*
X122433586Y-106848245D01*
X122378842Y-106679758D01*
X122378842Y-106679757D01*
X122298413Y-106521909D01*
X122287318Y-106506638D01*
X122263838Y-106440832D01*
X122279663Y-106372778D01*
X122329768Y-106324083D01*
X122398246Y-106310207D01*
X122403777Y-106310808D01*
X122491066Y-106322300D01*
X122491073Y-106322300D01*
X122720527Y-106322300D01*
X122720534Y-106322300D01*
X122948038Y-106292348D01*
X123169687Y-106232958D01*
X123381688Y-106145144D01*
X123580412Y-106030411D01*
X123762461Y-105890719D01*
X123762465Y-105890714D01*
X123762470Y-105890711D01*
X123924711Y-105728470D01*
X123924714Y-105728465D01*
X123924719Y-105728461D01*
X124064411Y-105546412D01*
X124179144Y-105347688D01*
X124266958Y-105135687D01*
X124326348Y-104914038D01*
X124356300Y-104686534D01*
X124356300Y-104457066D01*
X124326348Y-104229562D01*
X124266958Y-104007913D01*
X124179144Y-103795912D01*
X124064411Y-103597188D01*
X124064408Y-103597185D01*
X124064407Y-103597182D01*
X123924718Y-103415138D01*
X123924711Y-103415130D01*
X123762470Y-103252889D01*
X123762461Y-103252881D01*
X123580417Y-103113192D01*
X123522010Y-103079471D01*
X123381688Y-102998456D01*
X123381676Y-102998450D01*
X123169687Y-102910642D01*
X122948038Y-102851252D01*
X122910015Y-102846246D01*
X122720541Y-102821300D01*
X122720534Y-102821300D01*
X122491066Y-102821300D01*
X122491058Y-102821300D01*
X122274515Y-102849809D01*
X122263562Y-102851252D01*
X122263553Y-102851254D01*
X122263550Y-102851255D01*
X122214724Y-102864337D01*
X122144874Y-102862673D01*
X122087012Y-102823510D01*
X122059510Y-102759281D01*
X122071098Y-102690379D01*
X122094949Y-102656885D01*
X122834776Y-101917058D01*
X127205300Y-101917058D01*
X127205300Y-102146541D01*
X127223108Y-102281800D01*
X127235252Y-102374038D01*
X127235253Y-102374040D01*
X127294642Y-102595687D01*
X127382450Y-102807676D01*
X127382457Y-102807690D01*
X127497192Y-103006417D01*
X127636881Y-103188461D01*
X127636889Y-103188470D01*
X127799130Y-103350711D01*
X127799138Y-103350718D01*
X127981182Y-103490407D01*
X127981185Y-103490408D01*
X127981188Y-103490411D01*
X128179912Y-103605144D01*
X128179917Y-103605146D01*
X128179923Y-103605149D01*
X128261616Y-103638987D01*
X128391913Y-103692958D01*
X128613562Y-103752348D01*
X128830112Y-103780857D01*
X128837260Y-103781799D01*
X128841066Y-103782300D01*
X128841073Y-103782300D01*
X129070527Y-103782300D01*
X129070534Y-103782300D01*
X129298038Y-103752348D01*
X129519687Y-103692958D01*
X129731688Y-103605144D01*
X129930412Y-103490411D01*
X130112461Y-103350719D01*
X130112465Y-103350714D01*
X130112470Y-103350711D01*
X130271119Y-103192062D01*
X130332442Y-103158577D01*
X130402134Y-103163561D01*
X130458067Y-103205433D01*
X130482484Y-103270897D01*
X130482800Y-103279743D01*
X130482800Y-103329644D01*
X130489201Y-103389172D01*
X130489203Y-103389179D01*
X130539445Y-103523886D01*
X130539449Y-103523893D01*
X130625609Y-103638987D01*
X130625612Y-103638990D01*
X130740706Y-103725150D01*
X130740713Y-103725154D01*
X130875420Y-103775396D01*
X130875427Y-103775398D01*
X130934955Y-103781799D01*
X130934972Y-103781800D01*
X132007800Y-103781800D01*
X132507800Y-103781800D01*
X133580628Y-103781800D01*
X133580644Y-103781799D01*
X133640172Y-103775398D01*
X133640179Y-103775396D01*
X133774886Y-103725154D01*
X133774893Y-103725150D01*
X133889987Y-103638990D01*
X133889990Y-103638987D01*
X133976150Y-103523893D01*
X133976154Y-103523886D01*
X134026396Y-103389179D01*
X134026398Y-103389172D01*
X134032799Y-103329644D01*
X134032800Y-103329627D01*
X134032800Y-102281800D01*
X132507800Y-102281800D01*
X132507800Y-103781800D01*
X132007800Y-103781800D01*
X132007800Y-101781800D01*
X132507800Y-101781800D01*
X134032800Y-101781800D01*
X134032800Y-100733972D01*
X134032799Y-100733955D01*
X134026398Y-100674427D01*
X134026396Y-100674420D01*
X133976154Y-100539713D01*
X133976150Y-100539706D01*
X133889990Y-100424612D01*
X133889987Y-100424609D01*
X133774893Y-100338449D01*
X133774886Y-100338445D01*
X133640179Y-100288203D01*
X133640172Y-100288201D01*
X133580644Y-100281800D01*
X132507800Y-100281800D01*
X132507800Y-101781800D01*
X132007800Y-101781800D01*
X132007800Y-100281800D01*
X130934955Y-100281800D01*
X130875427Y-100288201D01*
X130875420Y-100288203D01*
X130740713Y-100338445D01*
X130740706Y-100338449D01*
X130625612Y-100424609D01*
X130625609Y-100424612D01*
X130539449Y-100539706D01*
X130539445Y-100539713D01*
X130489203Y-100674420D01*
X130489201Y-100674427D01*
X130482800Y-100733955D01*
X130482800Y-100783857D01*
X130463115Y-100850896D01*
X130410311Y-100896651D01*
X130341153Y-100906595D01*
X130277597Y-100877570D01*
X130271119Y-100871538D01*
X130112470Y-100712889D01*
X130112461Y-100712881D01*
X129930417Y-100573192D01*
X129731690Y-100458457D01*
X129731676Y-100458450D01*
X129519687Y-100370642D01*
X129298038Y-100311252D01*
X129260015Y-100306246D01*
X129070541Y-100281300D01*
X129070534Y-100281300D01*
X128841066Y-100281300D01*
X128841058Y-100281300D01*
X128624515Y-100309809D01*
X128613562Y-100311252D01*
X128519876Y-100336354D01*
X128391912Y-100370642D01*
X128179923Y-100458450D01*
X128179909Y-100458457D01*
X127981182Y-100573192D01*
X127799138Y-100712881D01*
X127636881Y-100875138D01*
X127497192Y-101057182D01*
X127382457Y-101255909D01*
X127382450Y-101255923D01*
X127294642Y-101467912D01*
X127235253Y-101689559D01*
X127235251Y-101689570D01*
X127205300Y-101917058D01*
X122834776Y-101917058D01*
X126494017Y-98257819D01*
X126555340Y-98224334D01*
X126581698Y-98221500D01*
X143582503Y-98221500D01*
X143649542Y-98241185D01*
X143695297Y-98293989D01*
X143705241Y-98363147D01*
X143676216Y-98426703D01*
X143670184Y-98433181D01*
X139318382Y-102784981D01*
X139257059Y-102818466D01*
X139230701Y-102821300D01*
X137057929Y-102821300D01*
X137057923Y-102821301D01*
X136998316Y-102827708D01*
X136863471Y-102878002D01*
X136863464Y-102878006D01*
X136748255Y-102964252D01*
X136748252Y-102964255D01*
X136662006Y-103079464D01*
X136662002Y-103079471D01*
X136611708Y-103214317D01*
X136605301Y-103273916D01*
X136605300Y-103273935D01*
X136605300Y-105869670D01*
X136605301Y-105869676D01*
X136611708Y-105929283D01*
X136662002Y-106064128D01*
X136662006Y-106064135D01*
X136748252Y-106179344D01*
X136748255Y-106179347D01*
X136863464Y-106265593D01*
X136863471Y-106265597D01*
X136908418Y-106282361D01*
X136998317Y-106315891D01*
X137057927Y-106322300D01*
X137656300Y-106322299D01*
X137723339Y-106341983D01*
X137769094Y-106394787D01*
X137780300Y-106446299D01*
X137780300Y-106753956D01*
X137780299Y-106753974D01*
X137780299Y-106919680D01*
X137780298Y-106919680D01*
X137821223Y-107072411D01*
X137850158Y-107122526D01*
X137850159Y-107122530D01*
X137850160Y-107122530D01*
X137900279Y-107209340D01*
X137900281Y-107209343D01*
X138019149Y-107328211D01*
X138019155Y-107328216D01*
X146625313Y-115934374D01*
X146625323Y-115934385D01*
X146629653Y-115938715D01*
X146629654Y-115938716D01*
X146741458Y-116050520D01*
X146828269Y-116100639D01*
X146828271Y-116100641D01*
X146866325Y-116122611D01*
X146878389Y-116129577D01*
X147031117Y-116170500D01*
X147189231Y-116170500D01*
X148046198Y-116170500D01*
X148113237Y-116190185D01*
X148156683Y-116238205D01*
X148163515Y-116251614D01*
X148283828Y-116417213D01*
X148428586Y-116561971D01*
X148583549Y-116674556D01*
X148594190Y-116682287D01*
X148710407Y-116741503D01*
X148776576Y-116775218D01*
X148776578Y-116775218D01*
X148776581Y-116775220D01*
X148880937Y-116809127D01*
X148971265Y-116838477D01*
X149013081Y-116845100D01*
X149173448Y-116870500D01*
X149173449Y-116870500D01*
X149378151Y-116870500D01*
X149378152Y-116870500D01*
X149580334Y-116838477D01*
X149775019Y-116775220D01*
X149957410Y-116682287D01*
X150050390Y-116614732D01*
X150123013Y-116561971D01*
X150123015Y-116561968D01*
X150123019Y-116561966D01*
X150267766Y-116417219D01*
X150267768Y-116417215D01*
X150267771Y-116417213D01*
X150320532Y-116344590D01*
X150388087Y-116251610D01*
X150481020Y-116069219D01*
X150544277Y-115874534D01*
X150576300Y-115672352D01*
X150576300Y-115467648D01*
X159405300Y-115467648D01*
X159405300Y-115672351D01*
X159437322Y-115874534D01*
X159500581Y-116069223D01*
X159593515Y-116251613D01*
X159713828Y-116417213D01*
X159858586Y-116561971D01*
X160013549Y-116674556D01*
X160024190Y-116682287D01*
X160140407Y-116741503D01*
X160206576Y-116775218D01*
X160206578Y-116775218D01*
X160206581Y-116775220D01*
X160310937Y-116809127D01*
X160401265Y-116838477D01*
X160443081Y-116845100D01*
X160603448Y-116870500D01*
X160603449Y-116870500D01*
X160808151Y-116870500D01*
X160808152Y-116870500D01*
X161010334Y-116838477D01*
X161205019Y-116775220D01*
X161387410Y-116682287D01*
X161480390Y-116614732D01*
X161553013Y-116561971D01*
X161553015Y-116561968D01*
X161553019Y-116561966D01*
X161697766Y-116417219D01*
X161697768Y-116417215D01*
X161697771Y-116417213D01*
X161750532Y-116344590D01*
X161818087Y-116251610D01*
X161911020Y-116069219D01*
X161974277Y-115874534D01*
X162006300Y-115672352D01*
X162006300Y-115467648D01*
X161974277Y-115265466D01*
X161911020Y-115070781D01*
X161911018Y-115070778D01*
X161911018Y-115070776D01*
X161877303Y-115004607D01*
X161818087Y-114888390D01*
X161799629Y-114862985D01*
X161697771Y-114722786D01*
X161553013Y-114578028D01*
X161387413Y-114457715D01*
X161387412Y-114457714D01*
X161387410Y-114457713D01*
X161330453Y-114428691D01*
X161205023Y-114364781D01*
X161010334Y-114301522D01*
X160835795Y-114273878D01*
X160808152Y-114269500D01*
X160603448Y-114269500D01*
X160579129Y-114273351D01*
X160401265Y-114301522D01*
X160206576Y-114364781D01*
X160024186Y-114457715D01*
X159858586Y-114578028D01*
X159713828Y-114722786D01*
X159593515Y-114888386D01*
X159500581Y-115070776D01*
X159437322Y-115265465D01*
X159405300Y-115467648D01*
X150576300Y-115467648D01*
X150544277Y-115265466D01*
X150481020Y-115070781D01*
X150481018Y-115070778D01*
X150481018Y-115070776D01*
X150447303Y-115004607D01*
X150388087Y-114888390D01*
X150369629Y-114862985D01*
X150267771Y-114722786D01*
X150123013Y-114578028D01*
X149957413Y-114457715D01*
X149957412Y-114457714D01*
X149957410Y-114457713D01*
X149900453Y-114428691D01*
X149775023Y-114364781D01*
X149580334Y-114301522D01*
X149405795Y-114273878D01*
X149378152Y-114269500D01*
X149173448Y-114269500D01*
X149149129Y-114273351D01*
X148971265Y-114301522D01*
X148776576Y-114364781D01*
X148594186Y-114457715D01*
X148428586Y-114578028D01*
X148283828Y-114722786D01*
X148163515Y-114888385D01*
X148156683Y-114901795D01*
X148108709Y-114952591D01*
X148046198Y-114969500D01*
X147410271Y-114969500D01*
X147343232Y-114949815D01*
X147322590Y-114933181D01*
X140754428Y-108365019D01*
X140720943Y-108303696D01*
X140725927Y-108234004D01*
X140767799Y-108178071D01*
X140803795Y-108159406D01*
X140817842Y-108154842D01*
X140975690Y-108074414D01*
X141119014Y-107970283D01*
X141244283Y-107845014D01*
X141348414Y-107701690D01*
X141428842Y-107543842D01*
X141483586Y-107375355D01*
X141511300Y-107200379D01*
X141511300Y-107023221D01*
X141502031Y-106964700D01*
X143221400Y-106964700D01*
X143221400Y-107258899D01*
X143221401Y-107258916D01*
X143259801Y-107550596D01*
X143335952Y-107834794D01*
X143448534Y-108106594D01*
X143448542Y-108106610D01*
X143595640Y-108361389D01*
X143595651Y-108361405D01*
X143774748Y-108594809D01*
X143774754Y-108594816D01*
X143982783Y-108802845D01*
X143982789Y-108802850D01*
X144216203Y-108981955D01*
X144216210Y-108981959D01*
X144470989Y-109129057D01*
X144471005Y-109129065D01*
X144742805Y-109241647D01*
X144742807Y-109241647D01*
X144742813Y-109241650D01*
X145027000Y-109317798D01*
X145318694Y-109356200D01*
X145318701Y-109356200D01*
X145612899Y-109356200D01*
X145612906Y-109356200D01*
X145904600Y-109317798D01*
X146188787Y-109241650D01*
X146262118Y-109211275D01*
X146460594Y-109129065D01*
X146460597Y-109129063D01*
X146460603Y-109129061D01*
X146715397Y-108981955D01*
X146948811Y-108802850D01*
X147156850Y-108594811D01*
X147335955Y-108361397D01*
X147483061Y-108106603D01*
X147496395Y-108074413D01*
X147595647Y-107834794D01*
X147595646Y-107834794D01*
X147595650Y-107834787D01*
X147671798Y-107550600D01*
X147710200Y-107258906D01*
X147710200Y-107023221D01*
X149420300Y-107023221D01*
X149420300Y-107200378D01*
X149448014Y-107375356D01*
X149502756Y-107543839D01*
X149502757Y-107543842D01*
X149583186Y-107701690D01*
X149687317Y-107845014D01*
X149812586Y-107970283D01*
X149955910Y-108074414D01*
X150019084Y-108106603D01*
X150113757Y-108154842D01*
X150113760Y-108154843D01*
X150185250Y-108178071D01*
X150282245Y-108209586D01*
X150457221Y-108237300D01*
X150457222Y-108237300D01*
X150634378Y-108237300D01*
X150634379Y-108237300D01*
X150809355Y-108209586D01*
X150977842Y-108154842D01*
X151135690Y-108074414D01*
X151279014Y-107970283D01*
X151404283Y-107845014D01*
X151508414Y-107701690D01*
X151588842Y-107543842D01*
X151643586Y-107375355D01*
X151671300Y-107200379D01*
X151671300Y-107023221D01*
X151643586Y-106848245D01*
X151588842Y-106679758D01*
X151588842Y-106679757D01*
X151508413Y-106521909D01*
X151497318Y-106506638D01*
X151404283Y-106378586D01*
X151279014Y-106253317D01*
X151135690Y-106149186D01*
X151072532Y-106117005D01*
X150977842Y-106068757D01*
X150977839Y-106068756D01*
X150809356Y-106014014D01*
X150721867Y-106000157D01*
X150634379Y-105986300D01*
X150457221Y-105986300D01*
X150398895Y-105995538D01*
X150282243Y-106014014D01*
X150113760Y-106068756D01*
X150113757Y-106068757D01*
X149955909Y-106149186D01*
X149874138Y-106208596D01*
X149812586Y-106253317D01*
X149812584Y-106253319D01*
X149812583Y-106253319D01*
X149687319Y-106378583D01*
X149687319Y-106378584D01*
X149687317Y-106378586D01*
X149642596Y-106440138D01*
X149583186Y-106521909D01*
X149502757Y-106679757D01*
X149502756Y-106679760D01*
X149448014Y-106848243D01*
X149420300Y-107023221D01*
X147710200Y-107023221D01*
X147710200Y-106964694D01*
X147671798Y-106673000D01*
X147595650Y-106388813D01*
X147576253Y-106341983D01*
X147483065Y-106117005D01*
X147483057Y-106116989D01*
X147335959Y-105862210D01*
X147335955Y-105862203D01*
X147156850Y-105628789D01*
X147156845Y-105628783D01*
X146948816Y-105420754D01*
X146948809Y-105420748D01*
X146715405Y-105241651D01*
X146715403Y-105241649D01*
X146715397Y-105241645D01*
X146715392Y-105241642D01*
X146715389Y-105241640D01*
X146460610Y-105094542D01*
X146460594Y-105094534D01*
X146188794Y-104981952D01*
X145935344Y-104914040D01*
X145904600Y-104905802D01*
X145904599Y-104905801D01*
X145904596Y-104905801D01*
X145612916Y-104867401D01*
X145612911Y-104867400D01*
X145612906Y-104867400D01*
X145318694Y-104867400D01*
X145318688Y-104867400D01*
X145318683Y-104867401D01*
X145027003Y-104905801D01*
X144742805Y-104981952D01*
X144471005Y-105094534D01*
X144470989Y-105094542D01*
X144216210Y-105241640D01*
X144216194Y-105241651D01*
X143982790Y-105420748D01*
X143982783Y-105420754D01*
X143774754Y-105628783D01*
X143774748Y-105628790D01*
X143595651Y-105862194D01*
X143595640Y-105862210D01*
X143448542Y-106116989D01*
X143448534Y-106117005D01*
X143335952Y-106388805D01*
X143259801Y-106673003D01*
X143221401Y-106964683D01*
X143221400Y-106964700D01*
X141502031Y-106964700D01*
X141483586Y-106848245D01*
X141428842Y-106679758D01*
X141428842Y-106679757D01*
X141348413Y-106521909D01*
X141337318Y-106506638D01*
X141313838Y-106440832D01*
X141329663Y-106372778D01*
X141379768Y-106324083D01*
X141448246Y-106310207D01*
X141453777Y-106310808D01*
X141541066Y-106322300D01*
X141541073Y-106322300D01*
X141770527Y-106322300D01*
X141770534Y-106322300D01*
X141998038Y-106292348D01*
X142219687Y-106232958D01*
X142431688Y-106145144D01*
X142630412Y-106030411D01*
X142812461Y-105890719D01*
X142812465Y-105890714D01*
X142812470Y-105890711D01*
X142974711Y-105728470D01*
X142974714Y-105728465D01*
X142974719Y-105728461D01*
X143114411Y-105546412D01*
X143229144Y-105347688D01*
X143316958Y-105135687D01*
X143376348Y-104914038D01*
X143406300Y-104686534D01*
X143406300Y-104457066D01*
X143376348Y-104229562D01*
X143316958Y-104007913D01*
X143229144Y-103795912D01*
X143114411Y-103597188D01*
X143114408Y-103597185D01*
X143114407Y-103597182D01*
X142974718Y-103415138D01*
X142974711Y-103415130D01*
X142812470Y-103252889D01*
X142812461Y-103252881D01*
X142630417Y-103113192D01*
X142572010Y-103079471D01*
X142431688Y-102998456D01*
X142431676Y-102998450D01*
X142219687Y-102910642D01*
X141998038Y-102851252D01*
X141960015Y-102846246D01*
X141770541Y-102821300D01*
X141770534Y-102821300D01*
X141541066Y-102821300D01*
X141541058Y-102821300D01*
X141324515Y-102849809D01*
X141313562Y-102851252D01*
X141313553Y-102851254D01*
X141313550Y-102851255D01*
X141264724Y-102864337D01*
X141194874Y-102862673D01*
X141137012Y-102823510D01*
X141109510Y-102759281D01*
X141121098Y-102690379D01*
X141144949Y-102656884D01*
X141884775Y-101917058D01*
X146255300Y-101917058D01*
X146255300Y-102146541D01*
X146273108Y-102281800D01*
X146285252Y-102374038D01*
X146285253Y-102374040D01*
X146344642Y-102595687D01*
X146432450Y-102807676D01*
X146432457Y-102807690D01*
X146547192Y-103006417D01*
X146686881Y-103188461D01*
X146686889Y-103188470D01*
X146849130Y-103350711D01*
X146849138Y-103350718D01*
X147031182Y-103490407D01*
X147031185Y-103490408D01*
X147031188Y-103490411D01*
X147229912Y-103605144D01*
X147229917Y-103605146D01*
X147229923Y-103605149D01*
X147311616Y-103638987D01*
X147441913Y-103692958D01*
X147663562Y-103752348D01*
X147880112Y-103780857D01*
X147887260Y-103781799D01*
X147891066Y-103782300D01*
X147891073Y-103782300D01*
X148120527Y-103782300D01*
X148120534Y-103782300D01*
X148348038Y-103752348D01*
X148569687Y-103692958D01*
X148781688Y-103605144D01*
X148980412Y-103490411D01*
X149162461Y-103350719D01*
X149162465Y-103350714D01*
X149162470Y-103350711D01*
X149321119Y-103192062D01*
X149382442Y-103158577D01*
X149452134Y-103163561D01*
X149508067Y-103205433D01*
X149532484Y-103270897D01*
X149532800Y-103279743D01*
X149532800Y-103329644D01*
X149539201Y-103389172D01*
X149539203Y-103389179D01*
X149589445Y-103523886D01*
X149589449Y-103523893D01*
X149675609Y-103638987D01*
X149675612Y-103638990D01*
X149790706Y-103725150D01*
X149790713Y-103725154D01*
X149925420Y-103775396D01*
X149925427Y-103775398D01*
X149984955Y-103781799D01*
X149984972Y-103781800D01*
X151057800Y-103781800D01*
X151557800Y-103781800D01*
X152630628Y-103781800D01*
X152630644Y-103781799D01*
X152690172Y-103775398D01*
X152690179Y-103775396D01*
X152824886Y-103725154D01*
X152824893Y-103725150D01*
X152939987Y-103638990D01*
X152939990Y-103638987D01*
X153026150Y-103523893D01*
X153026154Y-103523886D01*
X153076396Y-103389179D01*
X153076398Y-103389172D01*
X153082799Y-103329644D01*
X153082800Y-103329627D01*
X153082800Y-102281800D01*
X151557800Y-102281800D01*
X151557800Y-103781800D01*
X151057800Y-103781800D01*
X151057800Y-101781800D01*
X151557800Y-101781800D01*
X153082800Y-101781800D01*
X153082800Y-100733972D01*
X153082799Y-100733955D01*
X153076398Y-100674427D01*
X153076396Y-100674420D01*
X153026154Y-100539713D01*
X153026150Y-100539706D01*
X152939990Y-100424612D01*
X152939987Y-100424609D01*
X152824893Y-100338449D01*
X152824886Y-100338445D01*
X152690179Y-100288203D01*
X152690172Y-100288201D01*
X152630644Y-100281800D01*
X151557800Y-100281800D01*
X151557800Y-101781800D01*
X151057800Y-101781800D01*
X151057800Y-100281800D01*
X149984955Y-100281800D01*
X149925427Y-100288201D01*
X149925420Y-100288203D01*
X149790713Y-100338445D01*
X149790706Y-100338449D01*
X149675612Y-100424609D01*
X149675609Y-100424612D01*
X149589449Y-100539706D01*
X149589445Y-100539713D01*
X149539203Y-100674420D01*
X149539201Y-100674427D01*
X149532800Y-100733955D01*
X149532800Y-100783857D01*
X149513115Y-100850896D01*
X149460311Y-100896651D01*
X149391153Y-100906595D01*
X149327597Y-100877570D01*
X149321119Y-100871538D01*
X149162470Y-100712889D01*
X149162461Y-100712881D01*
X148980417Y-100573192D01*
X148781690Y-100458457D01*
X148781676Y-100458450D01*
X148569687Y-100370642D01*
X148348038Y-100311252D01*
X148310015Y-100306246D01*
X148120541Y-100281300D01*
X148120534Y-100281300D01*
X147891066Y-100281300D01*
X147891058Y-100281300D01*
X147674515Y-100309809D01*
X147663562Y-100311252D01*
X147569876Y-100336354D01*
X147441912Y-100370642D01*
X147229923Y-100458450D01*
X147229909Y-100458457D01*
X147031182Y-100573192D01*
X146849138Y-100712881D01*
X146686881Y-100875138D01*
X146547192Y-101057182D01*
X146432457Y-101255909D01*
X146432450Y-101255923D01*
X146344642Y-101467912D01*
X146285253Y-101689559D01*
X146285251Y-101689570D01*
X146255300Y-101917058D01*
X141884775Y-101917058D01*
X145143016Y-98658819D01*
X145204339Y-98625334D01*
X145230697Y-98622500D01*
X149836681Y-98622500D01*
X149836697Y-98622501D01*
X149844293Y-98622501D01*
X150002404Y-98622501D01*
X150002407Y-98622501D01*
X150155135Y-98581577D01*
X150205254Y-98552639D01*
X150292066Y-98502520D01*
X150403870Y-98390716D01*
X150403870Y-98390714D01*
X150414078Y-98380507D01*
X150414080Y-98380504D01*
X152376936Y-96417648D01*
X159405300Y-96417648D01*
X159405300Y-96622351D01*
X159437322Y-96824534D01*
X159500581Y-97019223D01*
X159593515Y-97201613D01*
X159713828Y-97367213D01*
X159858586Y-97511971D01*
X160013549Y-97624556D01*
X160024190Y-97632287D01*
X160140407Y-97691503D01*
X160206576Y-97725218D01*
X160206578Y-97725218D01*
X160206581Y-97725220D01*
X160310937Y-97759127D01*
X160401265Y-97788477D01*
X160502357Y-97804488D01*
X160603448Y-97820500D01*
X160603449Y-97820500D01*
X160808151Y-97820500D01*
X160808152Y-97820500D01*
X161010334Y-97788477D01*
X161205019Y-97725220D01*
X161387410Y-97632287D01*
X161480390Y-97564732D01*
X161553013Y-97511971D01*
X161553015Y-97511968D01*
X161553019Y-97511966D01*
X161697766Y-97367219D01*
X161697768Y-97367215D01*
X161697771Y-97367213D01*
X161750532Y-97294590D01*
X161818087Y-97201610D01*
X161911020Y-97019219D01*
X161974277Y-96824534D01*
X162006300Y-96622352D01*
X162006300Y-96417648D01*
X161974277Y-96215466D01*
X161911020Y-96020781D01*
X161911018Y-96020778D01*
X161911018Y-96020776D01*
X161864663Y-95929800D01*
X161818087Y-95838390D01*
X161810356Y-95827749D01*
X161697771Y-95672786D01*
X161553013Y-95528028D01*
X161387413Y-95407715D01*
X161387412Y-95407714D01*
X161387410Y-95407713D01*
X161330453Y-95378691D01*
X161205023Y-95314781D01*
X161010334Y-95251522D01*
X160835795Y-95223878D01*
X160808152Y-95219500D01*
X160603448Y-95219500D01*
X160579129Y-95223351D01*
X160401265Y-95251522D01*
X160206576Y-95314781D01*
X160024186Y-95407715D01*
X159858586Y-95528028D01*
X159713828Y-95672786D01*
X159593515Y-95838386D01*
X159500581Y-96020776D01*
X159437322Y-96215465D01*
X159405300Y-96417648D01*
X152376936Y-96417648D01*
X154663506Y-94131078D01*
X154663511Y-94131074D01*
X154673714Y-94120870D01*
X154673716Y-94120870D01*
X154785520Y-94009066D01*
X154851982Y-93893950D01*
X154864577Y-93872135D01*
X154905501Y-93719407D01*
X154905501Y-93561293D01*
X154905501Y-93553698D01*
X154905500Y-93553680D01*
X154905500Y-75034547D01*
X154914144Y-75005106D01*
X154920668Y-74975120D01*
X154924422Y-74970104D01*
X154925185Y-74967508D01*
X154941819Y-74946866D01*
X154977103Y-74911582D01*
X154977112Y-74911574D01*
X154983455Y-74905230D01*
X154989392Y-74901986D01*
X155000987Y-74892934D01*
X155000992Y-74892931D01*
X155002220Y-74894979D01*
X155044773Y-74871735D01*
X155114465Y-74876708D01*
X155158831Y-74905216D01*
X155210386Y-74956771D01*
X155329100Y-75043020D01*
X155375990Y-75077087D01*
X155491299Y-75135840D01*
X155558376Y-75170018D01*
X155558378Y-75170018D01*
X155558381Y-75170020D01*
X155653617Y-75200964D01*
X155753065Y-75233277D01*
X155854157Y-75249288D01*
X155955248Y-75265300D01*
X155955249Y-75265300D01*
X156159951Y-75265300D01*
X156159952Y-75265300D01*
X156362134Y-75233277D01*
X156556819Y-75170020D01*
X156650005Y-75122538D01*
X156718674Y-75109643D01*
X156783414Y-75135919D01*
X156823672Y-75193025D01*
X156830300Y-75233024D01*
X156830300Y-83647300D01*
X156810615Y-83714339D01*
X156757811Y-83760094D01*
X156706300Y-83771300D01*
X156107929Y-83771300D01*
X156107923Y-83771301D01*
X156048316Y-83777708D01*
X155913471Y-83828002D01*
X155913464Y-83828006D01*
X155798255Y-83914252D01*
X155798252Y-83914255D01*
X155712006Y-84029464D01*
X155712002Y-84029471D01*
X155661708Y-84164317D01*
X155655626Y-84220897D01*
X155655301Y-84223923D01*
X155655300Y-84223935D01*
X155655300Y-86819670D01*
X155655301Y-86819676D01*
X155661708Y-86879283D01*
X155712002Y-87014128D01*
X155712006Y-87014135D01*
X155798252Y-87129344D01*
X155798255Y-87129347D01*
X155913464Y-87215593D01*
X155913471Y-87215597D01*
X155958418Y-87232361D01*
X156048317Y-87265891D01*
X156107927Y-87272300D01*
X156706300Y-87272299D01*
X156773339Y-87291983D01*
X156819094Y-87344787D01*
X156830300Y-87396299D01*
X156830300Y-87703956D01*
X156830299Y-87703974D01*
X156830299Y-87869680D01*
X156830298Y-87869680D01*
X156830299Y-87869683D01*
X156871223Y-88022411D01*
X156891670Y-88057826D01*
X156900158Y-88072526D01*
X156900159Y-88072530D01*
X156900160Y-88072530D01*
X156937230Y-88136739D01*
X156950279Y-88159340D01*
X156950281Y-88159343D01*
X157069149Y-88278211D01*
X157069155Y-88278216D01*
X165599758Y-96808819D01*
X165633243Y-96870142D01*
X165628259Y-96939834D01*
X165586387Y-96995767D01*
X165520923Y-97020184D01*
X165512077Y-97020500D01*
X164468270Y-97020500D01*
X164468254Y-97020499D01*
X164460658Y-97020499D01*
X164302543Y-97020499D01*
X164226179Y-97040961D01*
X164149814Y-97061423D01*
X164149809Y-97061426D01*
X164012890Y-97140475D01*
X164012882Y-97140481D01*
X158368382Y-102784981D01*
X158307059Y-102818466D01*
X158280701Y-102821300D01*
X156107929Y-102821300D01*
X156107923Y-102821301D01*
X156048316Y-102827708D01*
X155913471Y-102878002D01*
X155913464Y-102878006D01*
X155798255Y-102964252D01*
X155798252Y-102964255D01*
X155712006Y-103079464D01*
X155712002Y-103079471D01*
X155661708Y-103214317D01*
X155655301Y-103273916D01*
X155655300Y-103273935D01*
X155655300Y-105869670D01*
X155655301Y-105869676D01*
X155661708Y-105929283D01*
X155712002Y-106064128D01*
X155712006Y-106064135D01*
X155798252Y-106179344D01*
X155798255Y-106179347D01*
X155913464Y-106265593D01*
X155913471Y-106265597D01*
X155958418Y-106282361D01*
X156048317Y-106315891D01*
X156107927Y-106322300D01*
X156706300Y-106322299D01*
X156773339Y-106341983D01*
X156819094Y-106394787D01*
X156830300Y-106446299D01*
X156830300Y-106753956D01*
X156830299Y-106753974D01*
X156830299Y-106919680D01*
X156830298Y-106919680D01*
X156871223Y-107072411D01*
X156900158Y-107122526D01*
X156900159Y-107122530D01*
X156900160Y-107122530D01*
X156950279Y-107209340D01*
X156950281Y-107209343D01*
X157069149Y-107328211D01*
X157069155Y-107328216D01*
X165675313Y-115934374D01*
X165675323Y-115934385D01*
X165679653Y-115938715D01*
X165679654Y-115938716D01*
X165791458Y-116050520D01*
X165878269Y-116100639D01*
X165878271Y-116100641D01*
X165916325Y-116122611D01*
X165928389Y-116129577D01*
X166081117Y-116170500D01*
X166239231Y-116170500D01*
X167096198Y-116170500D01*
X167163237Y-116190185D01*
X167206683Y-116238205D01*
X167213515Y-116251614D01*
X167333828Y-116417213D01*
X167478586Y-116561971D01*
X167633549Y-116674556D01*
X167644190Y-116682287D01*
X167760407Y-116741503D01*
X167826576Y-116775218D01*
X167826578Y-116775218D01*
X167826581Y-116775220D01*
X167930937Y-116809127D01*
X168021265Y-116838477D01*
X168063081Y-116845100D01*
X168223448Y-116870500D01*
X168223449Y-116870500D01*
X168428151Y-116870500D01*
X168428152Y-116870500D01*
X168630334Y-116838477D01*
X168825019Y-116775220D01*
X169007410Y-116682287D01*
X169100390Y-116614732D01*
X169173013Y-116561971D01*
X169173015Y-116561968D01*
X169173019Y-116561966D01*
X169317766Y-116417219D01*
X169317768Y-116417215D01*
X169317771Y-116417213D01*
X169370532Y-116344590D01*
X169438087Y-116251610D01*
X169531020Y-116069219D01*
X169594277Y-115874534D01*
X169626300Y-115672352D01*
X169626300Y-115467648D01*
X169594277Y-115265466D01*
X169531020Y-115070781D01*
X169531018Y-115070778D01*
X169531018Y-115070776D01*
X169497303Y-115004607D01*
X169438087Y-114888390D01*
X169419629Y-114862985D01*
X169317771Y-114722786D01*
X169173013Y-114578028D01*
X169007413Y-114457715D01*
X169007412Y-114457714D01*
X169007410Y-114457713D01*
X168950453Y-114428691D01*
X168825023Y-114364781D01*
X168630334Y-114301522D01*
X168455795Y-114273878D01*
X168428152Y-114269500D01*
X168223448Y-114269500D01*
X168199129Y-114273351D01*
X168021265Y-114301522D01*
X167826576Y-114364781D01*
X167644186Y-114457715D01*
X167478586Y-114578028D01*
X167333828Y-114722786D01*
X167213515Y-114888385D01*
X167206683Y-114901795D01*
X167158709Y-114952591D01*
X167096198Y-114969500D01*
X166460271Y-114969500D01*
X166393232Y-114949815D01*
X166372590Y-114933181D01*
X159804428Y-108365019D01*
X159770943Y-108303696D01*
X159775927Y-108234004D01*
X159817799Y-108178071D01*
X159853795Y-108159406D01*
X159867842Y-108154842D01*
X160025690Y-108074414D01*
X160169014Y-107970283D01*
X160294283Y-107845014D01*
X160398414Y-107701690D01*
X160478842Y-107543842D01*
X160533586Y-107375355D01*
X160561300Y-107200379D01*
X160561300Y-107023221D01*
X160552031Y-106964700D01*
X162271400Y-106964700D01*
X162271400Y-107258899D01*
X162271401Y-107258916D01*
X162309801Y-107550596D01*
X162385952Y-107834794D01*
X162498534Y-108106594D01*
X162498542Y-108106610D01*
X162645640Y-108361389D01*
X162645651Y-108361405D01*
X162824748Y-108594809D01*
X162824754Y-108594816D01*
X163032783Y-108802845D01*
X163032789Y-108802850D01*
X163266203Y-108981955D01*
X163266210Y-108981959D01*
X163520989Y-109129057D01*
X163521005Y-109129065D01*
X163792805Y-109241647D01*
X163792807Y-109241647D01*
X163792813Y-109241650D01*
X164077000Y-109317798D01*
X164368694Y-109356200D01*
X164368701Y-109356200D01*
X164662899Y-109356200D01*
X164662906Y-109356200D01*
X164954600Y-109317798D01*
X165238787Y-109241650D01*
X165312118Y-109211275D01*
X165510594Y-109129065D01*
X165510597Y-109129063D01*
X165510603Y-109129061D01*
X165765397Y-108981955D01*
X165998811Y-108802850D01*
X166206850Y-108594811D01*
X166385955Y-108361397D01*
X166533061Y-108106603D01*
X166546395Y-108074413D01*
X166645647Y-107834794D01*
X166645646Y-107834794D01*
X166645650Y-107834787D01*
X166721798Y-107550600D01*
X166760200Y-107258906D01*
X166760200Y-107023221D01*
X168470300Y-107023221D01*
X168470300Y-107200378D01*
X168498014Y-107375356D01*
X168552756Y-107543839D01*
X168552757Y-107543842D01*
X168633186Y-107701690D01*
X168737317Y-107845014D01*
X168862586Y-107970283D01*
X169005910Y-108074414D01*
X169069084Y-108106603D01*
X169163757Y-108154842D01*
X169163760Y-108154843D01*
X169235250Y-108178071D01*
X169332245Y-108209586D01*
X169507221Y-108237300D01*
X169507222Y-108237300D01*
X169684378Y-108237300D01*
X169684379Y-108237300D01*
X169859355Y-108209586D01*
X170027842Y-108154842D01*
X170185690Y-108074414D01*
X170329014Y-107970283D01*
X170454283Y-107845014D01*
X170558414Y-107701690D01*
X170638842Y-107543842D01*
X170693586Y-107375355D01*
X170721300Y-107200379D01*
X170721300Y-107023221D01*
X170693586Y-106848245D01*
X170638842Y-106679758D01*
X170638842Y-106679757D01*
X170558413Y-106521909D01*
X170547318Y-106506638D01*
X170454283Y-106378586D01*
X170329014Y-106253317D01*
X170185690Y-106149186D01*
X170122532Y-106117005D01*
X170027842Y-106068757D01*
X170027839Y-106068756D01*
X169859356Y-106014014D01*
X169771867Y-106000157D01*
X169684379Y-105986300D01*
X169507221Y-105986300D01*
X169448895Y-105995538D01*
X169332243Y-106014014D01*
X169163760Y-106068756D01*
X169163757Y-106068757D01*
X169005909Y-106149186D01*
X168924138Y-106208596D01*
X168862586Y-106253317D01*
X168862584Y-106253319D01*
X168862583Y-106253319D01*
X168737319Y-106378583D01*
X168737319Y-106378584D01*
X168737317Y-106378586D01*
X168692596Y-106440138D01*
X168633186Y-106521909D01*
X168552757Y-106679757D01*
X168552756Y-106679760D01*
X168498014Y-106848243D01*
X168470300Y-107023221D01*
X166760200Y-107023221D01*
X166760200Y-106964694D01*
X166721798Y-106673000D01*
X166645650Y-106388813D01*
X166626253Y-106341983D01*
X166533065Y-106117005D01*
X166533057Y-106116989D01*
X166385959Y-105862210D01*
X166385955Y-105862203D01*
X166206850Y-105628789D01*
X166206845Y-105628783D01*
X165998816Y-105420754D01*
X165998809Y-105420748D01*
X165765405Y-105241651D01*
X165765403Y-105241649D01*
X165765397Y-105241645D01*
X165765392Y-105241642D01*
X165765389Y-105241640D01*
X165510610Y-105094542D01*
X165510594Y-105094534D01*
X165238794Y-104981952D01*
X164985344Y-104914040D01*
X164954600Y-104905802D01*
X164954599Y-104905801D01*
X164954596Y-104905801D01*
X164662916Y-104867401D01*
X164662911Y-104867400D01*
X164662906Y-104867400D01*
X164368694Y-104867400D01*
X164368688Y-104867400D01*
X164368683Y-104867401D01*
X164077003Y-104905801D01*
X163792805Y-104981952D01*
X163521005Y-105094534D01*
X163520989Y-105094542D01*
X163266210Y-105241640D01*
X163266194Y-105241651D01*
X163032790Y-105420748D01*
X163032783Y-105420754D01*
X162824754Y-105628783D01*
X162824748Y-105628790D01*
X162645651Y-105862194D01*
X162645640Y-105862210D01*
X162498542Y-106116989D01*
X162498534Y-106117005D01*
X162385952Y-106388805D01*
X162309801Y-106673003D01*
X162271401Y-106964683D01*
X162271400Y-106964700D01*
X160552031Y-106964700D01*
X160533586Y-106848245D01*
X160478842Y-106679758D01*
X160478842Y-106679757D01*
X160398413Y-106521909D01*
X160387318Y-106506638D01*
X160363838Y-106440832D01*
X160379663Y-106372778D01*
X160429768Y-106324083D01*
X160498246Y-106310207D01*
X160503777Y-106310808D01*
X160591066Y-106322300D01*
X160591073Y-106322300D01*
X160820527Y-106322300D01*
X160820534Y-106322300D01*
X161048038Y-106292348D01*
X161269687Y-106232958D01*
X161481688Y-106145144D01*
X161680412Y-106030411D01*
X161862461Y-105890719D01*
X161862465Y-105890714D01*
X161862470Y-105890711D01*
X162024711Y-105728470D01*
X162024714Y-105728465D01*
X162024719Y-105728461D01*
X162164411Y-105546412D01*
X162279144Y-105347688D01*
X162366958Y-105135687D01*
X162426348Y-104914038D01*
X162456300Y-104686534D01*
X162456300Y-104457066D01*
X162426348Y-104229562D01*
X162366958Y-104007913D01*
X162279144Y-103795912D01*
X162164411Y-103597188D01*
X162164408Y-103597185D01*
X162164407Y-103597182D01*
X162024718Y-103415138D01*
X162024711Y-103415130D01*
X161862470Y-103252889D01*
X161862461Y-103252881D01*
X161680417Y-103113192D01*
X161622010Y-103079471D01*
X161481688Y-102998456D01*
X161481676Y-102998450D01*
X161269687Y-102910642D01*
X161048038Y-102851252D01*
X161010015Y-102846246D01*
X160820541Y-102821300D01*
X160820534Y-102821300D01*
X160591066Y-102821300D01*
X160591058Y-102821300D01*
X160374515Y-102849809D01*
X160363562Y-102851252D01*
X160363553Y-102851254D01*
X160363550Y-102851255D01*
X160314724Y-102864337D01*
X160244874Y-102862673D01*
X160187012Y-102823510D01*
X160159510Y-102759281D01*
X160171098Y-102690379D01*
X160194949Y-102656885D01*
X160934776Y-101917058D01*
X165305300Y-101917058D01*
X165305300Y-102146541D01*
X165323108Y-102281800D01*
X165335252Y-102374038D01*
X165335253Y-102374040D01*
X165394642Y-102595687D01*
X165482450Y-102807676D01*
X165482457Y-102807690D01*
X165597192Y-103006417D01*
X165736881Y-103188461D01*
X165736889Y-103188470D01*
X165899130Y-103350711D01*
X165899138Y-103350718D01*
X166081182Y-103490407D01*
X166081185Y-103490408D01*
X166081188Y-103490411D01*
X166279912Y-103605144D01*
X166279917Y-103605146D01*
X166279923Y-103605149D01*
X166361616Y-103638987D01*
X166491913Y-103692958D01*
X166713562Y-103752348D01*
X166930112Y-103780857D01*
X166937260Y-103781799D01*
X166941066Y-103782300D01*
X166941073Y-103782300D01*
X167170527Y-103782300D01*
X167170534Y-103782300D01*
X167398038Y-103752348D01*
X167619687Y-103692958D01*
X167831688Y-103605144D01*
X168030412Y-103490411D01*
X168212461Y-103350719D01*
X168212465Y-103350714D01*
X168212470Y-103350711D01*
X168371119Y-103192062D01*
X168432442Y-103158577D01*
X168502134Y-103163561D01*
X168558067Y-103205433D01*
X168582484Y-103270897D01*
X168582800Y-103279743D01*
X168582800Y-103329644D01*
X168589201Y-103389172D01*
X168589203Y-103389179D01*
X168639445Y-103523886D01*
X168639449Y-103523893D01*
X168725609Y-103638987D01*
X168725612Y-103638990D01*
X168840706Y-103725150D01*
X168840713Y-103725154D01*
X168975420Y-103775396D01*
X168975427Y-103775398D01*
X169034955Y-103781799D01*
X169034972Y-103781800D01*
X170107800Y-103781800D01*
X170607800Y-103781800D01*
X171680628Y-103781800D01*
X171680644Y-103781799D01*
X171740172Y-103775398D01*
X171740179Y-103775396D01*
X171874886Y-103725154D01*
X171874893Y-103725150D01*
X171989987Y-103638990D01*
X171989990Y-103638987D01*
X172076150Y-103523893D01*
X172076154Y-103523886D01*
X172126396Y-103389179D01*
X172126398Y-103389172D01*
X172132799Y-103329644D01*
X172132800Y-103329627D01*
X172132800Y-102281800D01*
X170607800Y-102281800D01*
X170607800Y-103781800D01*
X170107800Y-103781800D01*
X170107800Y-101781800D01*
X170607800Y-101781800D01*
X172132800Y-101781800D01*
X172132800Y-100733972D01*
X172132799Y-100733955D01*
X172126398Y-100674427D01*
X172126396Y-100674420D01*
X172076154Y-100539713D01*
X172076150Y-100539706D01*
X171989990Y-100424612D01*
X171989987Y-100424609D01*
X171874893Y-100338449D01*
X171874886Y-100338445D01*
X171740179Y-100288203D01*
X171740172Y-100288201D01*
X171680644Y-100281800D01*
X170607800Y-100281800D01*
X170607800Y-101781800D01*
X170107800Y-101781800D01*
X170107800Y-100281800D01*
X169034955Y-100281800D01*
X168975427Y-100288201D01*
X168975420Y-100288203D01*
X168840713Y-100338445D01*
X168840706Y-100338449D01*
X168725612Y-100424609D01*
X168725609Y-100424612D01*
X168639449Y-100539706D01*
X168639445Y-100539713D01*
X168589203Y-100674420D01*
X168589201Y-100674427D01*
X168582800Y-100733955D01*
X168582800Y-100783857D01*
X168563115Y-100850896D01*
X168510311Y-100896651D01*
X168441153Y-100906595D01*
X168377597Y-100877570D01*
X168371119Y-100871538D01*
X168212470Y-100712889D01*
X168212461Y-100712881D01*
X168030417Y-100573192D01*
X167831690Y-100458457D01*
X167831676Y-100458450D01*
X167619687Y-100370642D01*
X167398038Y-100311252D01*
X167360015Y-100306246D01*
X167170541Y-100281300D01*
X167170534Y-100281300D01*
X166941066Y-100281300D01*
X166941058Y-100281300D01*
X166724515Y-100309809D01*
X166713562Y-100311252D01*
X166619876Y-100336354D01*
X166491912Y-100370642D01*
X166279923Y-100458450D01*
X166279909Y-100458457D01*
X166081182Y-100573192D01*
X165899138Y-100712881D01*
X165736881Y-100875138D01*
X165597192Y-101057182D01*
X165482457Y-101255909D01*
X165482450Y-101255923D01*
X165394642Y-101467912D01*
X165335253Y-101689559D01*
X165335251Y-101689570D01*
X165305300Y-101917058D01*
X160934776Y-101917058D01*
X164594017Y-98257819D01*
X164655340Y-98224334D01*
X164681698Y-98221500D01*
X168695181Y-98221500D01*
X168695197Y-98221501D01*
X168702793Y-98221501D01*
X168860904Y-98221501D01*
X168860907Y-98221501D01*
X169013635Y-98180577D01*
X169063754Y-98151639D01*
X169150566Y-98101520D01*
X169262370Y-97989716D01*
X169262370Y-97989714D01*
X169272578Y-97979507D01*
X169272580Y-97979504D01*
X172757106Y-94494978D01*
X172757111Y-94494974D01*
X172767314Y-94484770D01*
X172767316Y-94484770D01*
X172879120Y-94372966D01*
X172955397Y-94240850D01*
X172958177Y-94236035D01*
X172999101Y-94083307D01*
X172999101Y-93925193D01*
X172999101Y-93917598D01*
X172999100Y-93917580D01*
X172999100Y-72792660D01*
X172999101Y-72792647D01*
X172999101Y-72624544D01*
X172996439Y-72614610D01*
X172958177Y-72471816D01*
X172902388Y-72375185D01*
X172879124Y-72334890D01*
X172879118Y-72334882D01*
X171302590Y-70758355D01*
X171302588Y-70758352D01*
X171183717Y-70639481D01*
X171183716Y-70639480D01*
X171096904Y-70589360D01*
X171096904Y-70589359D01*
X171096900Y-70589358D01*
X171046785Y-70560423D01*
X170894057Y-70519499D01*
X170735943Y-70519499D01*
X170728347Y-70519499D01*
X170728331Y-70519500D01*
X161590097Y-70519500D01*
X161523058Y-70499815D01*
X161502416Y-70483181D01*
X151221276Y-60202041D01*
X151187791Y-60140718D01*
X151192775Y-60071026D01*
X151234647Y-60015093D01*
X151277552Y-59994944D01*
X151277500Y-59994783D01*
X151278789Y-59994364D01*
X151280033Y-59993780D01*
X151282113Y-59993280D01*
X151282134Y-59993277D01*
X151476819Y-59930020D01*
X151478790Y-59929016D01*
X151528076Y-59903903D01*
X151659210Y-59837087D01*
X151752190Y-59769532D01*
X151824813Y-59716771D01*
X151824815Y-59716768D01*
X151824819Y-59716766D01*
X151969566Y-59572019D01*
X151969568Y-59572015D01*
X151969571Y-59572013D01*
X152089884Y-59406414D01*
X152089886Y-59406411D01*
X152089887Y-59406410D01*
X152137116Y-59313717D01*
X152185089Y-59262923D01*
X152252910Y-59246128D01*
X152319045Y-59268665D01*
X152358085Y-59313719D01*
X152405315Y-59406414D01*
X152525628Y-59572013D01*
X152670386Y-59716771D01*
X152813608Y-59820826D01*
X152835990Y-59837087D01*
X152917099Y-59878414D01*
X153018376Y-59930018D01*
X153018378Y-59930018D01*
X153018381Y-59930020D01*
X153078821Y-59949658D01*
X153213065Y-59993277D01*
X153314157Y-60009288D01*
X153415248Y-60025300D01*
X153415249Y-60025300D01*
X153619951Y-60025300D01*
X153619952Y-60025300D01*
X153822134Y-59993277D01*
X154016819Y-59930020D01*
X154018790Y-59929016D01*
X154068076Y-59903903D01*
X154199210Y-59837087D01*
X154292190Y-59769532D01*
X154364813Y-59716771D01*
X154364815Y-59716768D01*
X154364819Y-59716766D01*
X154509566Y-59572019D01*
X154509568Y-59572015D01*
X154509571Y-59572013D01*
X154629884Y-59406414D01*
X154629886Y-59406411D01*
X154629887Y-59406410D01*
X154677116Y-59313717D01*
X154725089Y-59262923D01*
X154792910Y-59246128D01*
X154859045Y-59268665D01*
X154898085Y-59313719D01*
X154945315Y-59406414D01*
X155065628Y-59572013D01*
X155210386Y-59716771D01*
X155353608Y-59820826D01*
X155375990Y-59837087D01*
X155457099Y-59878414D01*
X155558376Y-59930018D01*
X155558378Y-59930018D01*
X155558381Y-59930020D01*
X155618821Y-59949658D01*
X155753065Y-59993277D01*
X155854157Y-60009288D01*
X155955248Y-60025300D01*
X155955249Y-60025300D01*
X156159951Y-60025300D01*
X156159952Y-60025300D01*
X156362134Y-59993277D01*
X156556819Y-59930020D01*
X156558790Y-59929016D01*
X156608076Y-59903903D01*
X156739210Y-59837087D01*
X156832190Y-59769532D01*
X156904813Y-59716771D01*
X156904815Y-59716768D01*
X156904819Y-59716766D01*
X157049566Y-59572019D01*
X157049568Y-59572015D01*
X157049571Y-59572013D01*
X157169884Y-59406414D01*
X157169886Y-59406411D01*
X157169887Y-59406410D01*
X157217116Y-59313717D01*
X157265089Y-59262923D01*
X157332910Y-59246128D01*
X157399045Y-59268665D01*
X157438085Y-59313719D01*
X157485315Y-59406414D01*
X157605628Y-59572013D01*
X157750386Y-59716771D01*
X157893608Y-59820826D01*
X157915990Y-59837087D01*
X157997099Y-59878414D01*
X158098376Y-59930018D01*
X158098378Y-59930018D01*
X158098381Y-59930020D01*
X158158821Y-59949658D01*
X158293065Y-59993277D01*
X158394157Y-60009288D01*
X158495248Y-60025300D01*
X158495249Y-60025300D01*
X158699951Y-60025300D01*
X158699952Y-60025300D01*
X158902134Y-59993277D01*
X159096819Y-59930020D01*
X159098790Y-59929016D01*
X159148076Y-59903903D01*
X159279210Y-59837087D01*
X159372190Y-59769532D01*
X159444813Y-59716771D01*
X159444815Y-59716768D01*
X159444819Y-59716766D01*
X159589566Y-59572019D01*
X159589568Y-59572015D01*
X159589571Y-59572013D01*
X159709884Y-59406414D01*
X159709886Y-59406411D01*
X159709887Y-59406410D01*
X159757116Y-59313717D01*
X159805089Y-59262923D01*
X159872910Y-59246128D01*
X159939045Y-59268665D01*
X159978085Y-59313719D01*
X160025315Y-59406414D01*
X160145628Y-59572013D01*
X160290386Y-59716771D01*
X160433608Y-59820826D01*
X160455990Y-59837087D01*
X160537099Y-59878414D01*
X160638376Y-59930018D01*
X160638378Y-59930018D01*
X160638381Y-59930020D01*
X160698821Y-59949658D01*
X160833065Y-59993277D01*
X160934157Y-60009288D01*
X161035248Y-60025300D01*
X161035249Y-60025300D01*
X161239951Y-60025300D01*
X161239952Y-60025300D01*
X161442134Y-59993277D01*
X161636819Y-59930020D01*
X161638790Y-59929016D01*
X161688076Y-59903903D01*
X161819210Y-59837087D01*
X161912190Y-59769532D01*
X161984813Y-59716771D01*
X161984815Y-59716768D01*
X161984819Y-59716766D01*
X162129566Y-59572019D01*
X162129568Y-59572015D01*
X162129571Y-59572013D01*
X162249884Y-59406414D01*
X162249886Y-59406411D01*
X162249887Y-59406410D01*
X162297116Y-59313717D01*
X162345089Y-59262923D01*
X162412910Y-59246128D01*
X162479045Y-59268665D01*
X162518085Y-59313719D01*
X162565315Y-59406414D01*
X162685628Y-59572013D01*
X162830386Y-59716771D01*
X162973608Y-59820826D01*
X162995990Y-59837087D01*
X163077099Y-59878414D01*
X163178376Y-59930018D01*
X163178378Y-59930018D01*
X163178381Y-59930020D01*
X163238821Y-59949658D01*
X163373065Y-59993277D01*
X163474157Y-60009288D01*
X163575248Y-60025300D01*
X163575249Y-60025300D01*
X163779951Y-60025300D01*
X163779952Y-60025300D01*
X163982134Y-59993277D01*
X164176819Y-59930020D01*
X164178790Y-59929016D01*
X164228076Y-59903903D01*
X164359210Y-59837087D01*
X164452190Y-59769532D01*
X164524813Y-59716771D01*
X164524815Y-59716768D01*
X164524819Y-59716766D01*
X164669566Y-59572019D01*
X164669568Y-59572015D01*
X164669571Y-59572013D01*
X164789884Y-59406414D01*
X164789886Y-59406411D01*
X164789887Y-59406410D01*
X164837116Y-59313717D01*
X164885089Y-59262923D01*
X164952910Y-59246128D01*
X165019045Y-59268665D01*
X165058085Y-59313719D01*
X165105315Y-59406414D01*
X165225628Y-59572013D01*
X165370386Y-59716771D01*
X165513608Y-59820826D01*
X165535990Y-59837087D01*
X165617099Y-59878414D01*
X165718376Y-59930018D01*
X165718378Y-59930018D01*
X165718381Y-59930020D01*
X165778821Y-59949658D01*
X165913065Y-59993277D01*
X166014157Y-60009288D01*
X166115248Y-60025300D01*
X166115249Y-60025300D01*
X166319951Y-60025300D01*
X166319952Y-60025300D01*
X166522134Y-59993277D01*
X166716819Y-59930020D01*
X166718790Y-59929016D01*
X166768076Y-59903903D01*
X166899210Y-59837087D01*
X166992190Y-59769532D01*
X167064813Y-59716771D01*
X167064815Y-59716768D01*
X167064819Y-59716766D01*
X167209566Y-59572019D01*
X167209568Y-59572015D01*
X167209571Y-59572013D01*
X167329884Y-59406414D01*
X167329886Y-59406411D01*
X167329887Y-59406410D01*
X167377395Y-59313169D01*
X167425370Y-59262374D01*
X167493191Y-59245579D01*
X167559325Y-59268116D01*
X167598365Y-59313170D01*
X167645740Y-59406149D01*
X167766017Y-59571694D01*
X167766017Y-59571695D01*
X167910704Y-59716382D01*
X168076250Y-59836659D01*
X168258568Y-59929554D01*
X168453178Y-59992788D01*
X168507600Y-60001407D01*
X168507600Y-59040486D01*
X168511994Y-59044880D01*
X168603206Y-59097541D01*
X168704939Y-59124800D01*
X168810261Y-59124800D01*
X168911994Y-59097541D01*
X169003206Y-59044880D01*
X169007600Y-59040486D01*
X169007600Y-60001406D01*
X169062021Y-59992788D01*
X169256631Y-59929554D01*
X169438949Y-59836659D01*
X169604494Y-59716382D01*
X169604495Y-59716382D01*
X169749182Y-59571695D01*
X169749182Y-59571694D01*
X169869461Y-59406147D01*
X169916834Y-59313171D01*
X169964808Y-59262375D01*
X170032628Y-59245579D01*
X170098764Y-59268116D01*
X170137803Y-59313169D01*
X170185313Y-59406411D01*
X170305628Y-59572013D01*
X170450386Y-59716771D01*
X170593608Y-59820826D01*
X170615990Y-59837087D01*
X170697099Y-59878414D01*
X170798376Y-59930018D01*
X170798378Y-59930018D01*
X170798381Y-59930020D01*
X170858821Y-59949658D01*
X170993065Y-59993277D01*
X171094157Y-60009288D01*
X171195248Y-60025300D01*
X171195249Y-60025300D01*
X171399951Y-60025300D01*
X171399952Y-60025300D01*
X171602134Y-59993277D01*
X171796819Y-59930020D01*
X171798790Y-59929016D01*
X171848076Y-59903903D01*
X171979210Y-59837087D01*
X172072190Y-59769532D01*
X172144813Y-59716771D01*
X172144815Y-59716768D01*
X172144819Y-59716766D01*
X172289566Y-59572019D01*
X172289568Y-59572015D01*
X172289571Y-59572013D01*
X172342332Y-59499390D01*
X172409887Y-59406410D01*
X172502820Y-59224019D01*
X172566077Y-59029334D01*
X172598100Y-58827152D01*
X172598100Y-58622448D01*
X172585408Y-58542313D01*
X172566077Y-58420265D01*
X172502818Y-58225576D01*
X172410019Y-58043450D01*
X172409887Y-58043190D01*
X172402156Y-58032549D01*
X172289571Y-57877586D01*
X172144813Y-57732828D01*
X171979213Y-57612515D01*
X171979212Y-57612514D01*
X171979210Y-57612513D01*
X171922253Y-57583491D01*
X171796823Y-57519581D01*
X171602134Y-57456322D01*
X171427595Y-57428678D01*
X171399952Y-57424300D01*
X171195248Y-57424300D01*
X171170929Y-57428151D01*
X170993065Y-57456322D01*
X170798376Y-57519581D01*
X170615986Y-57612515D01*
X170450386Y-57732828D01*
X170305628Y-57877586D01*
X170185313Y-58043188D01*
X170137803Y-58136430D01*
X170089828Y-58187226D01*
X170022007Y-58204020D01*
X169955872Y-58181482D01*
X169916834Y-58136428D01*
X169869461Y-58043452D01*
X169749182Y-57877905D01*
X169749182Y-57877904D01*
X169604495Y-57733217D01*
X169438949Y-57612940D01*
X169256629Y-57520044D01*
X169062013Y-57456809D01*
X169007600Y-57448190D01*
X169007600Y-58409114D01*
X169003206Y-58404720D01*
X168911994Y-58352059D01*
X168810261Y-58324800D01*
X168704939Y-58324800D01*
X168603206Y-58352059D01*
X168511994Y-58404720D01*
X168507600Y-58409114D01*
X168507600Y-57448190D01*
X168453186Y-57456809D01*
X168258570Y-57520044D01*
X168076250Y-57612940D01*
X167910705Y-57733217D01*
X167910704Y-57733217D01*
X167766017Y-57877904D01*
X167766017Y-57877905D01*
X167645740Y-58043450D01*
X167598365Y-58136429D01*
X167550390Y-58187225D01*
X167482569Y-58204020D01*
X167416434Y-58181482D01*
X167377395Y-58136429D01*
X167330019Y-58043450D01*
X167329887Y-58043190D01*
X167322156Y-58032549D01*
X167209571Y-57877586D01*
X167064813Y-57732828D01*
X166899213Y-57612515D01*
X166899212Y-57612514D01*
X166899210Y-57612513D01*
X166842253Y-57583491D01*
X166716823Y-57519581D01*
X166522134Y-57456322D01*
X166347595Y-57428678D01*
X166319952Y-57424300D01*
X166115248Y-57424300D01*
X166090929Y-57428151D01*
X165913065Y-57456322D01*
X165718376Y-57519581D01*
X165535986Y-57612515D01*
X165370386Y-57732828D01*
X165225628Y-57877586D01*
X165105315Y-58043186D01*
X165058085Y-58135880D01*
X165010110Y-58186676D01*
X164942289Y-58203471D01*
X164876154Y-58180934D01*
X164837115Y-58135880D01*
X164790019Y-58043450D01*
X164789887Y-58043190D01*
X164782156Y-58032549D01*
X164669571Y-57877586D01*
X164524813Y-57732828D01*
X164359213Y-57612515D01*
X164359212Y-57612514D01*
X164359210Y-57612513D01*
X164302253Y-57583491D01*
X164176823Y-57519581D01*
X163982134Y-57456322D01*
X163807595Y-57428678D01*
X163779952Y-57424300D01*
X163575248Y-57424300D01*
X163550929Y-57428151D01*
X163373065Y-57456322D01*
X163178376Y-57519581D01*
X162995986Y-57612515D01*
X162830386Y-57732828D01*
X162685628Y-57877586D01*
X162565315Y-58043186D01*
X162518085Y-58135880D01*
X162470110Y-58186676D01*
X162402289Y-58203471D01*
X162336154Y-58180934D01*
X162297115Y-58135880D01*
X162250019Y-58043450D01*
X162249887Y-58043190D01*
X162242156Y-58032549D01*
X162129571Y-57877586D01*
X161984813Y-57732828D01*
X161819213Y-57612515D01*
X161819212Y-57612514D01*
X161819210Y-57612513D01*
X161762253Y-57583491D01*
X161636823Y-57519581D01*
X161442134Y-57456322D01*
X161267595Y-57428678D01*
X161239952Y-57424300D01*
X161035248Y-57424300D01*
X161010929Y-57428151D01*
X160833065Y-57456322D01*
X160638376Y-57519581D01*
X160455986Y-57612515D01*
X160290386Y-57732828D01*
X160145628Y-57877586D01*
X160025315Y-58043186D01*
X159978085Y-58135880D01*
X159930110Y-58186676D01*
X159862289Y-58203471D01*
X159796154Y-58180934D01*
X159757115Y-58135880D01*
X159710019Y-58043450D01*
X159709887Y-58043190D01*
X159702156Y-58032549D01*
X159589571Y-57877586D01*
X159444813Y-57732828D01*
X159279213Y-57612515D01*
X159279212Y-57612514D01*
X159279210Y-57612513D01*
X159222253Y-57583491D01*
X159096823Y-57519581D01*
X158902134Y-57456322D01*
X158727595Y-57428678D01*
X158699952Y-57424300D01*
X158495248Y-57424300D01*
X158470929Y-57428151D01*
X158293065Y-57456322D01*
X158098376Y-57519581D01*
X157915986Y-57612515D01*
X157750386Y-57732828D01*
X157605628Y-57877586D01*
X157485315Y-58043186D01*
X157438085Y-58135880D01*
X157390110Y-58186676D01*
X157322289Y-58203471D01*
X157256154Y-58180934D01*
X157217115Y-58135880D01*
X157170019Y-58043450D01*
X157169887Y-58043190D01*
X157162156Y-58032549D01*
X157049571Y-57877586D01*
X156904813Y-57732828D01*
X156739213Y-57612515D01*
X156739212Y-57612514D01*
X156739210Y-57612513D01*
X156682253Y-57583491D01*
X156556823Y-57519581D01*
X156362134Y-57456322D01*
X156187595Y-57428678D01*
X156159952Y-57424300D01*
X155955248Y-57424300D01*
X155930929Y-57428151D01*
X155753065Y-57456322D01*
X155558376Y-57519581D01*
X155375986Y-57612515D01*
X155210386Y-57732828D01*
X155065628Y-57877586D01*
X154945315Y-58043186D01*
X154898085Y-58135880D01*
X154850110Y-58186676D01*
X154782289Y-58203471D01*
X154716154Y-58180934D01*
X154677115Y-58135880D01*
X154630019Y-58043450D01*
X154629887Y-58043190D01*
X154622156Y-58032549D01*
X154509571Y-57877586D01*
X154364813Y-57732828D01*
X154199213Y-57612515D01*
X154199212Y-57612514D01*
X154199210Y-57612513D01*
X154142253Y-57583491D01*
X154016823Y-57519581D01*
X153822134Y-57456322D01*
X153647595Y-57428678D01*
X153619952Y-57424300D01*
X153415248Y-57424300D01*
X153390929Y-57428151D01*
X153213065Y-57456322D01*
X153018376Y-57519581D01*
X152835986Y-57612515D01*
X152670386Y-57732828D01*
X152525628Y-57877586D01*
X152405315Y-58043186D01*
X152358085Y-58135880D01*
X152310110Y-58186676D01*
X152242289Y-58203471D01*
X152176154Y-58180934D01*
X152137115Y-58135880D01*
X152090019Y-58043450D01*
X152089887Y-58043190D01*
X152082156Y-58032549D01*
X151969571Y-57877586D01*
X151824813Y-57732828D01*
X151659213Y-57612515D01*
X151659212Y-57612514D01*
X151659210Y-57612513D01*
X151602253Y-57583491D01*
X151476823Y-57519581D01*
X151282134Y-57456322D01*
X151107595Y-57428678D01*
X151079952Y-57424300D01*
X150875248Y-57424300D01*
X150834811Y-57430704D01*
X150673062Y-57456323D01*
X150673060Y-57456323D01*
X150658749Y-57460973D01*
X150588908Y-57462964D01*
X150532757Y-57430721D01*
X150176816Y-57074781D01*
X150143331Y-57013458D01*
X150148315Y-56943767D01*
X150190186Y-56887833D01*
X150255651Y-56863416D01*
X150264497Y-56863100D01*
X177226300Y-56863100D01*
X177293339Y-56882785D01*
X177339094Y-56935589D01*
X177350300Y-56987100D01*
X177350300Y-119238100D01*
X177330615Y-119305139D01*
X177277811Y-119350894D01*
X177226300Y-119362100D01*
X113756100Y-119362100D01*
X113689061Y-119342415D01*
X113643306Y-119289611D01*
X113632100Y-119238100D01*
X113632100Y-117470313D01*
X114067100Y-117470313D01*
X114067100Y-117682886D01*
X114100353Y-117892839D01*
X114166044Y-118095014D01*
X114262551Y-118284420D01*
X114387490Y-118456386D01*
X114537813Y-118606709D01*
X114709779Y-118731648D01*
X114709781Y-118731649D01*
X114709784Y-118731651D01*
X114899188Y-118828157D01*
X115101357Y-118893846D01*
X115311313Y-118927100D01*
X115311314Y-118927100D01*
X115523886Y-118927100D01*
X115523887Y-118927100D01*
X115733843Y-118893846D01*
X115936012Y-118828157D01*
X116125416Y-118731651D01*
X116147389Y-118715686D01*
X116297386Y-118606709D01*
X116297388Y-118606706D01*
X116297392Y-118606704D01*
X116447704Y-118456392D01*
X116447706Y-118456388D01*
X116447709Y-118456386D01*
X116572648Y-118284420D01*
X116572647Y-118284420D01*
X116572651Y-118284416D01*
X116669157Y-118095012D01*
X116734846Y-117892843D01*
X116768100Y-117682887D01*
X116768100Y-117470313D01*
X174214300Y-117470313D01*
X174214300Y-117682886D01*
X174247553Y-117892839D01*
X174313244Y-118095014D01*
X174409751Y-118284420D01*
X174534690Y-118456386D01*
X174685013Y-118606709D01*
X174856979Y-118731648D01*
X174856981Y-118731649D01*
X174856984Y-118731651D01*
X175046388Y-118828157D01*
X175248557Y-118893846D01*
X175458513Y-118927100D01*
X175458514Y-118927100D01*
X175671086Y-118927100D01*
X175671087Y-118927100D01*
X175881043Y-118893846D01*
X176083212Y-118828157D01*
X176272616Y-118731651D01*
X176294589Y-118715686D01*
X176444586Y-118606709D01*
X176444588Y-118606706D01*
X176444592Y-118606704D01*
X176594904Y-118456392D01*
X176594906Y-118456388D01*
X176594909Y-118456386D01*
X176719848Y-118284420D01*
X176719847Y-118284420D01*
X176719851Y-118284416D01*
X176816357Y-118095012D01*
X176882046Y-117892843D01*
X176915300Y-117682887D01*
X176915300Y-117470313D01*
X176882046Y-117260357D01*
X176816357Y-117058188D01*
X176719851Y-116868784D01*
X176719849Y-116868781D01*
X176719848Y-116868779D01*
X176594909Y-116696813D01*
X176444586Y-116546490D01*
X176272620Y-116421551D01*
X176083214Y-116325044D01*
X176083213Y-116325043D01*
X176083212Y-116325043D01*
X175881043Y-116259354D01*
X175881041Y-116259353D01*
X175881040Y-116259353D01*
X175719757Y-116233808D01*
X175671087Y-116226100D01*
X175458513Y-116226100D01*
X175409842Y-116233808D01*
X175248560Y-116259353D01*
X175046385Y-116325044D01*
X174856979Y-116421551D01*
X174685013Y-116546490D01*
X174534690Y-116696813D01*
X174409751Y-116868779D01*
X174313244Y-117058185D01*
X174247553Y-117260360D01*
X174214300Y-117470313D01*
X116768100Y-117470313D01*
X116734846Y-117260357D01*
X116669157Y-117058188D01*
X116572651Y-116868784D01*
X116572649Y-116868781D01*
X116572648Y-116868779D01*
X116447709Y-116696813D01*
X116297386Y-116546490D01*
X116125420Y-116421551D01*
X115936014Y-116325044D01*
X115936013Y-116325043D01*
X115936012Y-116325043D01*
X115733843Y-116259354D01*
X115733841Y-116259353D01*
X115733840Y-116259353D01*
X115572557Y-116233808D01*
X115523887Y-116226100D01*
X115311313Y-116226100D01*
X115262642Y-116233808D01*
X115101360Y-116259353D01*
X114899185Y-116325044D01*
X114709779Y-116421551D01*
X114537813Y-116546490D01*
X114387490Y-116696813D01*
X114262551Y-116868779D01*
X114166044Y-117058185D01*
X114100353Y-117260360D01*
X114067100Y-117470313D01*
X113632100Y-117470313D01*
X113632100Y-115442248D01*
X121305300Y-115442248D01*
X121305300Y-115646951D01*
X121337322Y-115849134D01*
X121400581Y-116043823D01*
X121493515Y-116226213D01*
X121613828Y-116391813D01*
X121758586Y-116536571D01*
X121913549Y-116649156D01*
X121924190Y-116656887D01*
X122040407Y-116716103D01*
X122106576Y-116749818D01*
X122106578Y-116749818D01*
X122106581Y-116749820D01*
X122184748Y-116775218D01*
X122301265Y-116813077D01*
X122402357Y-116829088D01*
X122503448Y-116845100D01*
X122503449Y-116845100D01*
X122708151Y-116845100D01*
X122708152Y-116845100D01*
X122910334Y-116813077D01*
X123105019Y-116749820D01*
X123287410Y-116656887D01*
X123418059Y-116561966D01*
X123453013Y-116536571D01*
X123453015Y-116536568D01*
X123453019Y-116536566D01*
X123597766Y-116391819D01*
X123597768Y-116391815D01*
X123597771Y-116391813D01*
X123650532Y-116319190D01*
X123718087Y-116226210D01*
X123811020Y-116043819D01*
X123874277Y-115849134D01*
X123906300Y-115646952D01*
X123906300Y-115442248D01*
X123874277Y-115240066D01*
X123811020Y-115045381D01*
X123811018Y-115045378D01*
X123811018Y-115045376D01*
X123763741Y-114952591D01*
X123718087Y-114862990D01*
X123710356Y-114852349D01*
X123597771Y-114697386D01*
X123453013Y-114552628D01*
X123287413Y-114432315D01*
X123287412Y-114432314D01*
X123287410Y-114432313D01*
X123230453Y-114403291D01*
X123105023Y-114339381D01*
X122910334Y-114276122D01*
X122735795Y-114248478D01*
X122708152Y-114244100D01*
X122503448Y-114244100D01*
X122479129Y-114247951D01*
X122301265Y-114276122D01*
X122106576Y-114339381D01*
X121924186Y-114432315D01*
X121758586Y-114552628D01*
X121613828Y-114697386D01*
X121493515Y-114862986D01*
X121400581Y-115045376D01*
X121337322Y-115240065D01*
X121305300Y-115442248D01*
X113632100Y-115442248D01*
X113632100Y-96417648D01*
X121305300Y-96417648D01*
X121305300Y-96622351D01*
X121337322Y-96824534D01*
X121400581Y-97019223D01*
X121493515Y-97201613D01*
X121613828Y-97367213D01*
X121758586Y-97511971D01*
X121913549Y-97624556D01*
X121924190Y-97632287D01*
X122040407Y-97691503D01*
X122106576Y-97725218D01*
X122106578Y-97725218D01*
X122106581Y-97725220D01*
X122210937Y-97759127D01*
X122301265Y-97788477D01*
X122402357Y-97804488D01*
X122503448Y-97820500D01*
X122503449Y-97820500D01*
X122708151Y-97820500D01*
X122708152Y-97820500D01*
X122910334Y-97788477D01*
X123105019Y-97725220D01*
X123287410Y-97632287D01*
X123380390Y-97564732D01*
X123453013Y-97511971D01*
X123453015Y-97511968D01*
X123453019Y-97511966D01*
X123597766Y-97367219D01*
X123597768Y-97367215D01*
X123597771Y-97367213D01*
X123650532Y-97294590D01*
X123718087Y-97201610D01*
X123811020Y-97019219D01*
X123874277Y-96824534D01*
X123906300Y-96622352D01*
X123906300Y-96417648D01*
X123874277Y-96215466D01*
X123811020Y-96020781D01*
X123811018Y-96020778D01*
X123811018Y-96020776D01*
X123764663Y-95929800D01*
X123718087Y-95838390D01*
X123710356Y-95827749D01*
X123597771Y-95672786D01*
X123453013Y-95528028D01*
X123287413Y-95407715D01*
X123287412Y-95407714D01*
X123287410Y-95407713D01*
X123230453Y-95378691D01*
X123105023Y-95314781D01*
X122910334Y-95251522D01*
X122735795Y-95223878D01*
X122708152Y-95219500D01*
X122503448Y-95219500D01*
X122479129Y-95223351D01*
X122301265Y-95251522D01*
X122106576Y-95314781D01*
X121924186Y-95407715D01*
X121758586Y-95528028D01*
X121613828Y-95672786D01*
X121493515Y-95838386D01*
X121400581Y-96020776D01*
X121337322Y-96215465D01*
X121305300Y-96417648D01*
X113632100Y-96417648D01*
X113632100Y-61570735D01*
X117718900Y-61570735D01*
X117718900Y-63366470D01*
X117718901Y-63366476D01*
X117725308Y-63426083D01*
X117775602Y-63560928D01*
X117775606Y-63560935D01*
X117861852Y-63676144D01*
X117861855Y-63676147D01*
X117977064Y-63762393D01*
X117977071Y-63762397D01*
X118108482Y-63811410D01*
X118164416Y-63853281D01*
X118188833Y-63918745D01*
X118173982Y-63987018D01*
X118152831Y-64015273D01*
X118039289Y-64128815D01*
X117914351Y-64300779D01*
X117817844Y-64490185D01*
X117752153Y-64692360D01*
X117718900Y-64902313D01*
X117718900Y-65114886D01*
X117752153Y-65324839D01*
X117817844Y-65527014D01*
X117914351Y-65716420D01*
X118039290Y-65888386D01*
X118189613Y-66038709D01*
X118361582Y-66163650D01*
X118370346Y-66168116D01*
X118421142Y-66216091D01*
X118437936Y-66283912D01*
X118415398Y-66350047D01*
X118370346Y-66389084D01*
X118361582Y-66393549D01*
X118189613Y-66518490D01*
X118039290Y-66668813D01*
X117914351Y-66840779D01*
X117817844Y-67030185D01*
X117752153Y-67232360D01*
X117718900Y-67442313D01*
X117718900Y-67654886D01*
X117752153Y-67864839D01*
X117817844Y-68067014D01*
X117914351Y-68256420D01*
X118039290Y-68428386D01*
X118189613Y-68578709D01*
X118361579Y-68703648D01*
X118361581Y-68703649D01*
X118361584Y-68703651D01*
X118370893Y-68708394D01*
X118421690Y-68756366D01*
X118438487Y-68824187D01*
X118415952Y-68890322D01*
X118370905Y-68929360D01*
X118361846Y-68933976D01*
X118361840Y-68933980D01*
X118307682Y-68973327D01*
X118307682Y-68973328D01*
X118939991Y-69605637D01*
X118876407Y-69622675D01*
X118762393Y-69688501D01*
X118669301Y-69781593D01*
X118603475Y-69895607D01*
X118586437Y-69959191D01*
X117954128Y-69326882D01*
X117954127Y-69326882D01*
X117914780Y-69381039D01*
X117818304Y-69570382D01*
X117752642Y-69772469D01*
X117752642Y-69772472D01*
X117719400Y-69982353D01*
X117719400Y-70194846D01*
X117752642Y-70404727D01*
X117752642Y-70404730D01*
X117818304Y-70606817D01*
X117914775Y-70796150D01*
X117954128Y-70850316D01*
X118586437Y-70218008D01*
X118603475Y-70281593D01*
X118669301Y-70395607D01*
X118762393Y-70488699D01*
X118876407Y-70554525D01*
X118939990Y-70571562D01*
X118307682Y-71203869D01*
X118307682Y-71203870D01*
X118361849Y-71243224D01*
X118551182Y-71339695D01*
X118753270Y-71405357D01*
X118963154Y-71438600D01*
X119175646Y-71438600D01*
X119385527Y-71405357D01*
X119385530Y-71405357D01*
X119587617Y-71339695D01*
X119776954Y-71243222D01*
X119831116Y-71203870D01*
X119831117Y-71203870D01*
X119198808Y-70571562D01*
X119262393Y-70554525D01*
X119376407Y-70488699D01*
X119469499Y-70395607D01*
X119535325Y-70281593D01*
X119552362Y-70218009D01*
X120184670Y-70850317D01*
X120184670Y-70850316D01*
X120224022Y-70796154D01*
X120320495Y-70606817D01*
X120386157Y-70404730D01*
X120386157Y-70404727D01*
X120419400Y-70194846D01*
X120419400Y-69982353D01*
X120386157Y-69772472D01*
X120386157Y-69772469D01*
X120320495Y-69570382D01*
X120224024Y-69381049D01*
X120184670Y-69326882D01*
X120184669Y-69326882D01*
X119552362Y-69959190D01*
X119535325Y-69895607D01*
X119469499Y-69781593D01*
X119376407Y-69688501D01*
X119262393Y-69622675D01*
X119198809Y-69605637D01*
X119831116Y-68973328D01*
X119776947Y-68933973D01*
X119776947Y-68933972D01*
X119767900Y-68929363D01*
X119717106Y-68881388D01*
X119700312Y-68813566D01*
X119722851Y-68747432D01*
X119767908Y-68708393D01*
X119777216Y-68703651D01*
X119856407Y-68646115D01*
X119949186Y-68578709D01*
X119949188Y-68578706D01*
X119949192Y-68578704D01*
X120099504Y-68428392D01*
X120099506Y-68428388D01*
X120099509Y-68428386D01*
X120224448Y-68256420D01*
X120224447Y-68256420D01*
X120224451Y-68256416D01*
X120320957Y-68067012D01*
X120386646Y-67864843D01*
X120419900Y-67654887D01*
X120419900Y-67442313D01*
X120386646Y-67232357D01*
X120320957Y-67030188D01*
X120224451Y-66840784D01*
X120224449Y-66840781D01*
X120224448Y-66840779D01*
X120099509Y-66668813D01*
X119949186Y-66518490D01*
X119777220Y-66393551D01*
X119776515Y-66393191D01*
X119768454Y-66389085D01*
X119717659Y-66341112D01*
X119700863Y-66273292D01*
X119723399Y-66207156D01*
X119768454Y-66168115D01*
X119777216Y-66163651D01*
X119799189Y-66147686D01*
X119949186Y-66038709D01*
X119949188Y-66038706D01*
X119949192Y-66038704D01*
X120099504Y-65888392D01*
X120099506Y-65888388D01*
X120099509Y-65888386D01*
X120224448Y-65716420D01*
X120224447Y-65716420D01*
X120224451Y-65716416D01*
X120320957Y-65527012D01*
X120386646Y-65324843D01*
X120419900Y-65114887D01*
X120419900Y-64902313D01*
X120386646Y-64692357D01*
X120320957Y-64490188D01*
X120224451Y-64300784D01*
X120224449Y-64300781D01*
X120224448Y-64300779D01*
X120099509Y-64128813D01*
X119985969Y-64015273D01*
X119952484Y-63953950D01*
X119957468Y-63884258D01*
X119999340Y-63828325D01*
X120030315Y-63811410D01*
X120161731Y-63762396D01*
X120276946Y-63676146D01*
X120363196Y-63560931D01*
X120413491Y-63426083D01*
X120419900Y-63366473D01*
X120419899Y-61570728D01*
X120413491Y-61511117D01*
X120363196Y-61376269D01*
X120363195Y-61376268D01*
X120363193Y-61376264D01*
X120276947Y-61261055D01*
X120276944Y-61261052D01*
X120161735Y-61174806D01*
X120161728Y-61174802D01*
X120026882Y-61124508D01*
X120026883Y-61124508D01*
X119967283Y-61118101D01*
X119967281Y-61118100D01*
X119967273Y-61118100D01*
X119967264Y-61118100D01*
X118171529Y-61118100D01*
X118171523Y-61118101D01*
X118111916Y-61124508D01*
X117977071Y-61174802D01*
X117977064Y-61174806D01*
X117861855Y-61261052D01*
X117861852Y-61261055D01*
X117775606Y-61376264D01*
X117775602Y-61376271D01*
X117725308Y-61511117D01*
X117718901Y-61570716D01*
X117718901Y-61570723D01*
X117718900Y-61570735D01*
X113632100Y-61570735D01*
X113632100Y-58542313D01*
X114067100Y-58542313D01*
X114067100Y-58754887D01*
X114100354Y-58964843D01*
X114152327Y-59124800D01*
X114166044Y-59167014D01*
X114262551Y-59356420D01*
X114387490Y-59528386D01*
X114537813Y-59678709D01*
X114709779Y-59803648D01*
X114709781Y-59803649D01*
X114709784Y-59803651D01*
X114899188Y-59900157D01*
X115101357Y-59965846D01*
X115311313Y-59999100D01*
X115311314Y-59999100D01*
X115523886Y-59999100D01*
X115523887Y-59999100D01*
X115733843Y-59965846D01*
X115936012Y-59900157D01*
X116125416Y-59803651D01*
X116245004Y-59716766D01*
X116297386Y-59678709D01*
X116297388Y-59678706D01*
X116297392Y-59678704D01*
X116447704Y-59528392D01*
X116447706Y-59528388D01*
X116447709Y-59528386D01*
X116572648Y-59356420D01*
X116572647Y-59356420D01*
X116572651Y-59356416D01*
X116669157Y-59167012D01*
X116734846Y-58964843D01*
X116768100Y-58754887D01*
X116768100Y-58542313D01*
X116734846Y-58332357D01*
X116669157Y-58130188D01*
X116572651Y-57940784D01*
X116572649Y-57940781D01*
X116572648Y-57940779D01*
X116447709Y-57768813D01*
X116297386Y-57618490D01*
X116125420Y-57493551D01*
X115936014Y-57397044D01*
X115936013Y-57397043D01*
X115936012Y-57397043D01*
X115733843Y-57331354D01*
X115733841Y-57331353D01*
X115733840Y-57331353D01*
X115572557Y-57305808D01*
X115523887Y-57298100D01*
X115311313Y-57298100D01*
X115262642Y-57305808D01*
X115101360Y-57331353D01*
X114899185Y-57397044D01*
X114709779Y-57493551D01*
X114537813Y-57618490D01*
X114387490Y-57768813D01*
X114262551Y-57940779D01*
X114166044Y-58130185D01*
X114166043Y-58130187D01*
X114166043Y-58130188D01*
X114147689Y-58186676D01*
X114100353Y-58332360D01*
X114077097Y-58479194D01*
X114067100Y-58542313D01*
X113632100Y-58542313D01*
X113632100Y-56987100D01*
X113651785Y-56920061D01*
X113704589Y-56874306D01*
X113756100Y-56863100D01*
X137796903Y-56863100D01*
X137863942Y-56882785D01*
G37*
%TD.AperFunction*%
%TA.AperFunction,Conductor*%
G36*
X142226680Y-57754047D02*
G01*
X142239225Y-57752970D01*
X142259570Y-57763704D01*
X142281639Y-57770185D01*
X142289882Y-57779698D01*
X142301020Y-57785575D01*
X142312332Y-57805607D01*
X142327394Y-57822989D01*
X142329185Y-57835450D01*
X142335377Y-57846414D01*
X142334064Y-57869378D01*
X142337338Y-57892147D01*
X142332012Y-57905268D01*
X142331389Y-57916170D01*
X142314918Y-57947385D01*
X142245315Y-58043186D01*
X142152381Y-58225576D01*
X142089122Y-58420265D01*
X142057100Y-58622448D01*
X142057100Y-58827151D01*
X142089122Y-59029334D01*
X142152381Y-59224023D01*
X142245315Y-59406413D01*
X142365628Y-59572013D01*
X142510386Y-59716771D01*
X142653608Y-59820826D01*
X142675990Y-59837087D01*
X142757099Y-59878414D01*
X142858376Y-59930018D01*
X142858378Y-59930018D01*
X142858381Y-59930020D01*
X142918821Y-59949658D01*
X143053065Y-59993277D01*
X143154157Y-60009288D01*
X143255248Y-60025300D01*
X143255249Y-60025300D01*
X143459951Y-60025300D01*
X143459952Y-60025300D01*
X143662134Y-59993277D01*
X143856819Y-59930020D01*
X143858790Y-59929016D01*
X143908076Y-59903903D01*
X144039210Y-59837087D01*
X144132190Y-59769532D01*
X144204813Y-59716771D01*
X144204815Y-59716768D01*
X144204819Y-59716766D01*
X144349566Y-59572019D01*
X144349568Y-59572015D01*
X144349571Y-59572013D01*
X144469884Y-59406414D01*
X144469886Y-59406411D01*
X144469887Y-59406410D01*
X144517116Y-59313717D01*
X144565089Y-59262923D01*
X144632910Y-59246128D01*
X144699045Y-59268665D01*
X144738085Y-59313719D01*
X144785315Y-59406414D01*
X144905628Y-59572013D01*
X144905634Y-59572019D01*
X145050381Y-59716766D01*
X145215990Y-59837087D01*
X145229393Y-59843916D01*
X145280189Y-59891888D01*
X145297100Y-59954401D01*
X145297100Y-64622302D01*
X145277415Y-64689341D01*
X145260781Y-64709983D01*
X137900281Y-72070482D01*
X137900279Y-72070484D01*
X137878677Y-72107900D01*
X137869547Y-72123716D01*
X137821223Y-72207415D01*
X137780299Y-72360143D01*
X137780299Y-72360145D01*
X137780299Y-72528246D01*
X137780300Y-72528259D01*
X137780300Y-83647300D01*
X137760615Y-83714339D01*
X137707811Y-83760094D01*
X137656300Y-83771300D01*
X137057929Y-83771300D01*
X137057923Y-83771301D01*
X136998316Y-83777708D01*
X136863471Y-83828002D01*
X136863464Y-83828006D01*
X136748255Y-83914252D01*
X136748252Y-83914255D01*
X136662006Y-84029464D01*
X136662002Y-84029471D01*
X136611708Y-84164317D01*
X136605626Y-84220897D01*
X136605301Y-84223923D01*
X136605300Y-84223935D01*
X136605300Y-86819670D01*
X136605301Y-86819676D01*
X136611708Y-86879283D01*
X136662002Y-87014128D01*
X136662006Y-87014135D01*
X136748252Y-87129344D01*
X136748255Y-87129347D01*
X136863464Y-87215593D01*
X136863471Y-87215597D01*
X136908418Y-87232361D01*
X136998317Y-87265891D01*
X137057927Y-87272300D01*
X137656300Y-87272299D01*
X137723339Y-87291983D01*
X137769094Y-87344787D01*
X137780300Y-87396299D01*
X137780300Y-87703956D01*
X137780299Y-87703974D01*
X137780299Y-87869680D01*
X137780298Y-87869680D01*
X137780299Y-87869683D01*
X137821223Y-88022411D01*
X137841670Y-88057826D01*
X137850158Y-88072526D01*
X137850159Y-88072530D01*
X137850160Y-88072530D01*
X137887230Y-88136739D01*
X137900279Y-88159340D01*
X137900281Y-88159343D01*
X138019149Y-88278211D01*
X138019155Y-88278216D01*
X146549758Y-96808819D01*
X146583243Y-96870142D01*
X146578259Y-96939834D01*
X146536387Y-96995767D01*
X146470923Y-97020184D01*
X146462077Y-97020500D01*
X143056676Y-97020500D01*
X142989637Y-97000815D01*
X142943882Y-96948011D01*
X142933938Y-96878853D01*
X142938745Y-96858183D01*
X142949675Y-96824542D01*
X142949675Y-96824538D01*
X142949677Y-96824534D01*
X142981700Y-96622352D01*
X142981700Y-96417648D01*
X142949677Y-96215466D01*
X142886420Y-96020781D01*
X142886418Y-96020778D01*
X142886418Y-96020776D01*
X142840063Y-95929800D01*
X142793487Y-95838390D01*
X142785756Y-95827749D01*
X142673171Y-95672786D01*
X142528413Y-95528028D01*
X142362813Y-95407715D01*
X142362812Y-95407714D01*
X142362810Y-95407713D01*
X142305853Y-95378691D01*
X142180423Y-95314781D01*
X141985734Y-95251522D01*
X141811195Y-95223878D01*
X141783552Y-95219500D01*
X141578848Y-95219500D01*
X141554529Y-95223351D01*
X141376665Y-95251522D01*
X141181976Y-95314781D01*
X140999586Y-95407715D01*
X140833986Y-95528028D01*
X140689228Y-95672786D01*
X140568915Y-95838386D01*
X140475981Y-96020776D01*
X140412722Y-96215465D01*
X140380700Y-96417648D01*
X140380700Y-96622351D01*
X140412723Y-96824535D01*
X140412724Y-96824542D01*
X140423655Y-96858183D01*
X140425650Y-96928024D01*
X140389569Y-96987856D01*
X140326868Y-97018684D01*
X140305724Y-97020500D01*
X131601276Y-97020500D01*
X131534237Y-97000815D01*
X131488482Y-96948011D01*
X131478538Y-96878853D01*
X131483345Y-96858183D01*
X131494275Y-96824542D01*
X131494275Y-96824538D01*
X131494277Y-96824534D01*
X131526300Y-96622352D01*
X131526300Y-96417648D01*
X131494277Y-96215466D01*
X131431020Y-96020781D01*
X131431018Y-96020778D01*
X131431018Y-96020776D01*
X131384663Y-95929800D01*
X131338087Y-95838390D01*
X131330356Y-95827749D01*
X131217771Y-95672786D01*
X131073013Y-95528028D01*
X130907413Y-95407715D01*
X130907412Y-95407714D01*
X130907410Y-95407713D01*
X130850453Y-95378691D01*
X130725023Y-95314781D01*
X130530334Y-95251522D01*
X130355795Y-95223878D01*
X130328152Y-95219500D01*
X130123448Y-95219500D01*
X130099129Y-95223351D01*
X129921265Y-95251522D01*
X129726576Y-95314781D01*
X129544186Y-95407715D01*
X129378586Y-95528028D01*
X129233828Y-95672786D01*
X129113515Y-95838385D01*
X129106683Y-95851795D01*
X129058709Y-95902591D01*
X128996198Y-95919500D01*
X127935097Y-95919500D01*
X127868058Y-95899815D01*
X127847416Y-95883181D01*
X121360924Y-89396689D01*
X121327439Y-89335366D01*
X121332423Y-89265674D01*
X121374295Y-89209741D01*
X121429205Y-89186535D01*
X121599355Y-89159586D01*
X121767842Y-89104842D01*
X121925690Y-89024414D01*
X122069014Y-88920283D01*
X122194283Y-88795014D01*
X122298414Y-88651690D01*
X122378842Y-88493842D01*
X122433586Y-88325355D01*
X122461300Y-88150379D01*
X122461300Y-87973221D01*
X122452031Y-87914700D01*
X124171400Y-87914700D01*
X124171400Y-88208899D01*
X124171401Y-88208916D01*
X124209801Y-88500596D01*
X124285952Y-88784794D01*
X124398534Y-89056594D01*
X124398542Y-89056610D01*
X124545640Y-89311389D01*
X124545651Y-89311405D01*
X124724748Y-89544809D01*
X124724754Y-89544816D01*
X124932783Y-89752845D01*
X124932789Y-89752850D01*
X125166203Y-89931955D01*
X125166210Y-89931959D01*
X125420989Y-90079057D01*
X125421005Y-90079065D01*
X125692805Y-90191647D01*
X125692807Y-90191647D01*
X125692813Y-90191650D01*
X125977000Y-90267798D01*
X126268694Y-90306200D01*
X126268701Y-90306200D01*
X126562899Y-90306200D01*
X126562906Y-90306200D01*
X126854600Y-90267798D01*
X127138787Y-90191650D01*
X127212118Y-90161275D01*
X127410594Y-90079065D01*
X127410597Y-90079063D01*
X127410603Y-90079061D01*
X127665397Y-89931955D01*
X127898811Y-89752850D01*
X128106850Y-89544811D01*
X128285955Y-89311397D01*
X128433061Y-89056603D01*
X128446395Y-89024413D01*
X128545647Y-88784794D01*
X128545646Y-88784794D01*
X128545650Y-88784787D01*
X128621798Y-88500600D01*
X128660200Y-88208906D01*
X128660200Y-87973221D01*
X130370300Y-87973221D01*
X130370300Y-88150378D01*
X130398014Y-88325356D01*
X130452756Y-88493839D01*
X130452757Y-88493842D01*
X130498958Y-88584514D01*
X130533186Y-88651690D01*
X130637317Y-88795014D01*
X130762586Y-88920283D01*
X130905910Y-89024414D01*
X130969084Y-89056603D01*
X131063757Y-89104842D01*
X131063760Y-89104843D01*
X131135250Y-89128071D01*
X131232245Y-89159586D01*
X131407221Y-89187300D01*
X131407222Y-89187300D01*
X131584378Y-89187300D01*
X131584379Y-89187300D01*
X131759355Y-89159586D01*
X131927842Y-89104842D01*
X132085690Y-89024414D01*
X132229014Y-88920283D01*
X132354283Y-88795014D01*
X132458414Y-88651690D01*
X132538842Y-88493842D01*
X132593586Y-88325355D01*
X132621300Y-88150379D01*
X132621300Y-87973221D01*
X132593586Y-87798245D01*
X132538842Y-87629758D01*
X132538842Y-87629757D01*
X132458413Y-87471909D01*
X132354283Y-87328586D01*
X132229014Y-87203317D01*
X132085690Y-87099186D01*
X132022532Y-87067005D01*
X131927842Y-87018757D01*
X131927839Y-87018756D01*
X131759356Y-86964014D01*
X131671867Y-86950157D01*
X131584379Y-86936300D01*
X131407221Y-86936300D01*
X131348895Y-86945538D01*
X131232243Y-86964014D01*
X131063760Y-87018756D01*
X131063757Y-87018757D01*
X130905909Y-87099186D01*
X130824138Y-87158596D01*
X130762586Y-87203317D01*
X130762584Y-87203319D01*
X130762583Y-87203319D01*
X130637319Y-87328583D01*
X130637319Y-87328584D01*
X130637317Y-87328586D01*
X130625546Y-87344788D01*
X130533186Y-87471909D01*
X130452757Y-87629757D01*
X130452756Y-87629760D01*
X130398014Y-87798243D01*
X130370300Y-87973221D01*
X128660200Y-87973221D01*
X128660200Y-87914694D01*
X128621798Y-87623000D01*
X128545650Y-87338813D01*
X128522741Y-87283505D01*
X128433065Y-87067005D01*
X128433057Y-87066989D01*
X128285959Y-86812210D01*
X128285955Y-86812203D01*
X128106850Y-86578789D01*
X128106845Y-86578783D01*
X127898816Y-86370754D01*
X127898809Y-86370748D01*
X127665405Y-86191651D01*
X127665403Y-86191649D01*
X127665397Y-86191645D01*
X127665392Y-86191642D01*
X127665389Y-86191640D01*
X127410610Y-86044542D01*
X127410594Y-86044534D01*
X127138794Y-85931952D01*
X126885344Y-85864040D01*
X126854600Y-85855802D01*
X126854599Y-85855801D01*
X126854596Y-85855801D01*
X126562916Y-85817401D01*
X126562911Y-85817400D01*
X126562906Y-85817400D01*
X126268694Y-85817400D01*
X126268688Y-85817400D01*
X126268683Y-85817401D01*
X125977003Y-85855801D01*
X125692805Y-85931952D01*
X125421005Y-86044534D01*
X125420989Y-86044542D01*
X125166210Y-86191640D01*
X125166194Y-86191651D01*
X124932790Y-86370748D01*
X124932783Y-86370754D01*
X124724754Y-86578783D01*
X124724748Y-86578790D01*
X124545651Y-86812194D01*
X124545640Y-86812210D01*
X124398542Y-87066989D01*
X124398534Y-87067005D01*
X124285952Y-87338805D01*
X124209801Y-87623003D01*
X124171401Y-87914683D01*
X124171400Y-87914700D01*
X122452031Y-87914700D01*
X122433586Y-87798245D01*
X122378842Y-87629758D01*
X122378842Y-87629757D01*
X122298413Y-87471909D01*
X122298412Y-87471908D01*
X122287317Y-87456637D01*
X122263838Y-87390832D01*
X122279663Y-87322778D01*
X122329768Y-87274083D01*
X122398246Y-87260207D01*
X122403777Y-87260808D01*
X122491066Y-87272300D01*
X122491073Y-87272300D01*
X122720527Y-87272300D01*
X122720534Y-87272300D01*
X122948038Y-87242348D01*
X123169687Y-87182958D01*
X123381688Y-87095144D01*
X123580412Y-86980411D01*
X123762461Y-86840719D01*
X123762465Y-86840714D01*
X123762470Y-86840711D01*
X123924711Y-86678470D01*
X123924714Y-86678465D01*
X123924719Y-86678461D01*
X124064411Y-86496412D01*
X124179144Y-86297688D01*
X124266958Y-86085687D01*
X124326348Y-85864038D01*
X124356300Y-85636534D01*
X124356300Y-85407066D01*
X124326348Y-85179562D01*
X124266958Y-84957913D01*
X124203325Y-84804289D01*
X124179149Y-84745923D01*
X124179146Y-84745917D01*
X124179144Y-84745912D01*
X124064411Y-84547188D01*
X124064408Y-84547185D01*
X124064407Y-84547182D01*
X123924718Y-84365138D01*
X123924711Y-84365130D01*
X123762470Y-84202889D01*
X123762461Y-84202881D01*
X123580417Y-84063192D01*
X123522010Y-84029471D01*
X123381688Y-83948456D01*
X123381676Y-83948450D01*
X123169687Y-83860642D01*
X122948038Y-83801252D01*
X122910015Y-83796246D01*
X122720541Y-83771300D01*
X122720534Y-83771300D01*
X122491066Y-83771300D01*
X122491058Y-83771300D01*
X122274515Y-83799809D01*
X122263562Y-83801252D01*
X122169876Y-83826354D01*
X122041912Y-83860642D01*
X121829923Y-83948450D01*
X121829909Y-83948457D01*
X121631182Y-84063192D01*
X121449138Y-84202881D01*
X121317980Y-84334039D01*
X121256657Y-84367524D01*
X121186965Y-84362540D01*
X121131032Y-84320668D01*
X121106615Y-84255204D01*
X121106299Y-84246358D01*
X121106299Y-84223929D01*
X121106298Y-84223923D01*
X121106297Y-84223916D01*
X121099891Y-84164317D01*
X121096577Y-84155433D01*
X121049597Y-84029471D01*
X121049593Y-84029464D01*
X120963347Y-83914255D01*
X120963344Y-83914252D01*
X120848135Y-83828006D01*
X120848128Y-83828002D01*
X120713282Y-83777708D01*
X120713283Y-83777708D01*
X120653683Y-83771301D01*
X120653681Y-83771300D01*
X120653673Y-83771300D01*
X120653665Y-83771300D01*
X120055300Y-83771300D01*
X119988261Y-83751615D01*
X119942506Y-83698811D01*
X119931300Y-83647300D01*
X119931300Y-82867058D01*
X127205300Y-82867058D01*
X127205300Y-83096541D01*
X127223108Y-83231800D01*
X127235252Y-83324038D01*
X127235253Y-83324040D01*
X127294642Y-83545687D01*
X127382450Y-83757676D01*
X127382457Y-83757690D01*
X127497192Y-83956417D01*
X127636881Y-84138461D01*
X127636889Y-84138470D01*
X127799130Y-84300711D01*
X127799138Y-84300718D01*
X127981182Y-84440407D01*
X127981185Y-84440408D01*
X127981188Y-84440411D01*
X128179912Y-84555144D01*
X128179917Y-84555146D01*
X128179923Y-84555149D01*
X128261616Y-84588987D01*
X128391913Y-84642958D01*
X128613562Y-84702348D01*
X128830112Y-84730857D01*
X128837260Y-84731799D01*
X128841066Y-84732300D01*
X128841073Y-84732300D01*
X129070527Y-84732300D01*
X129070534Y-84732300D01*
X129298038Y-84702348D01*
X129519687Y-84642958D01*
X129731688Y-84555144D01*
X129930412Y-84440411D01*
X130112461Y-84300719D01*
X130112465Y-84300714D01*
X130112470Y-84300711D01*
X130271119Y-84142062D01*
X130332442Y-84108577D01*
X130402134Y-84113561D01*
X130458067Y-84155433D01*
X130482484Y-84220897D01*
X130482800Y-84229743D01*
X130482800Y-84279644D01*
X130489201Y-84339172D01*
X130489203Y-84339179D01*
X130539445Y-84473886D01*
X130539449Y-84473893D01*
X130625609Y-84588987D01*
X130625612Y-84588990D01*
X130740706Y-84675150D01*
X130740713Y-84675154D01*
X130875420Y-84725396D01*
X130875427Y-84725398D01*
X130934955Y-84731799D01*
X130934972Y-84731800D01*
X132007800Y-84731800D01*
X132507800Y-84731800D01*
X133580628Y-84731800D01*
X133580644Y-84731799D01*
X133640172Y-84725398D01*
X133640179Y-84725396D01*
X133774886Y-84675154D01*
X133774893Y-84675150D01*
X133889987Y-84588990D01*
X133889990Y-84588987D01*
X133976150Y-84473893D01*
X133976154Y-84473886D01*
X134026396Y-84339179D01*
X134026398Y-84339172D01*
X134032799Y-84279644D01*
X134032800Y-84279627D01*
X134032800Y-83231800D01*
X132507800Y-83231800D01*
X132507800Y-84731800D01*
X132007800Y-84731800D01*
X132007800Y-82731800D01*
X132507800Y-82731800D01*
X134032800Y-82731800D01*
X134032800Y-81683972D01*
X134032799Y-81683955D01*
X134026398Y-81624427D01*
X134026396Y-81624420D01*
X133976154Y-81489713D01*
X133976150Y-81489706D01*
X133889990Y-81374612D01*
X133889987Y-81374609D01*
X133774893Y-81288449D01*
X133774886Y-81288445D01*
X133640179Y-81238203D01*
X133640172Y-81238201D01*
X133580644Y-81231800D01*
X132507800Y-81231800D01*
X132507800Y-82731800D01*
X132007800Y-82731800D01*
X132007800Y-81231800D01*
X130934955Y-81231800D01*
X130875427Y-81238201D01*
X130875420Y-81238203D01*
X130740713Y-81288445D01*
X130740706Y-81288449D01*
X130625612Y-81374609D01*
X130625609Y-81374612D01*
X130539449Y-81489706D01*
X130539445Y-81489713D01*
X130489203Y-81624420D01*
X130489201Y-81624427D01*
X130482800Y-81683955D01*
X130482800Y-81733857D01*
X130463115Y-81800896D01*
X130410311Y-81846651D01*
X130341153Y-81856595D01*
X130277597Y-81827570D01*
X130271119Y-81821538D01*
X130112470Y-81662889D01*
X130112461Y-81662881D01*
X129930417Y-81523192D01*
X129731690Y-81408457D01*
X129731676Y-81408450D01*
X129519687Y-81320642D01*
X129298038Y-81261252D01*
X129260015Y-81256246D01*
X129070541Y-81231300D01*
X129070534Y-81231300D01*
X128841066Y-81231300D01*
X128841058Y-81231300D01*
X128624515Y-81259809D01*
X128613562Y-81261252D01*
X128519876Y-81286354D01*
X128391912Y-81320642D01*
X128179923Y-81408450D01*
X128179909Y-81408457D01*
X127981182Y-81523192D01*
X127799138Y-81662881D01*
X127636881Y-81825138D01*
X127497192Y-82007182D01*
X127382457Y-82205909D01*
X127382450Y-82205923D01*
X127294642Y-82417912D01*
X127235253Y-82639559D01*
X127235251Y-82639570D01*
X127205300Y-82867058D01*
X119931300Y-82867058D01*
X119931300Y-76783448D01*
X126334500Y-76783448D01*
X126334500Y-76988151D01*
X126366522Y-77190334D01*
X126429781Y-77385023D01*
X126522715Y-77567413D01*
X126643028Y-77733013D01*
X126787786Y-77877771D01*
X126942749Y-77990356D01*
X126953390Y-77998087D01*
X127069607Y-78057303D01*
X127135776Y-78091018D01*
X127135778Y-78091018D01*
X127135781Y-78091020D01*
X127240137Y-78124927D01*
X127330465Y-78154277D01*
X127431557Y-78170288D01*
X127532648Y-78186300D01*
X127532649Y-78186300D01*
X127737351Y-78186300D01*
X127737352Y-78186300D01*
X127939534Y-78154277D01*
X128134219Y-78091020D01*
X128316610Y-77998087D01*
X128409590Y-77930532D01*
X128482213Y-77877771D01*
X128482215Y-77877768D01*
X128482219Y-77877766D01*
X128626966Y-77733019D01*
X128626968Y-77733015D01*
X128626971Y-77733013D01*
X128679732Y-77660390D01*
X128747287Y-77567410D01*
X128840220Y-77385019D01*
X128903477Y-77190334D01*
X128935500Y-76988152D01*
X128935500Y-76783448D01*
X133954500Y-76783448D01*
X133954500Y-76988151D01*
X133986522Y-77190334D01*
X134049781Y-77385023D01*
X134142715Y-77567413D01*
X134263028Y-77733013D01*
X134407786Y-77877771D01*
X134562749Y-77990356D01*
X134573390Y-77998087D01*
X134689607Y-78057303D01*
X134755776Y-78091018D01*
X134755778Y-78091018D01*
X134755781Y-78091020D01*
X134860137Y-78124927D01*
X134950465Y-78154277D01*
X135051557Y-78170288D01*
X135152648Y-78186300D01*
X135152649Y-78186300D01*
X135357351Y-78186300D01*
X135357352Y-78186300D01*
X135559534Y-78154277D01*
X135754219Y-78091020D01*
X135936610Y-77998087D01*
X136029590Y-77930532D01*
X136102213Y-77877771D01*
X136102215Y-77877768D01*
X136102219Y-77877766D01*
X136246966Y-77733019D01*
X136246968Y-77733015D01*
X136246971Y-77733013D01*
X136299732Y-77660390D01*
X136367287Y-77567410D01*
X136460220Y-77385019D01*
X136523477Y-77190334D01*
X136555500Y-76988152D01*
X136555500Y-76783448D01*
X136523477Y-76581266D01*
X136460220Y-76386581D01*
X136460218Y-76386578D01*
X136460218Y-76386576D01*
X136426503Y-76320407D01*
X136367287Y-76204190D01*
X136298190Y-76109085D01*
X136246971Y-76038586D01*
X136102213Y-75893828D01*
X135936613Y-75773515D01*
X135936612Y-75773514D01*
X135936610Y-75773513D01*
X135879653Y-75744491D01*
X135754223Y-75680581D01*
X135559534Y-75617322D01*
X135384995Y-75589678D01*
X135357352Y-75585300D01*
X135152648Y-75585300D01*
X135128329Y-75589151D01*
X134950465Y-75617322D01*
X134755776Y-75680581D01*
X134573386Y-75773515D01*
X134407786Y-75893828D01*
X134263028Y-76038586D01*
X134142715Y-76204186D01*
X134049781Y-76386576D01*
X133986522Y-76581265D01*
X133954500Y-76783448D01*
X128935500Y-76783448D01*
X128903477Y-76581266D01*
X128840220Y-76386581D01*
X128840218Y-76386578D01*
X128840218Y-76386576D01*
X128806503Y-76320407D01*
X128747287Y-76204190D01*
X128678190Y-76109085D01*
X128626971Y-76038586D01*
X128482213Y-75893828D01*
X128316613Y-75773515D01*
X128316612Y-75773514D01*
X128316610Y-75773513D01*
X128259653Y-75744491D01*
X128134223Y-75680581D01*
X127939534Y-75617322D01*
X127764995Y-75589678D01*
X127737352Y-75585300D01*
X127532648Y-75585300D01*
X127508329Y-75589151D01*
X127330465Y-75617322D01*
X127135776Y-75680581D01*
X126953386Y-75773515D01*
X126787786Y-75893828D01*
X126643028Y-76038586D01*
X126522715Y-76204186D01*
X126429781Y-76386576D01*
X126366522Y-76581265D01*
X126334500Y-76783448D01*
X119931300Y-76783448D01*
X119931300Y-76777897D01*
X119950985Y-76710858D01*
X119967619Y-76690216D01*
X122922387Y-73735448D01*
X126334500Y-73735448D01*
X126334500Y-73940151D01*
X126366522Y-74142334D01*
X126429781Y-74337023D01*
X126484169Y-74443763D01*
X126517238Y-74508665D01*
X126522715Y-74519413D01*
X126643028Y-74685013D01*
X126787786Y-74829771D01*
X126942749Y-74942356D01*
X126953390Y-74950087D01*
X127061371Y-75005106D01*
X127135776Y-75043018D01*
X127135778Y-75043018D01*
X127135781Y-75043020D01*
X127240137Y-75076927D01*
X127330465Y-75106277D01*
X127431557Y-75122288D01*
X127532648Y-75138300D01*
X127532649Y-75138300D01*
X127737351Y-75138300D01*
X127737352Y-75138300D01*
X127939534Y-75106277D01*
X128134219Y-75043020D01*
X128316610Y-74950087D01*
X128424453Y-74871735D01*
X128482213Y-74829771D01*
X128482215Y-74829768D01*
X128482219Y-74829766D01*
X128626966Y-74685019D01*
X128626968Y-74685015D01*
X128626971Y-74685013D01*
X128722360Y-74553719D01*
X128747287Y-74519410D01*
X128840220Y-74337019D01*
X128903477Y-74142334D01*
X128935500Y-73940152D01*
X128935500Y-73735448D01*
X133954500Y-73735448D01*
X133954500Y-73940151D01*
X133986522Y-74142334D01*
X134049781Y-74337023D01*
X134104169Y-74443763D01*
X134137238Y-74508665D01*
X134142715Y-74519413D01*
X134263028Y-74685013D01*
X134407786Y-74829771D01*
X134562749Y-74942356D01*
X134573390Y-74950087D01*
X134681371Y-75005106D01*
X134755776Y-75043018D01*
X134755778Y-75043018D01*
X134755781Y-75043020D01*
X134860137Y-75076927D01*
X134950465Y-75106277D01*
X135051557Y-75122288D01*
X135152648Y-75138300D01*
X135152649Y-75138300D01*
X135357351Y-75138300D01*
X135357352Y-75138300D01*
X135559534Y-75106277D01*
X135754219Y-75043020D01*
X135936610Y-74950087D01*
X136044453Y-74871735D01*
X136102213Y-74829771D01*
X136102215Y-74829768D01*
X136102219Y-74829766D01*
X136246966Y-74685019D01*
X136246968Y-74685015D01*
X136246971Y-74685013D01*
X136342360Y-74553719D01*
X136367287Y-74519410D01*
X136460220Y-74337019D01*
X136523477Y-74142334D01*
X136555500Y-73940152D01*
X136555500Y-73735448D01*
X136523477Y-73533266D01*
X136460220Y-73338581D01*
X136460218Y-73338578D01*
X136460218Y-73338576D01*
X136390186Y-73201132D01*
X136367287Y-73156190D01*
X136338761Y-73116927D01*
X136246971Y-72990586D01*
X136102213Y-72845828D01*
X135936613Y-72725515D01*
X135936612Y-72725514D01*
X135936610Y-72725513D01*
X135857142Y-72685022D01*
X135754223Y-72632581D01*
X135559534Y-72569322D01*
X135384995Y-72541678D01*
X135357352Y-72537300D01*
X135152648Y-72537300D01*
X135128329Y-72541151D01*
X134950465Y-72569322D01*
X134755776Y-72632581D01*
X134573386Y-72725515D01*
X134407786Y-72845828D01*
X134263028Y-72990586D01*
X134142715Y-73156186D01*
X134049781Y-73338576D01*
X133986522Y-73533265D01*
X133954500Y-73735448D01*
X128935500Y-73735448D01*
X128903477Y-73533266D01*
X128840220Y-73338581D01*
X128840218Y-73338578D01*
X128840218Y-73338576D01*
X128770186Y-73201132D01*
X128747287Y-73156190D01*
X128718761Y-73116927D01*
X128626971Y-72990586D01*
X128482213Y-72845828D01*
X128316613Y-72725515D01*
X128316612Y-72725514D01*
X128316610Y-72725513D01*
X128237142Y-72685022D01*
X128134223Y-72632581D01*
X127939534Y-72569322D01*
X127764995Y-72541678D01*
X127737352Y-72537300D01*
X127532648Y-72537300D01*
X127508329Y-72541151D01*
X127330465Y-72569322D01*
X127135776Y-72632581D01*
X126953386Y-72725515D01*
X126787786Y-72845828D01*
X126643028Y-72990586D01*
X126522715Y-73156186D01*
X126429781Y-73338576D01*
X126366522Y-73533265D01*
X126334500Y-73735448D01*
X122922387Y-73735448D01*
X138871016Y-57786819D01*
X138932339Y-57753334D01*
X138958697Y-57750500D01*
X142214600Y-57750500D01*
X142226680Y-57754047D01*
G37*
%TD.AperFunction*%
%TA.AperFunction,Conductor*%
G36*
X147239045Y-59268665D02*
G01*
X147278085Y-59313719D01*
X147325315Y-59406414D01*
X147445628Y-59572013D01*
X147445634Y-59572019D01*
X147590381Y-59716766D01*
X147755990Y-59837087D01*
X147769393Y-59843916D01*
X147820189Y-59891888D01*
X147837100Y-59954401D01*
X147837100Y-64530930D01*
X147837099Y-64530948D01*
X147837099Y-64696654D01*
X147837098Y-64696654D01*
X147878023Y-64849385D01*
X147906958Y-64899500D01*
X147906959Y-64899504D01*
X147906960Y-64899504D01*
X147957079Y-64986314D01*
X147957081Y-64986317D01*
X148075949Y-65105185D01*
X148075955Y-65105190D01*
X153935735Y-70964970D01*
X153969220Y-71026293D01*
X153964236Y-71095985D01*
X153922364Y-71151918D01*
X153856900Y-71176335D01*
X153815961Y-71172426D01*
X153790944Y-71165722D01*
X153749057Y-71154499D01*
X153590943Y-71154499D01*
X153583347Y-71154499D01*
X153583331Y-71154500D01*
X145646457Y-71154500D01*
X145488343Y-71154500D01*
X145335615Y-71195423D01*
X145335614Y-71195423D01*
X145335612Y-71195424D01*
X145335609Y-71195425D01*
X145285496Y-71224359D01*
X145285495Y-71224360D01*
X145242089Y-71249420D01*
X145198685Y-71274479D01*
X145198682Y-71274481D01*
X145086878Y-71386286D01*
X143802442Y-72670721D01*
X143741119Y-72704206D01*
X143676448Y-72700973D01*
X143662134Y-72696322D01*
X143487595Y-72668678D01*
X143459952Y-72664300D01*
X143255248Y-72664300D01*
X143230929Y-72668151D01*
X143053065Y-72696322D01*
X142858376Y-72759581D01*
X142675986Y-72852515D01*
X142510386Y-72972828D01*
X142365628Y-73117586D01*
X142245315Y-73283186D01*
X142152381Y-73465576D01*
X142089122Y-73660265D01*
X142057100Y-73862448D01*
X142057100Y-74067151D01*
X142089122Y-74269334D01*
X142152381Y-74464023D01*
X142245315Y-74646413D01*
X142365628Y-74812013D01*
X142510386Y-74956771D01*
X142629100Y-75043020D01*
X142675990Y-75077087D01*
X142791299Y-75135840D01*
X142858376Y-75170018D01*
X142858378Y-75170018D01*
X142858381Y-75170020D01*
X142953617Y-75200964D01*
X143053065Y-75233277D01*
X143154157Y-75249288D01*
X143255248Y-75265300D01*
X143255249Y-75265300D01*
X143459951Y-75265300D01*
X143459952Y-75265300D01*
X143662134Y-75233277D01*
X143856819Y-75170020D01*
X144039210Y-75077087D01*
X144138284Y-75005106D01*
X144204813Y-74956771D01*
X144204815Y-74956768D01*
X144204819Y-74956766D01*
X144349566Y-74812019D01*
X144349568Y-74812015D01*
X144349571Y-74812013D01*
X144469884Y-74646414D01*
X144469885Y-74646413D01*
X144469887Y-74646410D01*
X144517116Y-74553717D01*
X144565089Y-74502923D01*
X144632910Y-74486128D01*
X144699045Y-74508665D01*
X144738085Y-74553719D01*
X144785315Y-74646414D01*
X144905628Y-74812013D01*
X145050386Y-74956771D01*
X145169100Y-75043020D01*
X145215990Y-75077087D01*
X145331299Y-75135840D01*
X145398376Y-75170018D01*
X145398378Y-75170018D01*
X145398381Y-75170020D01*
X145493617Y-75200964D01*
X145593065Y-75233277D01*
X145694157Y-75249288D01*
X145795248Y-75265300D01*
X145795249Y-75265300D01*
X145999951Y-75265300D01*
X145999952Y-75265300D01*
X146202134Y-75233277D01*
X146216442Y-75228627D01*
X146286282Y-75226631D01*
X146342442Y-75258877D01*
X152103684Y-81020119D01*
X152137169Y-81081442D01*
X152132185Y-81151134D01*
X152090313Y-81207067D01*
X152024849Y-81231484D01*
X152016003Y-81231800D01*
X151557800Y-81231800D01*
X151557800Y-84731800D01*
X152159300Y-84731800D01*
X152226339Y-84751485D01*
X152272094Y-84804289D01*
X152283300Y-84855800D01*
X152283300Y-94194352D01*
X152263615Y-94261391D01*
X152246981Y-94282033D01*
X150627714Y-95901299D01*
X150566391Y-95934784D01*
X150496699Y-95929800D01*
X150440766Y-95887928D01*
X150429551Y-95869917D01*
X150413487Y-95838390D01*
X150413485Y-95838387D01*
X150413484Y-95838385D01*
X150293171Y-95672786D01*
X150148413Y-95528028D01*
X149982813Y-95407715D01*
X149982812Y-95407714D01*
X149982810Y-95407713D01*
X149925853Y-95378691D01*
X149800423Y-95314781D01*
X149605734Y-95251522D01*
X149431195Y-95223878D01*
X149403552Y-95219500D01*
X149198848Y-95219500D01*
X149174529Y-95223351D01*
X148996665Y-95251522D01*
X148801976Y-95314781D01*
X148619586Y-95407715D01*
X148453986Y-95528028D01*
X148309228Y-95672786D01*
X148188915Y-95838385D01*
X148182083Y-95851795D01*
X148134109Y-95902591D01*
X148071598Y-95919500D01*
X147410271Y-95919500D01*
X147343232Y-95899815D01*
X147322590Y-95883181D01*
X140754428Y-89315019D01*
X140720943Y-89253696D01*
X140725927Y-89184004D01*
X140767799Y-89128071D01*
X140803795Y-89109406D01*
X140817842Y-89104842D01*
X140975690Y-89024414D01*
X141119014Y-88920283D01*
X141244283Y-88795014D01*
X141348414Y-88651690D01*
X141428842Y-88493842D01*
X141483586Y-88325355D01*
X141511300Y-88150379D01*
X141511300Y-87973221D01*
X141502031Y-87914700D01*
X143221400Y-87914700D01*
X143221400Y-88208899D01*
X143221401Y-88208916D01*
X143259801Y-88500596D01*
X143335952Y-88784794D01*
X143448534Y-89056594D01*
X143448542Y-89056610D01*
X143595640Y-89311389D01*
X143595651Y-89311405D01*
X143774748Y-89544809D01*
X143774754Y-89544816D01*
X143982783Y-89752845D01*
X143982789Y-89752850D01*
X144216203Y-89931955D01*
X144216210Y-89931959D01*
X144470989Y-90079057D01*
X144471005Y-90079065D01*
X144742805Y-90191647D01*
X144742807Y-90191647D01*
X144742813Y-90191650D01*
X145027000Y-90267798D01*
X145318694Y-90306200D01*
X145318701Y-90306200D01*
X145612899Y-90306200D01*
X145612906Y-90306200D01*
X145904600Y-90267798D01*
X146188787Y-90191650D01*
X146262118Y-90161275D01*
X146460594Y-90079065D01*
X146460597Y-90079063D01*
X146460603Y-90079061D01*
X146715397Y-89931955D01*
X146948811Y-89752850D01*
X147156850Y-89544811D01*
X147335955Y-89311397D01*
X147483061Y-89056603D01*
X147496395Y-89024413D01*
X147595647Y-88784794D01*
X147595646Y-88784794D01*
X147595650Y-88784787D01*
X147671798Y-88500600D01*
X147710200Y-88208906D01*
X147710200Y-87973221D01*
X149420300Y-87973221D01*
X149420300Y-88150378D01*
X149448014Y-88325356D01*
X149502756Y-88493839D01*
X149502757Y-88493842D01*
X149548958Y-88584514D01*
X149583186Y-88651690D01*
X149687317Y-88795014D01*
X149812586Y-88920283D01*
X149955910Y-89024414D01*
X150019084Y-89056603D01*
X150113757Y-89104842D01*
X150113760Y-89104843D01*
X150185250Y-89128071D01*
X150282245Y-89159586D01*
X150457221Y-89187300D01*
X150457222Y-89187300D01*
X150634378Y-89187300D01*
X150634379Y-89187300D01*
X150809355Y-89159586D01*
X150977842Y-89104842D01*
X151135690Y-89024414D01*
X151279014Y-88920283D01*
X151404283Y-88795014D01*
X151508414Y-88651690D01*
X151588842Y-88493842D01*
X151643586Y-88325355D01*
X151671300Y-88150379D01*
X151671300Y-87973221D01*
X151643586Y-87798245D01*
X151588842Y-87629758D01*
X151588842Y-87629757D01*
X151508413Y-87471909D01*
X151404283Y-87328586D01*
X151279014Y-87203317D01*
X151135690Y-87099186D01*
X151072532Y-87067005D01*
X150977842Y-87018757D01*
X150977839Y-87018756D01*
X150809356Y-86964014D01*
X150721867Y-86950157D01*
X150634379Y-86936300D01*
X150457221Y-86936300D01*
X150398895Y-86945538D01*
X150282243Y-86964014D01*
X150113760Y-87018756D01*
X150113757Y-87018757D01*
X149955909Y-87099186D01*
X149874138Y-87158596D01*
X149812586Y-87203317D01*
X149812584Y-87203319D01*
X149812583Y-87203319D01*
X149687319Y-87328583D01*
X149687319Y-87328584D01*
X149687317Y-87328586D01*
X149675546Y-87344788D01*
X149583186Y-87471909D01*
X149502757Y-87629757D01*
X149502756Y-87629760D01*
X149448014Y-87798243D01*
X149420300Y-87973221D01*
X147710200Y-87973221D01*
X147710200Y-87914694D01*
X147671798Y-87623000D01*
X147595650Y-87338813D01*
X147572741Y-87283505D01*
X147483065Y-87067005D01*
X147483057Y-87066989D01*
X147335959Y-86812210D01*
X147335955Y-86812203D01*
X147156850Y-86578789D01*
X147156845Y-86578783D01*
X146948816Y-86370754D01*
X146948809Y-86370748D01*
X146715405Y-86191651D01*
X146715403Y-86191649D01*
X146715397Y-86191645D01*
X146715392Y-86191642D01*
X146715389Y-86191640D01*
X146460610Y-86044542D01*
X146460594Y-86044534D01*
X146188794Y-85931952D01*
X145935344Y-85864040D01*
X145904600Y-85855802D01*
X145904599Y-85855801D01*
X145904596Y-85855801D01*
X145612916Y-85817401D01*
X145612911Y-85817400D01*
X145612906Y-85817400D01*
X145318694Y-85817400D01*
X145318688Y-85817400D01*
X145318683Y-85817401D01*
X145027003Y-85855801D01*
X144742805Y-85931952D01*
X144471005Y-86044534D01*
X144470989Y-86044542D01*
X144216210Y-86191640D01*
X144216194Y-86191651D01*
X143982790Y-86370748D01*
X143982783Y-86370754D01*
X143774754Y-86578783D01*
X143774748Y-86578790D01*
X143595651Y-86812194D01*
X143595640Y-86812210D01*
X143448542Y-87066989D01*
X143448534Y-87067005D01*
X143335952Y-87338805D01*
X143259801Y-87623003D01*
X143221401Y-87914683D01*
X143221400Y-87914700D01*
X141502031Y-87914700D01*
X141483586Y-87798245D01*
X141428842Y-87629758D01*
X141428842Y-87629757D01*
X141348413Y-87471909D01*
X141348412Y-87471908D01*
X141337317Y-87456637D01*
X141313838Y-87390832D01*
X141329663Y-87322778D01*
X141379768Y-87274083D01*
X141448246Y-87260207D01*
X141453777Y-87260808D01*
X141541066Y-87272300D01*
X141541073Y-87272300D01*
X141770527Y-87272300D01*
X141770534Y-87272300D01*
X141998038Y-87242348D01*
X142219687Y-87182958D01*
X142431688Y-87095144D01*
X142630412Y-86980411D01*
X142812461Y-86840719D01*
X142812465Y-86840714D01*
X142812470Y-86840711D01*
X142974711Y-86678470D01*
X142974714Y-86678465D01*
X142974719Y-86678461D01*
X143114411Y-86496412D01*
X143229144Y-86297688D01*
X143316958Y-86085687D01*
X143376348Y-85864038D01*
X143406300Y-85636534D01*
X143406300Y-85407066D01*
X143376348Y-85179562D01*
X143316958Y-84957913D01*
X143253325Y-84804289D01*
X143229149Y-84745923D01*
X143229146Y-84745917D01*
X143229144Y-84745912D01*
X143114411Y-84547188D01*
X143114408Y-84547185D01*
X143114407Y-84547182D01*
X142974718Y-84365138D01*
X142974711Y-84365130D01*
X142812470Y-84202889D01*
X142812461Y-84202881D01*
X142630417Y-84063192D01*
X142572010Y-84029471D01*
X142431688Y-83948456D01*
X142431676Y-83948450D01*
X142219687Y-83860642D01*
X141998038Y-83801252D01*
X141960015Y-83796246D01*
X141770541Y-83771300D01*
X141770534Y-83771300D01*
X141541066Y-83771300D01*
X141541058Y-83771300D01*
X141324515Y-83799809D01*
X141313562Y-83801252D01*
X141219876Y-83826354D01*
X141091912Y-83860642D01*
X140879923Y-83948450D01*
X140879909Y-83948457D01*
X140681182Y-84063192D01*
X140499138Y-84202881D01*
X140367980Y-84334039D01*
X140306657Y-84367524D01*
X140236965Y-84362540D01*
X140181032Y-84320668D01*
X140156615Y-84255204D01*
X140156299Y-84246358D01*
X140156299Y-84223929D01*
X140156298Y-84223923D01*
X140156297Y-84223916D01*
X140149891Y-84164317D01*
X140146577Y-84155433D01*
X140099597Y-84029471D01*
X140099593Y-84029464D01*
X140013347Y-83914255D01*
X140013344Y-83914252D01*
X139898135Y-83828006D01*
X139898128Y-83828002D01*
X139763282Y-83777708D01*
X139763283Y-83777708D01*
X139703683Y-83771301D01*
X139703681Y-83771300D01*
X139703673Y-83771300D01*
X139703665Y-83771300D01*
X139105300Y-83771300D01*
X139038261Y-83751615D01*
X138992506Y-83698811D01*
X138981300Y-83647300D01*
X138981300Y-82867058D01*
X146255300Y-82867058D01*
X146255300Y-83096541D01*
X146273108Y-83231800D01*
X146285252Y-83324038D01*
X146285253Y-83324040D01*
X146344642Y-83545687D01*
X146432450Y-83757676D01*
X146432457Y-83757690D01*
X146547192Y-83956417D01*
X146686881Y-84138461D01*
X146686889Y-84138470D01*
X146849130Y-84300711D01*
X146849138Y-84300718D01*
X147031182Y-84440407D01*
X147031185Y-84440408D01*
X147031188Y-84440411D01*
X147229912Y-84555144D01*
X147229917Y-84555146D01*
X147229923Y-84555149D01*
X147311616Y-84588987D01*
X147441913Y-84642958D01*
X147663562Y-84702348D01*
X147880112Y-84730857D01*
X147887260Y-84731799D01*
X147891066Y-84732300D01*
X147891073Y-84732300D01*
X148120527Y-84732300D01*
X148120534Y-84732300D01*
X148348038Y-84702348D01*
X148569687Y-84642958D01*
X148781688Y-84555144D01*
X148980412Y-84440411D01*
X149162461Y-84300719D01*
X149162465Y-84300714D01*
X149162470Y-84300711D01*
X149321119Y-84142062D01*
X149382442Y-84108577D01*
X149452134Y-84113561D01*
X149508067Y-84155433D01*
X149532484Y-84220897D01*
X149532800Y-84229743D01*
X149532800Y-84279644D01*
X149539201Y-84339172D01*
X149539203Y-84339179D01*
X149589445Y-84473886D01*
X149589449Y-84473893D01*
X149675609Y-84588987D01*
X149675612Y-84588990D01*
X149790706Y-84675150D01*
X149790713Y-84675154D01*
X149925420Y-84725396D01*
X149925427Y-84725398D01*
X149984955Y-84731799D01*
X149984972Y-84731800D01*
X151057800Y-84731800D01*
X151057800Y-81231800D01*
X149984955Y-81231800D01*
X149925427Y-81238201D01*
X149925420Y-81238203D01*
X149790713Y-81288445D01*
X149790706Y-81288449D01*
X149675612Y-81374609D01*
X149675609Y-81374612D01*
X149589449Y-81489706D01*
X149589445Y-81489713D01*
X149539203Y-81624420D01*
X149539201Y-81624427D01*
X149532800Y-81683955D01*
X149532800Y-81733857D01*
X149513115Y-81800896D01*
X149460311Y-81846651D01*
X149391153Y-81856595D01*
X149327597Y-81827570D01*
X149321119Y-81821538D01*
X149162470Y-81662889D01*
X149162461Y-81662881D01*
X148980417Y-81523192D01*
X148781690Y-81408457D01*
X148781676Y-81408450D01*
X148569687Y-81320642D01*
X148348038Y-81261252D01*
X148310015Y-81256246D01*
X148120541Y-81231300D01*
X148120534Y-81231300D01*
X147891066Y-81231300D01*
X147891058Y-81231300D01*
X147674515Y-81259809D01*
X147663562Y-81261252D01*
X147569876Y-81286354D01*
X147441912Y-81320642D01*
X147229923Y-81408450D01*
X147229909Y-81408457D01*
X147031182Y-81523192D01*
X146849138Y-81662881D01*
X146686881Y-81825138D01*
X146547192Y-82007182D01*
X146432457Y-82205909D01*
X146432450Y-82205923D01*
X146344642Y-82417912D01*
X146285253Y-82639559D01*
X146285251Y-82639570D01*
X146255300Y-82867058D01*
X138981300Y-82867058D01*
X138981300Y-72739297D01*
X139000985Y-72672258D01*
X139017619Y-72651616D01*
X142342353Y-69326882D01*
X146378120Y-65291116D01*
X146457177Y-65154184D01*
X146498101Y-65001457D01*
X146498101Y-64843342D01*
X146498101Y-64835747D01*
X146498100Y-64835729D01*
X146498100Y-59954401D01*
X146517785Y-59887362D01*
X146565806Y-59843916D01*
X146579210Y-59837087D01*
X146744819Y-59716766D01*
X146889566Y-59572019D01*
X146889568Y-59572015D01*
X146889571Y-59572013D01*
X147009884Y-59406414D01*
X147009886Y-59406411D01*
X147009887Y-59406410D01*
X147057116Y-59313717D01*
X147105089Y-59262923D01*
X147172910Y-59246128D01*
X147239045Y-59268665D01*
G37*
%TD.AperFunction*%
%TA.AperFunction,Conductor*%
G36*
X167504827Y-74490189D02*
G01*
X167517408Y-74489650D01*
X167537273Y-74501245D01*
X167559045Y-74508665D01*
X167568319Y-74519368D01*
X167577750Y-74524873D01*
X167598085Y-74553719D01*
X167645315Y-74646414D01*
X167765628Y-74812013D01*
X167910386Y-74956771D01*
X168029100Y-75043020D01*
X168075990Y-75077087D01*
X168191299Y-75135840D01*
X168258376Y-75170018D01*
X168258378Y-75170018D01*
X168258381Y-75170020D01*
X168353617Y-75200964D01*
X168453065Y-75233277D01*
X168554157Y-75249288D01*
X168655248Y-75265300D01*
X168655249Y-75265300D01*
X168859951Y-75265300D01*
X168859952Y-75265300D01*
X169062134Y-75233277D01*
X169256819Y-75170020D01*
X169439210Y-75077087D01*
X169538284Y-75005106D01*
X169604813Y-74956771D01*
X169604815Y-74956768D01*
X169604819Y-74956766D01*
X169749566Y-74812019D01*
X169775930Y-74775730D01*
X169831258Y-74733065D01*
X169900871Y-74727084D01*
X169962667Y-74759689D01*
X169997026Y-74820526D01*
X169999538Y-74835359D01*
X170003507Y-74872280D01*
X170053802Y-75007128D01*
X170053806Y-75007135D01*
X170140052Y-75122344D01*
X170140055Y-75122347D01*
X170255264Y-75208593D01*
X170255271Y-75208597D01*
X170390117Y-75258891D01*
X170390116Y-75258891D01*
X170397044Y-75259635D01*
X170449727Y-75265300D01*
X171674100Y-75265299D01*
X171741139Y-75284984D01*
X171786894Y-75337787D01*
X171798100Y-75389299D01*
X171798100Y-81107800D01*
X171778415Y-81174839D01*
X171725611Y-81220594D01*
X171674100Y-81231800D01*
X170607800Y-81231800D01*
X170607800Y-84731800D01*
X171674100Y-84731800D01*
X171741139Y-84751485D01*
X171786894Y-84804289D01*
X171798100Y-84855800D01*
X171798100Y-93704152D01*
X171778415Y-93771191D01*
X171761781Y-93791833D01*
X169652314Y-95901299D01*
X169590991Y-95934784D01*
X169521299Y-95929800D01*
X169465366Y-95887928D01*
X169454151Y-95869917D01*
X169438087Y-95838390D01*
X169438085Y-95838387D01*
X169438084Y-95838385D01*
X169317771Y-95672786D01*
X169173013Y-95528028D01*
X169007413Y-95407715D01*
X169007412Y-95407714D01*
X169007410Y-95407713D01*
X168950453Y-95378691D01*
X168825023Y-95314781D01*
X168630334Y-95251522D01*
X168455795Y-95223878D01*
X168428152Y-95219500D01*
X168223448Y-95219500D01*
X168199129Y-95223351D01*
X168021265Y-95251522D01*
X167826576Y-95314781D01*
X167644186Y-95407715D01*
X167478586Y-95528028D01*
X167333828Y-95672786D01*
X167213515Y-95838385D01*
X167206683Y-95851795D01*
X167158709Y-95902591D01*
X167096198Y-95919500D01*
X166460271Y-95919500D01*
X166393232Y-95899815D01*
X166372590Y-95883181D01*
X159804428Y-89315019D01*
X159770943Y-89253696D01*
X159775927Y-89184004D01*
X159817799Y-89128071D01*
X159853795Y-89109406D01*
X159867842Y-89104842D01*
X160025690Y-89024414D01*
X160169014Y-88920283D01*
X160294283Y-88795014D01*
X160398414Y-88651690D01*
X160478842Y-88493842D01*
X160533586Y-88325355D01*
X160561300Y-88150379D01*
X160561300Y-87973221D01*
X160552031Y-87914700D01*
X162271400Y-87914700D01*
X162271400Y-88208899D01*
X162271401Y-88208916D01*
X162309801Y-88500596D01*
X162385952Y-88784794D01*
X162498534Y-89056594D01*
X162498542Y-89056610D01*
X162645640Y-89311389D01*
X162645651Y-89311405D01*
X162824748Y-89544809D01*
X162824754Y-89544816D01*
X163032783Y-89752845D01*
X163032789Y-89752850D01*
X163266203Y-89931955D01*
X163266210Y-89931959D01*
X163520989Y-90079057D01*
X163521005Y-90079065D01*
X163792805Y-90191647D01*
X163792807Y-90191647D01*
X163792813Y-90191650D01*
X164077000Y-90267798D01*
X164368694Y-90306200D01*
X164368701Y-90306200D01*
X164662899Y-90306200D01*
X164662906Y-90306200D01*
X164954600Y-90267798D01*
X165238787Y-90191650D01*
X165312118Y-90161275D01*
X165510594Y-90079065D01*
X165510597Y-90079063D01*
X165510603Y-90079061D01*
X165765397Y-89931955D01*
X165998811Y-89752850D01*
X166206850Y-89544811D01*
X166385955Y-89311397D01*
X166533061Y-89056603D01*
X166546395Y-89024413D01*
X166645647Y-88784794D01*
X166645646Y-88784794D01*
X166645650Y-88784787D01*
X166721798Y-88500600D01*
X166760200Y-88208906D01*
X166760200Y-87973221D01*
X168470300Y-87973221D01*
X168470300Y-88150378D01*
X168498014Y-88325356D01*
X168552756Y-88493839D01*
X168552757Y-88493842D01*
X168598958Y-88584514D01*
X168633186Y-88651690D01*
X168737317Y-88795014D01*
X168862586Y-88920283D01*
X169005910Y-89024414D01*
X169069084Y-89056603D01*
X169163757Y-89104842D01*
X169163760Y-89104843D01*
X169235250Y-89128071D01*
X169332245Y-89159586D01*
X169507221Y-89187300D01*
X169507222Y-89187300D01*
X169684378Y-89187300D01*
X169684379Y-89187300D01*
X169859355Y-89159586D01*
X170027842Y-89104842D01*
X170185690Y-89024414D01*
X170329014Y-88920283D01*
X170454283Y-88795014D01*
X170558414Y-88651690D01*
X170638842Y-88493842D01*
X170693586Y-88325355D01*
X170721300Y-88150379D01*
X170721300Y-87973221D01*
X170693586Y-87798245D01*
X170638842Y-87629758D01*
X170638842Y-87629757D01*
X170558413Y-87471909D01*
X170454283Y-87328586D01*
X170329014Y-87203317D01*
X170185690Y-87099186D01*
X170122532Y-87067005D01*
X170027842Y-87018757D01*
X170027839Y-87018756D01*
X169859356Y-86964014D01*
X169771867Y-86950157D01*
X169684379Y-86936300D01*
X169507221Y-86936300D01*
X169448895Y-86945538D01*
X169332243Y-86964014D01*
X169163760Y-87018756D01*
X169163757Y-87018757D01*
X169005909Y-87099186D01*
X168924138Y-87158596D01*
X168862586Y-87203317D01*
X168862584Y-87203319D01*
X168862583Y-87203319D01*
X168737319Y-87328583D01*
X168737319Y-87328584D01*
X168737317Y-87328586D01*
X168725546Y-87344788D01*
X168633186Y-87471909D01*
X168552757Y-87629757D01*
X168552756Y-87629760D01*
X168498014Y-87798243D01*
X168470300Y-87973221D01*
X166760200Y-87973221D01*
X166760200Y-87914694D01*
X166721798Y-87623000D01*
X166645650Y-87338813D01*
X166622741Y-87283505D01*
X166533065Y-87067005D01*
X166533057Y-87066989D01*
X166385959Y-86812210D01*
X166385955Y-86812203D01*
X166206850Y-86578789D01*
X166206845Y-86578783D01*
X165998816Y-86370754D01*
X165998809Y-86370748D01*
X165765405Y-86191651D01*
X165765403Y-86191649D01*
X165765397Y-86191645D01*
X165765392Y-86191642D01*
X165765389Y-86191640D01*
X165510610Y-86044542D01*
X165510594Y-86044534D01*
X165238794Y-85931952D01*
X164985344Y-85864040D01*
X164954600Y-85855802D01*
X164954599Y-85855801D01*
X164954596Y-85855801D01*
X164662916Y-85817401D01*
X164662911Y-85817400D01*
X164662906Y-85817400D01*
X164368694Y-85817400D01*
X164368688Y-85817400D01*
X164368683Y-85817401D01*
X164077003Y-85855801D01*
X163792805Y-85931952D01*
X163521005Y-86044534D01*
X163520989Y-86044542D01*
X163266210Y-86191640D01*
X163266194Y-86191651D01*
X163032790Y-86370748D01*
X163032783Y-86370754D01*
X162824754Y-86578783D01*
X162824748Y-86578790D01*
X162645651Y-86812194D01*
X162645640Y-86812210D01*
X162498542Y-87066989D01*
X162498534Y-87067005D01*
X162385952Y-87338805D01*
X162309801Y-87623003D01*
X162271401Y-87914683D01*
X162271400Y-87914700D01*
X160552031Y-87914700D01*
X160533586Y-87798245D01*
X160478842Y-87629758D01*
X160478842Y-87629757D01*
X160398413Y-87471909D01*
X160398412Y-87471908D01*
X160387317Y-87456637D01*
X160363838Y-87390832D01*
X160379663Y-87322778D01*
X160429768Y-87274083D01*
X160498246Y-87260207D01*
X160503777Y-87260808D01*
X160591066Y-87272300D01*
X160591073Y-87272300D01*
X160820527Y-87272300D01*
X160820534Y-87272300D01*
X161048038Y-87242348D01*
X161269687Y-87182958D01*
X161481688Y-87095144D01*
X161680412Y-86980411D01*
X161862461Y-86840719D01*
X161862465Y-86840714D01*
X161862470Y-86840711D01*
X162024711Y-86678470D01*
X162024714Y-86678465D01*
X162024719Y-86678461D01*
X162164411Y-86496412D01*
X162279144Y-86297688D01*
X162366958Y-86085687D01*
X162426348Y-85864038D01*
X162456300Y-85636534D01*
X162456300Y-85407066D01*
X162426348Y-85179562D01*
X162366958Y-84957913D01*
X162303325Y-84804289D01*
X162279149Y-84745923D01*
X162279146Y-84745917D01*
X162279144Y-84745912D01*
X162164411Y-84547188D01*
X162164408Y-84547185D01*
X162164407Y-84547182D01*
X162024718Y-84365138D01*
X162024711Y-84365130D01*
X161862470Y-84202889D01*
X161862461Y-84202881D01*
X161680417Y-84063192D01*
X161622010Y-84029471D01*
X161481688Y-83948456D01*
X161481676Y-83948450D01*
X161269687Y-83860642D01*
X161048038Y-83801252D01*
X161010015Y-83796246D01*
X160820541Y-83771300D01*
X160820534Y-83771300D01*
X160591066Y-83771300D01*
X160591058Y-83771300D01*
X160374515Y-83799809D01*
X160363562Y-83801252D01*
X160269876Y-83826354D01*
X160141912Y-83860642D01*
X159929923Y-83948450D01*
X159929909Y-83948457D01*
X159731182Y-84063192D01*
X159549138Y-84202881D01*
X159417980Y-84334039D01*
X159356657Y-84367524D01*
X159286965Y-84362540D01*
X159231032Y-84320668D01*
X159206615Y-84255204D01*
X159206299Y-84246358D01*
X159206299Y-84223929D01*
X159206298Y-84223923D01*
X159206297Y-84223916D01*
X159199891Y-84164317D01*
X159196577Y-84155433D01*
X159149597Y-84029471D01*
X159149593Y-84029464D01*
X159063347Y-83914255D01*
X159063344Y-83914252D01*
X158948135Y-83828006D01*
X158948128Y-83828002D01*
X158813282Y-83777708D01*
X158813283Y-83777708D01*
X158753683Y-83771301D01*
X158753681Y-83771300D01*
X158753673Y-83771300D01*
X158753665Y-83771300D01*
X158155300Y-83771300D01*
X158088261Y-83751615D01*
X158042506Y-83698811D01*
X158031300Y-83647300D01*
X158031300Y-82867058D01*
X165305300Y-82867058D01*
X165305300Y-83096541D01*
X165323108Y-83231800D01*
X165335252Y-83324038D01*
X165335253Y-83324040D01*
X165394642Y-83545687D01*
X165482450Y-83757676D01*
X165482457Y-83757690D01*
X165597192Y-83956417D01*
X165736881Y-84138461D01*
X165736889Y-84138470D01*
X165899130Y-84300711D01*
X165899138Y-84300718D01*
X166081182Y-84440407D01*
X166081185Y-84440408D01*
X166081188Y-84440411D01*
X166279912Y-84555144D01*
X166279917Y-84555146D01*
X166279923Y-84555149D01*
X166361616Y-84588987D01*
X166491913Y-84642958D01*
X166713562Y-84702348D01*
X166930112Y-84730857D01*
X166937260Y-84731799D01*
X166941066Y-84732300D01*
X166941073Y-84732300D01*
X167170527Y-84732300D01*
X167170534Y-84732300D01*
X167398038Y-84702348D01*
X167619687Y-84642958D01*
X167831688Y-84555144D01*
X168030412Y-84440411D01*
X168212461Y-84300719D01*
X168212465Y-84300714D01*
X168212470Y-84300711D01*
X168371119Y-84142062D01*
X168432442Y-84108577D01*
X168502134Y-84113561D01*
X168558067Y-84155433D01*
X168582484Y-84220897D01*
X168582800Y-84229743D01*
X168582800Y-84279644D01*
X168589201Y-84339172D01*
X168589203Y-84339179D01*
X168639445Y-84473886D01*
X168639449Y-84473893D01*
X168725609Y-84588987D01*
X168725612Y-84588990D01*
X168840706Y-84675150D01*
X168840713Y-84675154D01*
X168975420Y-84725396D01*
X168975427Y-84725398D01*
X169034955Y-84731799D01*
X169034972Y-84731800D01*
X170107800Y-84731800D01*
X170107800Y-81231800D01*
X169034955Y-81231800D01*
X168975427Y-81238201D01*
X168975420Y-81238203D01*
X168840713Y-81288445D01*
X168840706Y-81288449D01*
X168725612Y-81374609D01*
X168725609Y-81374612D01*
X168639449Y-81489706D01*
X168639445Y-81489713D01*
X168589203Y-81624420D01*
X168589201Y-81624427D01*
X168582800Y-81683955D01*
X168582800Y-81733857D01*
X168563115Y-81800896D01*
X168510311Y-81846651D01*
X168441153Y-81856595D01*
X168377597Y-81827570D01*
X168371119Y-81821538D01*
X168212470Y-81662889D01*
X168212461Y-81662881D01*
X168030417Y-81523192D01*
X167831690Y-81408457D01*
X167831676Y-81408450D01*
X167619687Y-81320642D01*
X167398038Y-81261252D01*
X167360015Y-81256246D01*
X167170541Y-81231300D01*
X167170534Y-81231300D01*
X166941066Y-81231300D01*
X166941058Y-81231300D01*
X166724515Y-81259809D01*
X166713562Y-81261252D01*
X166619876Y-81286354D01*
X166491912Y-81320642D01*
X166279923Y-81408450D01*
X166279909Y-81408457D01*
X166081182Y-81523192D01*
X165899138Y-81662881D01*
X165736881Y-81825138D01*
X165597192Y-82007182D01*
X165482457Y-82205909D01*
X165482450Y-82205923D01*
X165394642Y-82417912D01*
X165335253Y-82639559D01*
X165335251Y-82639570D01*
X165305300Y-82867058D01*
X158031300Y-82867058D01*
X158031300Y-75318895D01*
X158050985Y-75251856D01*
X158103789Y-75206101D01*
X158172947Y-75196157D01*
X158193611Y-75200962D01*
X158261734Y-75223096D01*
X158293065Y-75233277D01*
X158394157Y-75249288D01*
X158495248Y-75265300D01*
X158495249Y-75265300D01*
X158699951Y-75265300D01*
X158699952Y-75265300D01*
X158902134Y-75233277D01*
X159096819Y-75170020D01*
X159279210Y-75077087D01*
X159378284Y-75005106D01*
X159444813Y-74956771D01*
X159444815Y-74956768D01*
X159444819Y-74956766D01*
X159589566Y-74812019D01*
X159589568Y-74812015D01*
X159589571Y-74812013D01*
X159709884Y-74646414D01*
X159709885Y-74646413D01*
X159709887Y-74646410D01*
X159757116Y-74553717D01*
X159805089Y-74502923D01*
X159872910Y-74486128D01*
X159939045Y-74508665D01*
X159978085Y-74553719D01*
X160025315Y-74646414D01*
X160145628Y-74812013D01*
X160290386Y-74956771D01*
X160409100Y-75043020D01*
X160455990Y-75077087D01*
X160571299Y-75135840D01*
X160638376Y-75170018D01*
X160638378Y-75170018D01*
X160638381Y-75170020D01*
X160733617Y-75200964D01*
X160833065Y-75233277D01*
X160934157Y-75249288D01*
X161035248Y-75265300D01*
X161035249Y-75265300D01*
X161239951Y-75265300D01*
X161239952Y-75265300D01*
X161442134Y-75233277D01*
X161636819Y-75170020D01*
X161819210Y-75077087D01*
X161918284Y-75005106D01*
X161984813Y-74956771D01*
X161984815Y-74956768D01*
X161984819Y-74956766D01*
X162129566Y-74812019D01*
X162129568Y-74812015D01*
X162129571Y-74812013D01*
X162249884Y-74646414D01*
X162249885Y-74646413D01*
X162249887Y-74646410D01*
X162297116Y-74553717D01*
X162345089Y-74502923D01*
X162412910Y-74486128D01*
X162479045Y-74508665D01*
X162518085Y-74553719D01*
X162565315Y-74646414D01*
X162685628Y-74812013D01*
X162830386Y-74956771D01*
X162949100Y-75043020D01*
X162995990Y-75077087D01*
X163111299Y-75135840D01*
X163178376Y-75170018D01*
X163178378Y-75170018D01*
X163178381Y-75170020D01*
X163273617Y-75200964D01*
X163373065Y-75233277D01*
X163474157Y-75249288D01*
X163575248Y-75265300D01*
X163575249Y-75265300D01*
X163779951Y-75265300D01*
X163779952Y-75265300D01*
X163982134Y-75233277D01*
X164176819Y-75170020D01*
X164359210Y-75077087D01*
X164458284Y-75005106D01*
X164524813Y-74956771D01*
X164524815Y-74956768D01*
X164524819Y-74956766D01*
X164669566Y-74812019D01*
X164669568Y-74812015D01*
X164669571Y-74812013D01*
X164789884Y-74646414D01*
X164789885Y-74646413D01*
X164789887Y-74646410D01*
X164837116Y-74553717D01*
X164885089Y-74502923D01*
X164952910Y-74486128D01*
X165019045Y-74508665D01*
X165058085Y-74553719D01*
X165105315Y-74646414D01*
X165225628Y-74812013D01*
X165370386Y-74956771D01*
X165489100Y-75043020D01*
X165535990Y-75077087D01*
X165651299Y-75135840D01*
X165718376Y-75170018D01*
X165718378Y-75170018D01*
X165718381Y-75170020D01*
X165813617Y-75200964D01*
X165913065Y-75233277D01*
X166014157Y-75249288D01*
X166115248Y-75265300D01*
X166115249Y-75265300D01*
X166319951Y-75265300D01*
X166319952Y-75265300D01*
X166522134Y-75233277D01*
X166716819Y-75170020D01*
X166899210Y-75077087D01*
X166998284Y-75005106D01*
X167064813Y-74956771D01*
X167064815Y-74956768D01*
X167064819Y-74956766D01*
X167209566Y-74812019D01*
X167209568Y-74812015D01*
X167209571Y-74812013D01*
X167329884Y-74646414D01*
X167329885Y-74646413D01*
X167329887Y-74646410D01*
X167377116Y-74553717D01*
X167385761Y-74544564D01*
X167390496Y-74532899D01*
X167409293Y-74519647D01*
X167425089Y-74502923D01*
X167437311Y-74499896D01*
X167447602Y-74492642D01*
X167470582Y-74491656D01*
X167492910Y-74486128D01*
X167504827Y-74490189D01*
G37*
%TD.AperFunction*%
%TD*%
M02*
