%TF.GenerationSoftware,KiCad,Pcbnew,9.0.7*%
%TF.CreationDate,2026-04-19T23:56:59+08:00*%
%TF.ProjectId,final macropad,66696e61-6c20-46d6-9163-726f7061642e,rev?*%
%TF.SameCoordinates,Original*%
%TF.FileFunction,Legend,Top*%
%TF.FilePolarity,Positive*%
%FSLAX46Y46*%
G04 Gerber Fmt 4.6, Leading zero omitted, Abs format (unit mm)*
G04 Created by KiCad (PCBNEW 9.0.7) date 2026-04-19 23:56:59*
%MOMM*%
%LPD*%
G01*
G04 APERTURE LIST*
%ADD10C,0.150000*%
%ADD11C,0.000000*%
%ADD12C,0.120000*%
%ADD13C,0.100000*%
G04 APERTURE END LIST*
D10*
X174459675Y-74865428D02*
X173459675Y-74865428D01*
X173935865Y-74865428D02*
X173935865Y-74294000D01*
X174459675Y-74294000D02*
X173459675Y-74294000D01*
X174459675Y-73389238D02*
X173935865Y-73389238D01*
X173935865Y-73389238D02*
X173840627Y-73436857D01*
X173840627Y-73436857D02*
X173793008Y-73532095D01*
X173793008Y-73532095D02*
X173793008Y-73722571D01*
X173793008Y-73722571D02*
X173840627Y-73817809D01*
X174412056Y-73389238D02*
X174459675Y-73484476D01*
X174459675Y-73484476D02*
X174459675Y-73722571D01*
X174459675Y-73722571D02*
X174412056Y-73817809D01*
X174412056Y-73817809D02*
X174316817Y-73865428D01*
X174316817Y-73865428D02*
X174221579Y-73865428D01*
X174221579Y-73865428D02*
X174126341Y-73817809D01*
X174126341Y-73817809D02*
X174078722Y-73722571D01*
X174078722Y-73722571D02*
X174078722Y-73484476D01*
X174078722Y-73484476D02*
X174031103Y-73389238D01*
X173793008Y-72913047D02*
X174793008Y-72913047D01*
X173840627Y-72913047D02*
X173793008Y-72817809D01*
X173793008Y-72817809D02*
X173793008Y-72627333D01*
X173793008Y-72627333D02*
X173840627Y-72532095D01*
X173840627Y-72532095D02*
X173888246Y-72484476D01*
X173888246Y-72484476D02*
X173983484Y-72436857D01*
X173983484Y-72436857D02*
X174269198Y-72436857D01*
X174269198Y-72436857D02*
X174364436Y-72484476D01*
X174364436Y-72484476D02*
X174412056Y-72532095D01*
X174412056Y-72532095D02*
X174459675Y-72627333D01*
X174459675Y-72627333D02*
X174459675Y-72817809D01*
X174459675Y-72817809D02*
X174412056Y-72913047D01*
X173793008Y-72008285D02*
X174793008Y-72008285D01*
X173840627Y-72008285D02*
X173793008Y-71913047D01*
X173793008Y-71913047D02*
X173793008Y-71722571D01*
X173793008Y-71722571D02*
X173840627Y-71627333D01*
X173840627Y-71627333D02*
X173888246Y-71579714D01*
X173888246Y-71579714D02*
X173983484Y-71532095D01*
X173983484Y-71532095D02*
X174269198Y-71532095D01*
X174269198Y-71532095D02*
X174364436Y-71579714D01*
X174364436Y-71579714D02*
X174412056Y-71627333D01*
X174412056Y-71627333D02*
X174459675Y-71722571D01*
X174459675Y-71722571D02*
X174459675Y-71913047D01*
X174459675Y-71913047D02*
X174412056Y-72008285D01*
X173793008Y-71198761D02*
X174459675Y-70960666D01*
X173793008Y-70722571D02*
X174459675Y-70960666D01*
X174459675Y-70960666D02*
X174697770Y-71055904D01*
X174697770Y-71055904D02*
X174745389Y-71103523D01*
X174745389Y-71103523D02*
X174793008Y-71198761D01*
X173935865Y-69246380D02*
X173983484Y-69103523D01*
X173983484Y-69103523D02*
X174031103Y-69055904D01*
X174031103Y-69055904D02*
X174126341Y-69008285D01*
X174126341Y-69008285D02*
X174269198Y-69008285D01*
X174269198Y-69008285D02*
X174364436Y-69055904D01*
X174364436Y-69055904D02*
X174412056Y-69103523D01*
X174412056Y-69103523D02*
X174459675Y-69198761D01*
X174459675Y-69198761D02*
X174459675Y-69579713D01*
X174459675Y-69579713D02*
X173459675Y-69579713D01*
X173459675Y-69579713D02*
X173459675Y-69246380D01*
X173459675Y-69246380D02*
X173507294Y-69151142D01*
X173507294Y-69151142D02*
X173554913Y-69103523D01*
X173554913Y-69103523D02*
X173650151Y-69055904D01*
X173650151Y-69055904D02*
X173745389Y-69055904D01*
X173745389Y-69055904D02*
X173840627Y-69103523D01*
X173840627Y-69103523D02*
X173888246Y-69151142D01*
X173888246Y-69151142D02*
X173935865Y-69246380D01*
X173935865Y-69246380D02*
X173935865Y-69579713D01*
X174459675Y-68579713D02*
X173793008Y-68579713D01*
X173459675Y-68579713D02*
X173507294Y-68627332D01*
X173507294Y-68627332D02*
X173554913Y-68579713D01*
X173554913Y-68579713D02*
X173507294Y-68532094D01*
X173507294Y-68532094D02*
X173459675Y-68579713D01*
X173459675Y-68579713D02*
X173554913Y-68579713D01*
X174459675Y-68103523D02*
X173793008Y-68103523D01*
X173983484Y-68103523D02*
X173888246Y-68055904D01*
X173888246Y-68055904D02*
X173840627Y-68008285D01*
X173840627Y-68008285D02*
X173793008Y-67913047D01*
X173793008Y-67913047D02*
X173793008Y-67817809D01*
X173793008Y-67627332D02*
X173793008Y-67246380D01*
X173459675Y-67484475D02*
X174316817Y-67484475D01*
X174316817Y-67484475D02*
X174412056Y-67436856D01*
X174412056Y-67436856D02*
X174459675Y-67341618D01*
X174459675Y-67341618D02*
X174459675Y-67246380D01*
X174459675Y-66913046D02*
X173459675Y-66913046D01*
X174459675Y-66484475D02*
X173935865Y-66484475D01*
X173935865Y-66484475D02*
X173840627Y-66532094D01*
X173840627Y-66532094D02*
X173793008Y-66627332D01*
X173793008Y-66627332D02*
X173793008Y-66770189D01*
X173793008Y-66770189D02*
X173840627Y-66865427D01*
X173840627Y-66865427D02*
X173888246Y-66913046D01*
X174459675Y-65579713D02*
X173459675Y-65579713D01*
X174412056Y-65579713D02*
X174459675Y-65674951D01*
X174459675Y-65674951D02*
X174459675Y-65865427D01*
X174459675Y-65865427D02*
X174412056Y-65960665D01*
X174412056Y-65960665D02*
X174364436Y-66008284D01*
X174364436Y-66008284D02*
X174269198Y-66055903D01*
X174269198Y-66055903D02*
X173983484Y-66055903D01*
X173983484Y-66055903D02*
X173888246Y-66008284D01*
X173888246Y-66008284D02*
X173840627Y-65960665D01*
X173840627Y-65960665D02*
X173793008Y-65865427D01*
X173793008Y-65865427D02*
X173793008Y-65674951D01*
X173793008Y-65674951D02*
X173840627Y-65579713D01*
X174459675Y-64674951D02*
X173935865Y-64674951D01*
X173935865Y-64674951D02*
X173840627Y-64722570D01*
X173840627Y-64722570D02*
X173793008Y-64817808D01*
X173793008Y-64817808D02*
X173793008Y-65008284D01*
X173793008Y-65008284D02*
X173840627Y-65103522D01*
X174412056Y-64674951D02*
X174459675Y-64770189D01*
X174459675Y-64770189D02*
X174459675Y-65008284D01*
X174459675Y-65008284D02*
X174412056Y-65103522D01*
X174412056Y-65103522D02*
X174316817Y-65151141D01*
X174316817Y-65151141D02*
X174221579Y-65151141D01*
X174221579Y-65151141D02*
X174126341Y-65103522D01*
X174126341Y-65103522D02*
X174078722Y-65008284D01*
X174078722Y-65008284D02*
X174078722Y-64770189D01*
X174078722Y-64770189D02*
X174031103Y-64674951D01*
X173793008Y-64293998D02*
X174459675Y-64055903D01*
X173793008Y-63817808D02*
X174459675Y-64055903D01*
X174459675Y-64055903D02*
X174697770Y-64151141D01*
X174697770Y-64151141D02*
X174745389Y-64198760D01*
X174745389Y-64198760D02*
X174793008Y-64293998D01*
X173459675Y-62770188D02*
X173459675Y-62103522D01*
X173459675Y-62103522D02*
X174459675Y-62770188D01*
X174459675Y-62770188D02*
X174459675Y-62103522D01*
X174459675Y-61722569D02*
X173793008Y-61722569D01*
X173459675Y-61722569D02*
X173507294Y-61770188D01*
X173507294Y-61770188D02*
X173554913Y-61722569D01*
X173554913Y-61722569D02*
X173507294Y-61674950D01*
X173507294Y-61674950D02*
X173459675Y-61722569D01*
X173459675Y-61722569D02*
X173554913Y-61722569D01*
X173793008Y-61341617D02*
X173793008Y-60817808D01*
X173793008Y-60817808D02*
X174459675Y-61341617D01*
X174459675Y-61341617D02*
X174459675Y-60817808D01*
X174459675Y-60436855D02*
X173459675Y-60436855D01*
X174459675Y-60008284D02*
X173935865Y-60008284D01*
X173935865Y-60008284D02*
X173840627Y-60055903D01*
X173840627Y-60055903D02*
X173793008Y-60151141D01*
X173793008Y-60151141D02*
X173793008Y-60293998D01*
X173793008Y-60293998D02*
X173840627Y-60389236D01*
X173840627Y-60389236D02*
X173888246Y-60436855D01*
X173793008Y-59103522D02*
X174459675Y-59103522D01*
X173793008Y-59532093D02*
X174316817Y-59532093D01*
X174316817Y-59532093D02*
X174412056Y-59484474D01*
X174412056Y-59484474D02*
X174459675Y-59389236D01*
X174459675Y-59389236D02*
X174459675Y-59246379D01*
X174459675Y-59246379D02*
X174412056Y-59151141D01*
X174412056Y-59151141D02*
X174364436Y-59103522D01*
X174459675Y-58484474D02*
X174412056Y-58579712D01*
X174412056Y-58579712D02*
X174364436Y-58627331D01*
X174364436Y-58627331D02*
X174269198Y-58674950D01*
X174269198Y-58674950D02*
X173983484Y-58674950D01*
X173983484Y-58674950D02*
X173888246Y-58627331D01*
X173888246Y-58627331D02*
X173840627Y-58579712D01*
X173840627Y-58579712D02*
X173793008Y-58484474D01*
X173793008Y-58484474D02*
X173793008Y-58341617D01*
X173793008Y-58341617D02*
X173840627Y-58246379D01*
X173840627Y-58246379D02*
X173888246Y-58198760D01*
X173888246Y-58198760D02*
X173983484Y-58151141D01*
X173983484Y-58151141D02*
X174269198Y-58151141D01*
X174269198Y-58151141D02*
X174364436Y-58198760D01*
X174364436Y-58198760D02*
X174412056Y-58246379D01*
X174412056Y-58246379D02*
X174459675Y-58341617D01*
X174459675Y-58341617D02*
X174459675Y-58484474D01*
X174364436Y-57722569D02*
X174412056Y-57674950D01*
X174412056Y-57674950D02*
X174459675Y-57722569D01*
X174459675Y-57722569D02*
X174412056Y-57770188D01*
X174412056Y-57770188D02*
X174364436Y-57722569D01*
X174364436Y-57722569D02*
X174459675Y-57722569D01*
X174078722Y-57722569D02*
X173507294Y-57770188D01*
X173507294Y-57770188D02*
X173459675Y-57722569D01*
X173459675Y-57722569D02*
X173507294Y-57674950D01*
X173507294Y-57674950D02*
X174078722Y-57722569D01*
X174078722Y-57722569D02*
X173459675Y-57722569D01*
X175164857Y-70960666D02*
X175117238Y-70913047D01*
X175117238Y-70913047D02*
X175069619Y-70817809D01*
X175069619Y-70817809D02*
X175069619Y-70579714D01*
X175069619Y-70579714D02*
X175117238Y-70484476D01*
X175117238Y-70484476D02*
X175164857Y-70436857D01*
X175164857Y-70436857D02*
X175260095Y-70389238D01*
X175260095Y-70389238D02*
X175355333Y-70389238D01*
X175355333Y-70389238D02*
X175498190Y-70436857D01*
X175498190Y-70436857D02*
X176069619Y-71008285D01*
X176069619Y-71008285D02*
X176069619Y-70389238D01*
X175069619Y-69484476D02*
X175069619Y-69960666D01*
X175069619Y-69960666D02*
X175545809Y-70008285D01*
X175545809Y-70008285D02*
X175498190Y-69960666D01*
X175498190Y-69960666D02*
X175450571Y-69865428D01*
X175450571Y-69865428D02*
X175450571Y-69627333D01*
X175450571Y-69627333D02*
X175498190Y-69532095D01*
X175498190Y-69532095D02*
X175545809Y-69484476D01*
X175545809Y-69484476D02*
X175641047Y-69436857D01*
X175641047Y-69436857D02*
X175879142Y-69436857D01*
X175879142Y-69436857D02*
X175974380Y-69484476D01*
X175974380Y-69484476D02*
X176022000Y-69532095D01*
X176022000Y-69532095D02*
X176069619Y-69627333D01*
X176069619Y-69627333D02*
X176069619Y-69865428D01*
X176069619Y-69865428D02*
X176022000Y-69960666D01*
X176022000Y-69960666D02*
X175974380Y-70008285D01*
X175022000Y-68294000D02*
X176307714Y-69151142D01*
X175069619Y-67770190D02*
X175069619Y-67674952D01*
X175069619Y-67674952D02*
X175117238Y-67579714D01*
X175117238Y-67579714D02*
X175164857Y-67532095D01*
X175164857Y-67532095D02*
X175260095Y-67484476D01*
X175260095Y-67484476D02*
X175450571Y-67436857D01*
X175450571Y-67436857D02*
X175688666Y-67436857D01*
X175688666Y-67436857D02*
X175879142Y-67484476D01*
X175879142Y-67484476D02*
X175974380Y-67532095D01*
X175974380Y-67532095D02*
X176022000Y-67579714D01*
X176022000Y-67579714D02*
X176069619Y-67674952D01*
X176069619Y-67674952D02*
X176069619Y-67770190D01*
X176069619Y-67770190D02*
X176022000Y-67865428D01*
X176022000Y-67865428D02*
X175974380Y-67913047D01*
X175974380Y-67913047D02*
X175879142Y-67960666D01*
X175879142Y-67960666D02*
X175688666Y-68008285D01*
X175688666Y-68008285D02*
X175450571Y-68008285D01*
X175450571Y-68008285D02*
X175260095Y-67960666D01*
X175260095Y-67960666D02*
X175164857Y-67913047D01*
X175164857Y-67913047D02*
X175117238Y-67865428D01*
X175117238Y-67865428D02*
X175069619Y-67770190D01*
X175069619Y-67103523D02*
X175069619Y-66484476D01*
X175069619Y-66484476D02*
X175450571Y-66817809D01*
X175450571Y-66817809D02*
X175450571Y-66674952D01*
X175450571Y-66674952D02*
X175498190Y-66579714D01*
X175498190Y-66579714D02*
X175545809Y-66532095D01*
X175545809Y-66532095D02*
X175641047Y-66484476D01*
X175641047Y-66484476D02*
X175879142Y-66484476D01*
X175879142Y-66484476D02*
X175974380Y-66532095D01*
X175974380Y-66532095D02*
X176022000Y-66579714D01*
X176022000Y-66579714D02*
X176069619Y-66674952D01*
X176069619Y-66674952D02*
X176069619Y-66960666D01*
X176069619Y-66960666D02*
X176022000Y-67055904D01*
X176022000Y-67055904D02*
X175974380Y-67103523D01*
X175022000Y-65341619D02*
X176307714Y-66198761D01*
X175164857Y-65055904D02*
X175117238Y-65008285D01*
X175117238Y-65008285D02*
X175069619Y-64913047D01*
X175069619Y-64913047D02*
X175069619Y-64674952D01*
X175069619Y-64674952D02*
X175117238Y-64579714D01*
X175117238Y-64579714D02*
X175164857Y-64532095D01*
X175164857Y-64532095D02*
X175260095Y-64484476D01*
X175260095Y-64484476D02*
X175355333Y-64484476D01*
X175355333Y-64484476D02*
X175498190Y-64532095D01*
X175498190Y-64532095D02*
X176069619Y-65103523D01*
X176069619Y-65103523D02*
X176069619Y-64484476D01*
X175069619Y-63865428D02*
X175069619Y-63770190D01*
X175069619Y-63770190D02*
X175117238Y-63674952D01*
X175117238Y-63674952D02*
X175164857Y-63627333D01*
X175164857Y-63627333D02*
X175260095Y-63579714D01*
X175260095Y-63579714D02*
X175450571Y-63532095D01*
X175450571Y-63532095D02*
X175688666Y-63532095D01*
X175688666Y-63532095D02*
X175879142Y-63579714D01*
X175879142Y-63579714D02*
X175974380Y-63627333D01*
X175974380Y-63627333D02*
X176022000Y-63674952D01*
X176022000Y-63674952D02*
X176069619Y-63770190D01*
X176069619Y-63770190D02*
X176069619Y-63865428D01*
X176069619Y-63865428D02*
X176022000Y-63960666D01*
X176022000Y-63960666D02*
X175974380Y-64008285D01*
X175974380Y-64008285D02*
X175879142Y-64055904D01*
X175879142Y-64055904D02*
X175688666Y-64103523D01*
X175688666Y-64103523D02*
X175450571Y-64103523D01*
X175450571Y-64103523D02*
X175260095Y-64055904D01*
X175260095Y-64055904D02*
X175164857Y-64008285D01*
X175164857Y-64008285D02*
X175117238Y-63960666D01*
X175117238Y-63960666D02*
X175069619Y-63865428D01*
X175164857Y-63151142D02*
X175117238Y-63103523D01*
X175117238Y-63103523D02*
X175069619Y-63008285D01*
X175069619Y-63008285D02*
X175069619Y-62770190D01*
X175069619Y-62770190D02*
X175117238Y-62674952D01*
X175117238Y-62674952D02*
X175164857Y-62627333D01*
X175164857Y-62627333D02*
X175260095Y-62579714D01*
X175260095Y-62579714D02*
X175355333Y-62579714D01*
X175355333Y-62579714D02*
X175498190Y-62627333D01*
X175498190Y-62627333D02*
X176069619Y-63198761D01*
X176069619Y-63198761D02*
X176069619Y-62579714D01*
X175069619Y-61722571D02*
X175069619Y-61913047D01*
X175069619Y-61913047D02*
X175117238Y-62008285D01*
X175117238Y-62008285D02*
X175164857Y-62055904D01*
X175164857Y-62055904D02*
X175307714Y-62151142D01*
X175307714Y-62151142D02*
X175498190Y-62198761D01*
X175498190Y-62198761D02*
X175879142Y-62198761D01*
X175879142Y-62198761D02*
X175974380Y-62151142D01*
X175974380Y-62151142D02*
X176022000Y-62103523D01*
X176022000Y-62103523D02*
X176069619Y-62008285D01*
X176069619Y-62008285D02*
X176069619Y-61817809D01*
X176069619Y-61817809D02*
X176022000Y-61722571D01*
X176022000Y-61722571D02*
X175974380Y-61674952D01*
X175974380Y-61674952D02*
X175879142Y-61627333D01*
X175879142Y-61627333D02*
X175641047Y-61627333D01*
X175641047Y-61627333D02*
X175545809Y-61674952D01*
X175545809Y-61674952D02*
X175498190Y-61722571D01*
X175498190Y-61722571D02*
X175450571Y-61817809D01*
X175450571Y-61817809D02*
X175450571Y-62008285D01*
X175450571Y-62008285D02*
X175498190Y-62103523D01*
X175498190Y-62103523D02*
X175545809Y-62151142D01*
X175545809Y-62151142D02*
X175641047Y-62198761D01*
X116611400Y-63591839D02*
X116659019Y-63448982D01*
X116659019Y-63448982D02*
X116659019Y-63210887D01*
X116659019Y-63210887D02*
X116611400Y-63115649D01*
X116611400Y-63115649D02*
X116563780Y-63068030D01*
X116563780Y-63068030D02*
X116468542Y-63020411D01*
X116468542Y-63020411D02*
X116373304Y-63020411D01*
X116373304Y-63020411D02*
X116278066Y-63068030D01*
X116278066Y-63068030D02*
X116230447Y-63115649D01*
X116230447Y-63115649D02*
X116182828Y-63210887D01*
X116182828Y-63210887D02*
X116135209Y-63401363D01*
X116135209Y-63401363D02*
X116087590Y-63496601D01*
X116087590Y-63496601D02*
X116039971Y-63544220D01*
X116039971Y-63544220D02*
X115944733Y-63591839D01*
X115944733Y-63591839D02*
X115849495Y-63591839D01*
X115849495Y-63591839D02*
X115754257Y-63544220D01*
X115754257Y-63544220D02*
X115706638Y-63496601D01*
X115706638Y-63496601D02*
X115659019Y-63401363D01*
X115659019Y-63401363D02*
X115659019Y-63163268D01*
X115659019Y-63163268D02*
X115706638Y-63020411D01*
X116659019Y-62591839D02*
X115659019Y-62591839D01*
X115659019Y-62591839D02*
X115659019Y-62353744D01*
X115659019Y-62353744D02*
X115706638Y-62210887D01*
X115706638Y-62210887D02*
X115801876Y-62115649D01*
X115801876Y-62115649D02*
X115897114Y-62068030D01*
X115897114Y-62068030D02*
X116087590Y-62020411D01*
X116087590Y-62020411D02*
X116230447Y-62020411D01*
X116230447Y-62020411D02*
X116420923Y-62068030D01*
X116420923Y-62068030D02*
X116516161Y-62115649D01*
X116516161Y-62115649D02*
X116611400Y-62210887D01*
X116611400Y-62210887D02*
X116659019Y-62353744D01*
X116659019Y-62353744D02*
X116659019Y-62591839D01*
X116373304Y-61639458D02*
X116373304Y-61163268D01*
X116659019Y-61734696D02*
X115659019Y-61401363D01*
X115659019Y-61401363D02*
X116659019Y-61068030D01*
X116611400Y-66335039D02*
X116659019Y-66192182D01*
X116659019Y-66192182D02*
X116659019Y-65954087D01*
X116659019Y-65954087D02*
X116611400Y-65858849D01*
X116611400Y-65858849D02*
X116563780Y-65811230D01*
X116563780Y-65811230D02*
X116468542Y-65763611D01*
X116468542Y-65763611D02*
X116373304Y-65763611D01*
X116373304Y-65763611D02*
X116278066Y-65811230D01*
X116278066Y-65811230D02*
X116230447Y-65858849D01*
X116230447Y-65858849D02*
X116182828Y-65954087D01*
X116182828Y-65954087D02*
X116135209Y-66144563D01*
X116135209Y-66144563D02*
X116087590Y-66239801D01*
X116087590Y-66239801D02*
X116039971Y-66287420D01*
X116039971Y-66287420D02*
X115944733Y-66335039D01*
X115944733Y-66335039D02*
X115849495Y-66335039D01*
X115849495Y-66335039D02*
X115754257Y-66287420D01*
X115754257Y-66287420D02*
X115706638Y-66239801D01*
X115706638Y-66239801D02*
X115659019Y-66144563D01*
X115659019Y-66144563D02*
X115659019Y-65906468D01*
X115659019Y-65906468D02*
X115706638Y-65763611D01*
X116563780Y-64763611D02*
X116611400Y-64811230D01*
X116611400Y-64811230D02*
X116659019Y-64954087D01*
X116659019Y-64954087D02*
X116659019Y-65049325D01*
X116659019Y-65049325D02*
X116611400Y-65192182D01*
X116611400Y-65192182D02*
X116516161Y-65287420D01*
X116516161Y-65287420D02*
X116420923Y-65335039D01*
X116420923Y-65335039D02*
X116230447Y-65382658D01*
X116230447Y-65382658D02*
X116087590Y-65382658D01*
X116087590Y-65382658D02*
X115897114Y-65335039D01*
X115897114Y-65335039D02*
X115801876Y-65287420D01*
X115801876Y-65287420D02*
X115706638Y-65192182D01*
X115706638Y-65192182D02*
X115659019Y-65049325D01*
X115659019Y-65049325D02*
X115659019Y-64954087D01*
X115659019Y-64954087D02*
X115706638Y-64811230D01*
X115706638Y-64811230D02*
X115754257Y-64763611D01*
X116659019Y-63858849D02*
X116659019Y-64335039D01*
X116659019Y-64335039D02*
X115659019Y-64335039D01*
X115659019Y-67690830D02*
X115659019Y-68167020D01*
X115659019Y-68167020D02*
X116135209Y-68214639D01*
X116135209Y-68214639D02*
X116087590Y-68167020D01*
X116087590Y-68167020D02*
X116039971Y-68071782D01*
X116039971Y-68071782D02*
X116039971Y-67833687D01*
X116039971Y-67833687D02*
X116087590Y-67738449D01*
X116087590Y-67738449D02*
X116135209Y-67690830D01*
X116135209Y-67690830D02*
X116230447Y-67643211D01*
X116230447Y-67643211D02*
X116468542Y-67643211D01*
X116468542Y-67643211D02*
X116563780Y-67690830D01*
X116563780Y-67690830D02*
X116611400Y-67738449D01*
X116611400Y-67738449D02*
X116659019Y-67833687D01*
X116659019Y-67833687D02*
X116659019Y-68071782D01*
X116659019Y-68071782D02*
X116611400Y-68167020D01*
X116611400Y-68167020D02*
X116563780Y-68214639D01*
X115659019Y-67357496D02*
X116659019Y-67024163D01*
X116659019Y-67024163D02*
X115659019Y-66690830D01*
X115706638Y-70945211D02*
X115659019Y-71040449D01*
X115659019Y-71040449D02*
X115659019Y-71183306D01*
X115659019Y-71183306D02*
X115706638Y-71326163D01*
X115706638Y-71326163D02*
X115801876Y-71421401D01*
X115801876Y-71421401D02*
X115897114Y-71469020D01*
X115897114Y-71469020D02*
X116087590Y-71516639D01*
X116087590Y-71516639D02*
X116230447Y-71516639D01*
X116230447Y-71516639D02*
X116420923Y-71469020D01*
X116420923Y-71469020D02*
X116516161Y-71421401D01*
X116516161Y-71421401D02*
X116611400Y-71326163D01*
X116611400Y-71326163D02*
X116659019Y-71183306D01*
X116659019Y-71183306D02*
X116659019Y-71088068D01*
X116659019Y-71088068D02*
X116611400Y-70945211D01*
X116611400Y-70945211D02*
X116563780Y-70897592D01*
X116563780Y-70897592D02*
X116230447Y-70897592D01*
X116230447Y-70897592D02*
X116230447Y-71088068D01*
X116659019Y-70469020D02*
X115659019Y-70469020D01*
X115659019Y-70469020D02*
X116659019Y-69897592D01*
X116659019Y-69897592D02*
X115659019Y-69897592D01*
X116659019Y-69421401D02*
X115659019Y-69421401D01*
X115659019Y-69421401D02*
X115659019Y-69183306D01*
X115659019Y-69183306D02*
X115706638Y-69040449D01*
X115706638Y-69040449D02*
X115801876Y-68945211D01*
X115801876Y-68945211D02*
X115897114Y-68897592D01*
X115897114Y-68897592D02*
X116087590Y-68849973D01*
X116087590Y-68849973D02*
X116230447Y-68849973D01*
X116230447Y-68849973D02*
X116420923Y-68897592D01*
X116420923Y-68897592D02*
X116516161Y-68945211D01*
X116516161Y-68945211D02*
X116611400Y-69040449D01*
X116611400Y-69040449D02*
X116659019Y-69183306D01*
X116659019Y-69183306D02*
X116659019Y-69421401D01*
X160105960Y-76682600D02*
X160248817Y-76730219D01*
X160248817Y-76730219D02*
X160486912Y-76730219D01*
X160486912Y-76730219D02*
X160582150Y-76682600D01*
X160582150Y-76682600D02*
X160629769Y-76634980D01*
X160629769Y-76634980D02*
X160677388Y-76539742D01*
X160677388Y-76539742D02*
X160677388Y-76444504D01*
X160677388Y-76444504D02*
X160629769Y-76349266D01*
X160629769Y-76349266D02*
X160582150Y-76301647D01*
X160582150Y-76301647D02*
X160486912Y-76254028D01*
X160486912Y-76254028D02*
X160296436Y-76206409D01*
X160296436Y-76206409D02*
X160201198Y-76158790D01*
X160201198Y-76158790D02*
X160153579Y-76111171D01*
X160153579Y-76111171D02*
X160105960Y-76015933D01*
X160105960Y-76015933D02*
X160105960Y-75920695D01*
X160105960Y-75920695D02*
X160153579Y-75825457D01*
X160153579Y-75825457D02*
X160201198Y-75777838D01*
X160201198Y-75777838D02*
X160296436Y-75730219D01*
X160296436Y-75730219D02*
X160534531Y-75730219D01*
X160534531Y-75730219D02*
X160677388Y-75777838D01*
X161105960Y-76730219D02*
X161105960Y-75730219D01*
X161105960Y-75730219D02*
X161344055Y-75730219D01*
X161344055Y-75730219D02*
X161486912Y-75777838D01*
X161486912Y-75777838D02*
X161582150Y-75873076D01*
X161582150Y-75873076D02*
X161629769Y-75968314D01*
X161629769Y-75968314D02*
X161677388Y-76158790D01*
X161677388Y-76158790D02*
X161677388Y-76301647D01*
X161677388Y-76301647D02*
X161629769Y-76492123D01*
X161629769Y-76492123D02*
X161582150Y-76587361D01*
X161582150Y-76587361D02*
X161486912Y-76682600D01*
X161486912Y-76682600D02*
X161344055Y-76730219D01*
X161344055Y-76730219D02*
X161105960Y-76730219D01*
X162058341Y-76444504D02*
X162534531Y-76444504D01*
X161963103Y-76730219D02*
X162296436Y-75730219D01*
X162296436Y-75730219D02*
X162629769Y-76730219D01*
X157235760Y-76682600D02*
X157378617Y-76730219D01*
X157378617Y-76730219D02*
X157616712Y-76730219D01*
X157616712Y-76730219D02*
X157711950Y-76682600D01*
X157711950Y-76682600D02*
X157759569Y-76634980D01*
X157759569Y-76634980D02*
X157807188Y-76539742D01*
X157807188Y-76539742D02*
X157807188Y-76444504D01*
X157807188Y-76444504D02*
X157759569Y-76349266D01*
X157759569Y-76349266D02*
X157711950Y-76301647D01*
X157711950Y-76301647D02*
X157616712Y-76254028D01*
X157616712Y-76254028D02*
X157426236Y-76206409D01*
X157426236Y-76206409D02*
X157330998Y-76158790D01*
X157330998Y-76158790D02*
X157283379Y-76111171D01*
X157283379Y-76111171D02*
X157235760Y-76015933D01*
X157235760Y-76015933D02*
X157235760Y-75920695D01*
X157235760Y-75920695D02*
X157283379Y-75825457D01*
X157283379Y-75825457D02*
X157330998Y-75777838D01*
X157330998Y-75777838D02*
X157426236Y-75730219D01*
X157426236Y-75730219D02*
X157664331Y-75730219D01*
X157664331Y-75730219D02*
X157807188Y-75777838D01*
X158807188Y-76634980D02*
X158759569Y-76682600D01*
X158759569Y-76682600D02*
X158616712Y-76730219D01*
X158616712Y-76730219D02*
X158521474Y-76730219D01*
X158521474Y-76730219D02*
X158378617Y-76682600D01*
X158378617Y-76682600D02*
X158283379Y-76587361D01*
X158283379Y-76587361D02*
X158235760Y-76492123D01*
X158235760Y-76492123D02*
X158188141Y-76301647D01*
X158188141Y-76301647D02*
X158188141Y-76158790D01*
X158188141Y-76158790D02*
X158235760Y-75968314D01*
X158235760Y-75968314D02*
X158283379Y-75873076D01*
X158283379Y-75873076D02*
X158378617Y-75777838D01*
X158378617Y-75777838D02*
X158521474Y-75730219D01*
X158521474Y-75730219D02*
X158616712Y-75730219D01*
X158616712Y-75730219D02*
X158759569Y-75777838D01*
X158759569Y-75777838D02*
X158807188Y-75825457D01*
X159711950Y-76730219D02*
X159235760Y-76730219D01*
X159235760Y-76730219D02*
X159235760Y-75730219D01*
X144865960Y-76682600D02*
X145008817Y-76730219D01*
X145008817Y-76730219D02*
X145246912Y-76730219D01*
X145246912Y-76730219D02*
X145342150Y-76682600D01*
X145342150Y-76682600D02*
X145389769Y-76634980D01*
X145389769Y-76634980D02*
X145437388Y-76539742D01*
X145437388Y-76539742D02*
X145437388Y-76444504D01*
X145437388Y-76444504D02*
X145389769Y-76349266D01*
X145389769Y-76349266D02*
X145342150Y-76301647D01*
X145342150Y-76301647D02*
X145246912Y-76254028D01*
X145246912Y-76254028D02*
X145056436Y-76206409D01*
X145056436Y-76206409D02*
X144961198Y-76158790D01*
X144961198Y-76158790D02*
X144913579Y-76111171D01*
X144913579Y-76111171D02*
X144865960Y-76015933D01*
X144865960Y-76015933D02*
X144865960Y-75920695D01*
X144865960Y-75920695D02*
X144913579Y-75825457D01*
X144913579Y-75825457D02*
X144961198Y-75777838D01*
X144961198Y-75777838D02*
X145056436Y-75730219D01*
X145056436Y-75730219D02*
X145294531Y-75730219D01*
X145294531Y-75730219D02*
X145437388Y-75777838D01*
X145770722Y-75730219D02*
X146008817Y-76730219D01*
X146008817Y-76730219D02*
X146199293Y-76015933D01*
X146199293Y-76015933D02*
X146389769Y-76730219D01*
X146389769Y-76730219D02*
X146627865Y-75730219D01*
X147437388Y-76063552D02*
X147437388Y-76730219D01*
X147199293Y-75682600D02*
X146961198Y-76396885D01*
X146961198Y-76396885D02*
X147580245Y-76396885D01*
X141817960Y-76682600D02*
X141960817Y-76730219D01*
X141960817Y-76730219D02*
X142198912Y-76730219D01*
X142198912Y-76730219D02*
X142294150Y-76682600D01*
X142294150Y-76682600D02*
X142341769Y-76634980D01*
X142341769Y-76634980D02*
X142389388Y-76539742D01*
X142389388Y-76539742D02*
X142389388Y-76444504D01*
X142389388Y-76444504D02*
X142341769Y-76349266D01*
X142341769Y-76349266D02*
X142294150Y-76301647D01*
X142294150Y-76301647D02*
X142198912Y-76254028D01*
X142198912Y-76254028D02*
X142008436Y-76206409D01*
X142008436Y-76206409D02*
X141913198Y-76158790D01*
X141913198Y-76158790D02*
X141865579Y-76111171D01*
X141865579Y-76111171D02*
X141817960Y-76015933D01*
X141817960Y-76015933D02*
X141817960Y-75920695D01*
X141817960Y-75920695D02*
X141865579Y-75825457D01*
X141865579Y-75825457D02*
X141913198Y-75777838D01*
X141913198Y-75777838D02*
X142008436Y-75730219D01*
X142008436Y-75730219D02*
X142246531Y-75730219D01*
X142246531Y-75730219D02*
X142389388Y-75777838D01*
X142722722Y-75730219D02*
X142960817Y-76730219D01*
X142960817Y-76730219D02*
X143151293Y-76015933D01*
X143151293Y-76015933D02*
X143341769Y-76730219D01*
X143341769Y-76730219D02*
X143579865Y-75730219D01*
X144437007Y-75730219D02*
X143960817Y-75730219D01*
X143960817Y-75730219D02*
X143913198Y-76206409D01*
X143913198Y-76206409D02*
X143960817Y-76158790D01*
X143960817Y-76158790D02*
X144056055Y-76111171D01*
X144056055Y-76111171D02*
X144294150Y-76111171D01*
X144294150Y-76111171D02*
X144389388Y-76158790D01*
X144389388Y-76158790D02*
X144437007Y-76206409D01*
X144437007Y-76206409D02*
X144484626Y-76301647D01*
X144484626Y-76301647D02*
X144484626Y-76539742D01*
X144484626Y-76539742D02*
X144437007Y-76634980D01*
X144437007Y-76634980D02*
X144389388Y-76682600D01*
X144389388Y-76682600D02*
X144294150Y-76730219D01*
X144294150Y-76730219D02*
X144056055Y-76730219D01*
X144056055Y-76730219D02*
X143960817Y-76682600D01*
X143960817Y-76682600D02*
X143913198Y-76634980D01*
X150377760Y-61518800D02*
X150520617Y-61566419D01*
X150520617Y-61566419D02*
X150758712Y-61566419D01*
X150758712Y-61566419D02*
X150853950Y-61518800D01*
X150853950Y-61518800D02*
X150901569Y-61471180D01*
X150901569Y-61471180D02*
X150949188Y-61375942D01*
X150949188Y-61375942D02*
X150949188Y-61280704D01*
X150949188Y-61280704D02*
X150901569Y-61185466D01*
X150901569Y-61185466D02*
X150853950Y-61137847D01*
X150853950Y-61137847D02*
X150758712Y-61090228D01*
X150758712Y-61090228D02*
X150568236Y-61042609D01*
X150568236Y-61042609D02*
X150472998Y-60994990D01*
X150472998Y-60994990D02*
X150425379Y-60947371D01*
X150425379Y-60947371D02*
X150377760Y-60852133D01*
X150377760Y-60852133D02*
X150377760Y-60756895D01*
X150377760Y-60756895D02*
X150425379Y-60661657D01*
X150425379Y-60661657D02*
X150472998Y-60614038D01*
X150472998Y-60614038D02*
X150568236Y-60566419D01*
X150568236Y-60566419D02*
X150806331Y-60566419D01*
X150806331Y-60566419D02*
X150949188Y-60614038D01*
X151282522Y-60566419D02*
X151520617Y-61566419D01*
X151520617Y-61566419D02*
X151711093Y-60852133D01*
X151711093Y-60852133D02*
X151901569Y-61566419D01*
X151901569Y-61566419D02*
X152139665Y-60566419D01*
X153044426Y-61566419D02*
X152472998Y-61566419D01*
X152758712Y-61566419D02*
X152758712Y-60566419D01*
X152758712Y-60566419D02*
X152663474Y-60709276D01*
X152663474Y-60709276D02*
X152568236Y-60804514D01*
X152568236Y-60804514D02*
X152472998Y-60852133D01*
X147338227Y-61518800D02*
X147481084Y-61566419D01*
X147481084Y-61566419D02*
X147719179Y-61566419D01*
X147719179Y-61566419D02*
X147814417Y-61518800D01*
X147814417Y-61518800D02*
X147862036Y-61471180D01*
X147862036Y-61471180D02*
X147909655Y-61375942D01*
X147909655Y-61375942D02*
X147909655Y-61280704D01*
X147909655Y-61280704D02*
X147862036Y-61185466D01*
X147862036Y-61185466D02*
X147814417Y-61137847D01*
X147814417Y-61137847D02*
X147719179Y-61090228D01*
X147719179Y-61090228D02*
X147528703Y-61042609D01*
X147528703Y-61042609D02*
X147433465Y-60994990D01*
X147433465Y-60994990D02*
X147385846Y-60947371D01*
X147385846Y-60947371D02*
X147338227Y-60852133D01*
X147338227Y-60852133D02*
X147338227Y-60756895D01*
X147338227Y-60756895D02*
X147385846Y-60661657D01*
X147385846Y-60661657D02*
X147433465Y-60614038D01*
X147433465Y-60614038D02*
X147528703Y-60566419D01*
X147528703Y-60566419D02*
X147766798Y-60566419D01*
X147766798Y-60566419D02*
X147909655Y-60614038D01*
X148242989Y-60566419D02*
X148481084Y-61566419D01*
X148481084Y-61566419D02*
X148671560Y-60852133D01*
X148671560Y-60852133D02*
X148862036Y-61566419D01*
X148862036Y-61566419D02*
X149100132Y-60566419D01*
X149385846Y-60566419D02*
X150004893Y-60566419D01*
X150004893Y-60566419D02*
X149671560Y-60947371D01*
X149671560Y-60947371D02*
X149814417Y-60947371D01*
X149814417Y-60947371D02*
X149909655Y-60994990D01*
X149909655Y-60994990D02*
X149957274Y-61042609D01*
X149957274Y-61042609D02*
X150004893Y-61137847D01*
X150004893Y-61137847D02*
X150004893Y-61375942D01*
X150004893Y-61375942D02*
X149957274Y-61471180D01*
X149957274Y-61471180D02*
X149909655Y-61518800D01*
X149909655Y-61518800D02*
X149814417Y-61566419D01*
X149814417Y-61566419D02*
X149528703Y-61566419D01*
X149528703Y-61566419D02*
X149433465Y-61518800D01*
X149433465Y-61518800D02*
X149385846Y-61471180D01*
X144298693Y-61518800D02*
X144441550Y-61566419D01*
X144441550Y-61566419D02*
X144679645Y-61566419D01*
X144679645Y-61566419D02*
X144774883Y-61518800D01*
X144774883Y-61518800D02*
X144822502Y-61471180D01*
X144822502Y-61471180D02*
X144870121Y-61375942D01*
X144870121Y-61375942D02*
X144870121Y-61280704D01*
X144870121Y-61280704D02*
X144822502Y-61185466D01*
X144822502Y-61185466D02*
X144774883Y-61137847D01*
X144774883Y-61137847D02*
X144679645Y-61090228D01*
X144679645Y-61090228D02*
X144489169Y-61042609D01*
X144489169Y-61042609D02*
X144393931Y-60994990D01*
X144393931Y-60994990D02*
X144346312Y-60947371D01*
X144346312Y-60947371D02*
X144298693Y-60852133D01*
X144298693Y-60852133D02*
X144298693Y-60756895D01*
X144298693Y-60756895D02*
X144346312Y-60661657D01*
X144346312Y-60661657D02*
X144393931Y-60614038D01*
X144393931Y-60614038D02*
X144489169Y-60566419D01*
X144489169Y-60566419D02*
X144727264Y-60566419D01*
X144727264Y-60566419D02*
X144870121Y-60614038D01*
X145203455Y-60566419D02*
X145441550Y-61566419D01*
X145441550Y-61566419D02*
X145632026Y-60852133D01*
X145632026Y-60852133D02*
X145822502Y-61566419D01*
X145822502Y-61566419D02*
X146060598Y-60566419D01*
X146393931Y-60661657D02*
X146441550Y-60614038D01*
X146441550Y-60614038D02*
X146536788Y-60566419D01*
X146536788Y-60566419D02*
X146774883Y-60566419D01*
X146774883Y-60566419D02*
X146870121Y-60614038D01*
X146870121Y-60614038D02*
X146917740Y-60661657D01*
X146917740Y-60661657D02*
X146965359Y-60756895D01*
X146965359Y-60756895D02*
X146965359Y-60852133D01*
X146965359Y-60852133D02*
X146917740Y-60994990D01*
X146917740Y-60994990D02*
X146346312Y-61566419D01*
X146346312Y-61566419D02*
X146965359Y-61566419D01*
X141259160Y-61518800D02*
X141402017Y-61566419D01*
X141402017Y-61566419D02*
X141640112Y-61566419D01*
X141640112Y-61566419D02*
X141735350Y-61518800D01*
X141735350Y-61518800D02*
X141782969Y-61471180D01*
X141782969Y-61471180D02*
X141830588Y-61375942D01*
X141830588Y-61375942D02*
X141830588Y-61280704D01*
X141830588Y-61280704D02*
X141782969Y-61185466D01*
X141782969Y-61185466D02*
X141735350Y-61137847D01*
X141735350Y-61137847D02*
X141640112Y-61090228D01*
X141640112Y-61090228D02*
X141449636Y-61042609D01*
X141449636Y-61042609D02*
X141354398Y-60994990D01*
X141354398Y-60994990D02*
X141306779Y-60947371D01*
X141306779Y-60947371D02*
X141259160Y-60852133D01*
X141259160Y-60852133D02*
X141259160Y-60756895D01*
X141259160Y-60756895D02*
X141306779Y-60661657D01*
X141306779Y-60661657D02*
X141354398Y-60614038D01*
X141354398Y-60614038D02*
X141449636Y-60566419D01*
X141449636Y-60566419D02*
X141687731Y-60566419D01*
X141687731Y-60566419D02*
X141830588Y-60614038D01*
X142163922Y-60566419D02*
X142402017Y-61566419D01*
X142402017Y-61566419D02*
X142592493Y-60852133D01*
X142592493Y-60852133D02*
X142782969Y-61566419D01*
X142782969Y-61566419D02*
X143021065Y-60566419D01*
X143830588Y-60566419D02*
X143640112Y-60566419D01*
X143640112Y-60566419D02*
X143544874Y-60614038D01*
X143544874Y-60614038D02*
X143497255Y-60661657D01*
X143497255Y-60661657D02*
X143402017Y-60804514D01*
X143402017Y-60804514D02*
X143354398Y-60994990D01*
X143354398Y-60994990D02*
X143354398Y-61375942D01*
X143354398Y-61375942D02*
X143402017Y-61471180D01*
X143402017Y-61471180D02*
X143449636Y-61518800D01*
X143449636Y-61518800D02*
X143544874Y-61566419D01*
X143544874Y-61566419D02*
X143735350Y-61566419D01*
X143735350Y-61566419D02*
X143830588Y-61518800D01*
X143830588Y-61518800D02*
X143878207Y-61471180D01*
X143878207Y-61471180D02*
X143925826Y-61375942D01*
X143925826Y-61375942D02*
X143925826Y-61137847D01*
X143925826Y-61137847D02*
X143878207Y-61042609D01*
X143878207Y-61042609D02*
X143830588Y-60994990D01*
X143830588Y-60994990D02*
X143735350Y-60947371D01*
X143735350Y-60947371D02*
X143544874Y-60947371D01*
X143544874Y-60947371D02*
X143449636Y-60994990D01*
X143449636Y-60994990D02*
X143402017Y-61042609D01*
X143402017Y-61042609D02*
X143354398Y-61137847D01*
X163182467Y-110694000D02*
X163325324Y-110741619D01*
X163325324Y-110741619D02*
X163563419Y-110741619D01*
X163563419Y-110741619D02*
X163658657Y-110694000D01*
X163658657Y-110694000D02*
X163706276Y-110646380D01*
X163706276Y-110646380D02*
X163753895Y-110551142D01*
X163753895Y-110551142D02*
X163753895Y-110455904D01*
X163753895Y-110455904D02*
X163706276Y-110360666D01*
X163706276Y-110360666D02*
X163658657Y-110313047D01*
X163658657Y-110313047D02*
X163563419Y-110265428D01*
X163563419Y-110265428D02*
X163372943Y-110217809D01*
X163372943Y-110217809D02*
X163277705Y-110170190D01*
X163277705Y-110170190D02*
X163230086Y-110122571D01*
X163230086Y-110122571D02*
X163182467Y-110027333D01*
X163182467Y-110027333D02*
X163182467Y-109932095D01*
X163182467Y-109932095D02*
X163230086Y-109836857D01*
X163230086Y-109836857D02*
X163277705Y-109789238D01*
X163277705Y-109789238D02*
X163372943Y-109741619D01*
X163372943Y-109741619D02*
X163611038Y-109741619D01*
X163611038Y-109741619D02*
X163753895Y-109789238D01*
X164087229Y-109741619D02*
X164325324Y-110741619D01*
X164325324Y-110741619D02*
X164515800Y-110027333D01*
X164515800Y-110027333D02*
X164706276Y-110741619D01*
X164706276Y-110741619D02*
X164944372Y-109741619D01*
X165753895Y-109741619D02*
X165563419Y-109741619D01*
X165563419Y-109741619D02*
X165468181Y-109789238D01*
X165468181Y-109789238D02*
X165420562Y-109836857D01*
X165420562Y-109836857D02*
X165325324Y-109979714D01*
X165325324Y-109979714D02*
X165277705Y-110170190D01*
X165277705Y-110170190D02*
X165277705Y-110551142D01*
X165277705Y-110551142D02*
X165325324Y-110646380D01*
X165325324Y-110646380D02*
X165372943Y-110694000D01*
X165372943Y-110694000D02*
X165468181Y-110741619D01*
X165468181Y-110741619D02*
X165658657Y-110741619D01*
X165658657Y-110741619D02*
X165753895Y-110694000D01*
X165753895Y-110694000D02*
X165801514Y-110646380D01*
X165801514Y-110646380D02*
X165849133Y-110551142D01*
X165849133Y-110551142D02*
X165849133Y-110313047D01*
X165849133Y-110313047D02*
X165801514Y-110217809D01*
X165801514Y-110217809D02*
X165753895Y-110170190D01*
X165753895Y-110170190D02*
X165658657Y-110122571D01*
X165658657Y-110122571D02*
X165468181Y-110122571D01*
X165468181Y-110122571D02*
X165372943Y-110170190D01*
X165372943Y-110170190D02*
X165325324Y-110217809D01*
X165325324Y-110217809D02*
X165277705Y-110313047D01*
X163182467Y-91644000D02*
X163325324Y-91691619D01*
X163325324Y-91691619D02*
X163563419Y-91691619D01*
X163563419Y-91691619D02*
X163658657Y-91644000D01*
X163658657Y-91644000D02*
X163706276Y-91596380D01*
X163706276Y-91596380D02*
X163753895Y-91501142D01*
X163753895Y-91501142D02*
X163753895Y-91405904D01*
X163753895Y-91405904D02*
X163706276Y-91310666D01*
X163706276Y-91310666D02*
X163658657Y-91263047D01*
X163658657Y-91263047D02*
X163563419Y-91215428D01*
X163563419Y-91215428D02*
X163372943Y-91167809D01*
X163372943Y-91167809D02*
X163277705Y-91120190D01*
X163277705Y-91120190D02*
X163230086Y-91072571D01*
X163230086Y-91072571D02*
X163182467Y-90977333D01*
X163182467Y-90977333D02*
X163182467Y-90882095D01*
X163182467Y-90882095D02*
X163230086Y-90786857D01*
X163230086Y-90786857D02*
X163277705Y-90739238D01*
X163277705Y-90739238D02*
X163372943Y-90691619D01*
X163372943Y-90691619D02*
X163611038Y-90691619D01*
X163611038Y-90691619D02*
X163753895Y-90739238D01*
X164087229Y-90691619D02*
X164325324Y-91691619D01*
X164325324Y-91691619D02*
X164515800Y-90977333D01*
X164515800Y-90977333D02*
X164706276Y-91691619D01*
X164706276Y-91691619D02*
X164944372Y-90691619D01*
X165230086Y-90691619D02*
X165849133Y-90691619D01*
X165849133Y-90691619D02*
X165515800Y-91072571D01*
X165515800Y-91072571D02*
X165658657Y-91072571D01*
X165658657Y-91072571D02*
X165753895Y-91120190D01*
X165753895Y-91120190D02*
X165801514Y-91167809D01*
X165801514Y-91167809D02*
X165849133Y-91263047D01*
X165849133Y-91263047D02*
X165849133Y-91501142D01*
X165849133Y-91501142D02*
X165801514Y-91596380D01*
X165801514Y-91596380D02*
X165753895Y-91644000D01*
X165753895Y-91644000D02*
X165658657Y-91691619D01*
X165658657Y-91691619D02*
X165372943Y-91691619D01*
X165372943Y-91691619D02*
X165277705Y-91644000D01*
X165277705Y-91644000D02*
X165230086Y-91596380D01*
X125082467Y-110694000D02*
X125225324Y-110741619D01*
X125225324Y-110741619D02*
X125463419Y-110741619D01*
X125463419Y-110741619D02*
X125558657Y-110694000D01*
X125558657Y-110694000D02*
X125606276Y-110646380D01*
X125606276Y-110646380D02*
X125653895Y-110551142D01*
X125653895Y-110551142D02*
X125653895Y-110455904D01*
X125653895Y-110455904D02*
X125606276Y-110360666D01*
X125606276Y-110360666D02*
X125558657Y-110313047D01*
X125558657Y-110313047D02*
X125463419Y-110265428D01*
X125463419Y-110265428D02*
X125272943Y-110217809D01*
X125272943Y-110217809D02*
X125177705Y-110170190D01*
X125177705Y-110170190D02*
X125130086Y-110122571D01*
X125130086Y-110122571D02*
X125082467Y-110027333D01*
X125082467Y-110027333D02*
X125082467Y-109932095D01*
X125082467Y-109932095D02*
X125130086Y-109836857D01*
X125130086Y-109836857D02*
X125177705Y-109789238D01*
X125177705Y-109789238D02*
X125272943Y-109741619D01*
X125272943Y-109741619D02*
X125511038Y-109741619D01*
X125511038Y-109741619D02*
X125653895Y-109789238D01*
X125987229Y-109741619D02*
X126225324Y-110741619D01*
X126225324Y-110741619D02*
X126415800Y-110027333D01*
X126415800Y-110027333D02*
X126606276Y-110741619D01*
X126606276Y-110741619D02*
X126844372Y-109741619D01*
X127653895Y-110074952D02*
X127653895Y-110741619D01*
X127415800Y-109694000D02*
X127177705Y-110408285D01*
X127177705Y-110408285D02*
X127796752Y-110408285D01*
X125082467Y-91644000D02*
X125225324Y-91691619D01*
X125225324Y-91691619D02*
X125463419Y-91691619D01*
X125463419Y-91691619D02*
X125558657Y-91644000D01*
X125558657Y-91644000D02*
X125606276Y-91596380D01*
X125606276Y-91596380D02*
X125653895Y-91501142D01*
X125653895Y-91501142D02*
X125653895Y-91405904D01*
X125653895Y-91405904D02*
X125606276Y-91310666D01*
X125606276Y-91310666D02*
X125558657Y-91263047D01*
X125558657Y-91263047D02*
X125463419Y-91215428D01*
X125463419Y-91215428D02*
X125272943Y-91167809D01*
X125272943Y-91167809D02*
X125177705Y-91120190D01*
X125177705Y-91120190D02*
X125130086Y-91072571D01*
X125130086Y-91072571D02*
X125082467Y-90977333D01*
X125082467Y-90977333D02*
X125082467Y-90882095D01*
X125082467Y-90882095D02*
X125130086Y-90786857D01*
X125130086Y-90786857D02*
X125177705Y-90739238D01*
X125177705Y-90739238D02*
X125272943Y-90691619D01*
X125272943Y-90691619D02*
X125511038Y-90691619D01*
X125511038Y-90691619D02*
X125653895Y-90739238D01*
X125987229Y-90691619D02*
X126225324Y-91691619D01*
X126225324Y-91691619D02*
X126415800Y-90977333D01*
X126415800Y-90977333D02*
X126606276Y-91691619D01*
X126606276Y-91691619D02*
X126844372Y-90691619D01*
X127749133Y-91691619D02*
X127177705Y-91691619D01*
X127463419Y-91691619D02*
X127463419Y-90691619D01*
X127463419Y-90691619D02*
X127368181Y-90834476D01*
X127368181Y-90834476D02*
X127272943Y-90929714D01*
X127272943Y-90929714D02*
X127177705Y-90977333D01*
X144132467Y-91644000D02*
X144275324Y-91691619D01*
X144275324Y-91691619D02*
X144513419Y-91691619D01*
X144513419Y-91691619D02*
X144608657Y-91644000D01*
X144608657Y-91644000D02*
X144656276Y-91596380D01*
X144656276Y-91596380D02*
X144703895Y-91501142D01*
X144703895Y-91501142D02*
X144703895Y-91405904D01*
X144703895Y-91405904D02*
X144656276Y-91310666D01*
X144656276Y-91310666D02*
X144608657Y-91263047D01*
X144608657Y-91263047D02*
X144513419Y-91215428D01*
X144513419Y-91215428D02*
X144322943Y-91167809D01*
X144322943Y-91167809D02*
X144227705Y-91120190D01*
X144227705Y-91120190D02*
X144180086Y-91072571D01*
X144180086Y-91072571D02*
X144132467Y-90977333D01*
X144132467Y-90977333D02*
X144132467Y-90882095D01*
X144132467Y-90882095D02*
X144180086Y-90786857D01*
X144180086Y-90786857D02*
X144227705Y-90739238D01*
X144227705Y-90739238D02*
X144322943Y-90691619D01*
X144322943Y-90691619D02*
X144561038Y-90691619D01*
X144561038Y-90691619D02*
X144703895Y-90739238D01*
X145037229Y-90691619D02*
X145275324Y-91691619D01*
X145275324Y-91691619D02*
X145465800Y-90977333D01*
X145465800Y-90977333D02*
X145656276Y-91691619D01*
X145656276Y-91691619D02*
X145894372Y-90691619D01*
X146227705Y-90786857D02*
X146275324Y-90739238D01*
X146275324Y-90739238D02*
X146370562Y-90691619D01*
X146370562Y-90691619D02*
X146608657Y-90691619D01*
X146608657Y-90691619D02*
X146703895Y-90739238D01*
X146703895Y-90739238D02*
X146751514Y-90786857D01*
X146751514Y-90786857D02*
X146799133Y-90882095D01*
X146799133Y-90882095D02*
X146799133Y-90977333D01*
X146799133Y-90977333D02*
X146751514Y-91120190D01*
X146751514Y-91120190D02*
X146180086Y-91691619D01*
X146180086Y-91691619D02*
X146799133Y-91691619D01*
X144132467Y-110694000D02*
X144275324Y-110741619D01*
X144275324Y-110741619D02*
X144513419Y-110741619D01*
X144513419Y-110741619D02*
X144608657Y-110694000D01*
X144608657Y-110694000D02*
X144656276Y-110646380D01*
X144656276Y-110646380D02*
X144703895Y-110551142D01*
X144703895Y-110551142D02*
X144703895Y-110455904D01*
X144703895Y-110455904D02*
X144656276Y-110360666D01*
X144656276Y-110360666D02*
X144608657Y-110313047D01*
X144608657Y-110313047D02*
X144513419Y-110265428D01*
X144513419Y-110265428D02*
X144322943Y-110217809D01*
X144322943Y-110217809D02*
X144227705Y-110170190D01*
X144227705Y-110170190D02*
X144180086Y-110122571D01*
X144180086Y-110122571D02*
X144132467Y-110027333D01*
X144132467Y-110027333D02*
X144132467Y-109932095D01*
X144132467Y-109932095D02*
X144180086Y-109836857D01*
X144180086Y-109836857D02*
X144227705Y-109789238D01*
X144227705Y-109789238D02*
X144322943Y-109741619D01*
X144322943Y-109741619D02*
X144561038Y-109741619D01*
X144561038Y-109741619D02*
X144703895Y-109789238D01*
X145037229Y-109741619D02*
X145275324Y-110741619D01*
X145275324Y-110741619D02*
X145465800Y-110027333D01*
X145465800Y-110027333D02*
X145656276Y-110741619D01*
X145656276Y-110741619D02*
X145894372Y-109741619D01*
X146751514Y-109741619D02*
X146275324Y-109741619D01*
X146275324Y-109741619D02*
X146227705Y-110217809D01*
X146227705Y-110217809D02*
X146275324Y-110170190D01*
X146275324Y-110170190D02*
X146370562Y-110122571D01*
X146370562Y-110122571D02*
X146608657Y-110122571D01*
X146608657Y-110122571D02*
X146703895Y-110170190D01*
X146703895Y-110170190D02*
X146751514Y-110217809D01*
X146751514Y-110217809D02*
X146799133Y-110313047D01*
X146799133Y-110313047D02*
X146799133Y-110551142D01*
X146799133Y-110551142D02*
X146751514Y-110646380D01*
X146751514Y-110646380D02*
X146703895Y-110694000D01*
X146703895Y-110694000D02*
X146608657Y-110741619D01*
X146608657Y-110741619D02*
X146370562Y-110741619D01*
X146370562Y-110741619D02*
X146275324Y-110694000D01*
X146275324Y-110694000D02*
X146227705Y-110646380D01*
D11*
%TO.C,G\u002A\u002A\u002A*%
G36*
X163243617Y-67013885D02*
G01*
X163285924Y-67028046D01*
X163438507Y-67107916D01*
X163589491Y-67217705D01*
X163712531Y-67336161D01*
X163771662Y-67419922D01*
X163813280Y-67543850D01*
X163842231Y-67708690D01*
X163854986Y-67880207D01*
X163848017Y-68024166D01*
X163838433Y-68067943D01*
X163720008Y-68323028D01*
X163543303Y-68527440D01*
X163315890Y-68675939D01*
X163045338Y-68763284D01*
X162801907Y-68785607D01*
X162546790Y-68751161D01*
X162309420Y-68654689D01*
X162111150Y-68506490D01*
X162031890Y-68414203D01*
X161964527Y-68308330D01*
X161929290Y-68206982D01*
X161916531Y-68075741D01*
X161915554Y-67999170D01*
X161949961Y-67713795D01*
X162050824Y-67470784D01*
X162214597Y-67273766D01*
X162437740Y-67126369D01*
X162716709Y-67032223D01*
X162886008Y-67005154D01*
X163093103Y-66994246D01*
X163243617Y-67013885D01*
G37*
G36*
X163091814Y-66234286D02*
G01*
X163288457Y-66267635D01*
X163440614Y-66323443D01*
X163470796Y-66342220D01*
X163621596Y-66473236D01*
X163775888Y-66646401D01*
X163914809Y-66836866D01*
X164019494Y-67019780D01*
X164058142Y-67115941D01*
X164101082Y-67305991D01*
X164129014Y-67537532D01*
X164141200Y-67784800D01*
X164136905Y-68022031D01*
X164115391Y-68223461D01*
X164092579Y-68320648D01*
X163962020Y-68631502D01*
X163787421Y-68878812D01*
X163563575Y-69068974D01*
X163415554Y-69152509D01*
X163277586Y-69214888D01*
X163168797Y-69246578D01*
X163063076Y-69253266D01*
X163052983Y-69253904D01*
X162895554Y-69243336D01*
X162723662Y-69219075D01*
X162557230Y-69181580D01*
X162448527Y-69145258D01*
X162218236Y-69006595D01*
X162006042Y-68805024D01*
X161828545Y-68557625D01*
X161769572Y-68446736D01*
X161698637Y-68288562D01*
X161658155Y-68159548D01*
X161639998Y-68023170D01*
X161637921Y-67930870D01*
X161760600Y-67930870D01*
X161767132Y-68064473D01*
X161790909Y-68174004D01*
X161828019Y-68271068D01*
X161959586Y-68532323D01*
X162103875Y-68731967D01*
X162274998Y-68888377D01*
X162333917Y-68929776D01*
X162453448Y-69003882D01*
X162556949Y-69049668D01*
X162673922Y-69075978D01*
X162833871Y-69091658D01*
X162885070Y-69095018D01*
X163063076Y-69102762D01*
X163187688Y-69097208D01*
X163284877Y-69075112D01*
X163380614Y-69033229D01*
X163380913Y-69033077D01*
X163603446Y-68876256D01*
X163783843Y-68660749D01*
X163917955Y-68398274D01*
X164001631Y-68100550D01*
X164030723Y-67779296D01*
X164001081Y-67446232D01*
X163979399Y-67342760D01*
X163909858Y-67105337D01*
X163819311Y-66914580D01*
X163689800Y-66737212D01*
X163597930Y-66635903D01*
X163430156Y-66486608D01*
X163256916Y-66395120D01*
X163055806Y-66353436D01*
X162807011Y-66353387D01*
X162633357Y-66374621D01*
X162499678Y-66420403D01*
X162387636Y-66488468D01*
X162147963Y-66704968D01*
X161964801Y-66976622D01*
X161839545Y-67300593D01*
X161773594Y-67674048D01*
X161768171Y-67745607D01*
X161760600Y-67930870D01*
X161637921Y-67930870D01*
X161636028Y-67846736D01*
X161665297Y-67486133D01*
X161748389Y-67151993D01*
X161879872Y-66854214D01*
X162054315Y-66602693D01*
X162266288Y-66407327D01*
X162493389Y-66284308D01*
X162668439Y-66241092D01*
X162876528Y-66224928D01*
X163091814Y-66234286D01*
G37*
G36*
X166248937Y-60613871D02*
G01*
X166255119Y-60679736D01*
X166220669Y-60739954D01*
X166155239Y-60837921D01*
X166075578Y-60996698D01*
X165988113Y-61199807D01*
X165899272Y-61430771D01*
X165815481Y-61673113D01*
X165743167Y-61910356D01*
X165700974Y-62072307D01*
X165691666Y-62135118D01*
X165713009Y-62173051D01*
X165782068Y-62200160D01*
X165885084Y-62223915D01*
X166025083Y-62246175D01*
X166098480Y-62239351D01*
X166107652Y-62229312D01*
X166154882Y-62134624D01*
X166237214Y-62013667D01*
X166342845Y-61879391D01*
X166459975Y-61744745D01*
X166576800Y-61622681D01*
X166681518Y-61526149D01*
X166762329Y-61468100D01*
X166807407Y-61461461D01*
X166807449Y-61512584D01*
X166747923Y-61609049D01*
X166651860Y-61725778D01*
X166461132Y-61949154D01*
X166328233Y-62118976D01*
X166253419Y-62234898D01*
X166235554Y-62287754D01*
X166267481Y-62334886D01*
X166349273Y-62401036D01*
X166416461Y-62444025D01*
X166580371Y-62555389D01*
X166752638Y-62697714D01*
X166916218Y-62854189D01*
X167054064Y-63007999D01*
X167149131Y-63142332D01*
X167172571Y-63189817D01*
X167212389Y-63324619D01*
X167229482Y-63454810D01*
X167228990Y-63480279D01*
X167233786Y-63558980D01*
X167268319Y-63632877D01*
X167345054Y-63722221D01*
X167426320Y-63800841D01*
X167555361Y-63933428D01*
X167679542Y-64080396D01*
X167754900Y-64184589D01*
X167838166Y-64300906D01*
X167913614Y-64364688D01*
X168007070Y-64395982D01*
X168033193Y-64400590D01*
X168169239Y-64432728D01*
X168292629Y-64477767D01*
X168302202Y-64482403D01*
X168390752Y-64511426D01*
X168535051Y-64542421D01*
X168711129Y-64570653D01*
X168812811Y-64583285D01*
X169090068Y-64625539D01*
X169317436Y-64690966D01*
X169507364Y-64789265D01*
X169672299Y-64930136D01*
X169824690Y-65123276D01*
X169976985Y-65378385D01*
X170073739Y-65565722D01*
X170183553Y-65776953D01*
X170277314Y-65925020D01*
X170368975Y-66020921D01*
X170472488Y-66075651D01*
X170601805Y-66100209D01*
X170758698Y-66105607D01*
X170926093Y-66096609D01*
X171061709Y-66061578D01*
X171210475Y-65988464D01*
X171223907Y-65980828D01*
X171451319Y-65886573D01*
X171666155Y-65871301D01*
X171868599Y-65935022D01*
X171987128Y-66013521D01*
X172130025Y-66150401D01*
X172202843Y-66281863D01*
X172212561Y-66424001D01*
X172197411Y-66498710D01*
X172134362Y-66675491D01*
X172043067Y-66815800D01*
X171908500Y-66935461D01*
X171715638Y-67050303D01*
X171635842Y-67090226D01*
X171416754Y-67208065D01*
X171275619Y-67311564D01*
X171226053Y-67370226D01*
X171174779Y-67492880D01*
X171156531Y-67621263D01*
X171169668Y-67733535D01*
X171212550Y-67807855D01*
X171260264Y-67825607D01*
X171318307Y-67807800D01*
X171427976Y-67759977D01*
X171570723Y-67690540D01*
X171657699Y-67645607D01*
X171936722Y-67521629D01*
X172174304Y-67465839D01*
X172370336Y-67478240D01*
X172524708Y-67558836D01*
X172584281Y-67622141D01*
X172625235Y-67730338D01*
X172631404Y-67884884D01*
X172604519Y-68060947D01*
X172546309Y-68233697D01*
X172540832Y-68245607D01*
X172473354Y-68372040D01*
X172403854Y-68475956D01*
X172369759Y-68514082D01*
X172253580Y-68591540D01*
X172104848Y-68658651D01*
X171961697Y-68699731D01*
X171904098Y-68705607D01*
X171812975Y-68716873D01*
X171681719Y-68745729D01*
X171595254Y-68769402D01*
X171502509Y-68801912D01*
X171415623Y-68846737D01*
X171321354Y-68913991D01*
X171206460Y-69013786D01*
X171057701Y-69156236D01*
X170953673Y-69259402D01*
X170766142Y-69452889D01*
X170565269Y-69670414D01*
X170374328Y-69886200D01*
X170216593Y-70074472D01*
X170207673Y-70085607D01*
X169967690Y-70374488D01*
X169753373Y-70603576D01*
X169551744Y-70783124D01*
X169349826Y-70923387D01*
X169134639Y-71034617D01*
X168893205Y-71127069D01*
X168886745Y-71129221D01*
X168762314Y-71172039D01*
X168592050Y-71232599D01*
X168405012Y-71300514D01*
X168325705Y-71329748D01*
X168045895Y-71423711D01*
X167806363Y-71477870D01*
X167674716Y-71487450D01*
X167579284Y-71494394D01*
X167336832Y-71475455D01*
X167071535Y-71427570D01*
X166678757Y-71338426D01*
X166309732Y-71241054D01*
X165936375Y-71127241D01*
X165530601Y-70988775D01*
X165358184Y-70926568D01*
X165096706Y-70836166D01*
X164838054Y-70755970D01*
X164594759Y-70688998D01*
X164379356Y-70638266D01*
X164204375Y-70606791D01*
X164082350Y-70597589D01*
X164032515Y-70607485D01*
X163984320Y-70613558D01*
X163864822Y-70619721D01*
X163682718Y-70625773D01*
X163446705Y-70631514D01*
X163165479Y-70636744D01*
X162847738Y-70641262D01*
X162502178Y-70644867D01*
X162362441Y-70645978D01*
X161863429Y-70647313D01*
X161724492Y-70646449D01*
X161373408Y-70644264D01*
X160900318Y-70637145D01*
X160452101Y-70626274D01*
X160036698Y-70611967D01*
X159662049Y-70594538D01*
X159336096Y-70574306D01*
X159066780Y-70551585D01*
X158862042Y-70526692D01*
X158735554Y-70501592D01*
X158455979Y-70395157D01*
X158244606Y-70252406D01*
X158103147Y-70075104D01*
X158033316Y-69865016D01*
X158025796Y-69770454D01*
X158037378Y-69669400D01*
X158157101Y-69669400D01*
X158159578Y-69850918D01*
X158231275Y-70020836D01*
X158366958Y-70169830D01*
X158561391Y-70288574D01*
X158710535Y-70343318D01*
X158914193Y-70387658D01*
X159196044Y-70425318D01*
X159554553Y-70456226D01*
X159988186Y-70480314D01*
X160495410Y-70497509D01*
X161074690Y-70507742D01*
X161724492Y-70510942D01*
X162295048Y-70508382D01*
X162712252Y-70505238D01*
X163058445Y-70502357D01*
X163342602Y-70498367D01*
X163573695Y-70491896D01*
X163760698Y-70481572D01*
X163763648Y-70481270D01*
X164341807Y-70481270D01*
X164618680Y-70550130D01*
X164760133Y-70589667D01*
X164953449Y-70649682D01*
X165175526Y-70722724D01*
X165403259Y-70801343D01*
X165455554Y-70819985D01*
X166041951Y-71018783D01*
X166571445Y-71173381D01*
X167052232Y-71286074D01*
X167255554Y-71323840D01*
X167440526Y-71353971D01*
X167571878Y-71369487D01*
X167674716Y-71369995D01*
X167774146Y-71355103D01*
X167895273Y-71324417D01*
X167935554Y-71313206D01*
X168106727Y-71261551D01*
X168315014Y-71193098D01*
X168541436Y-71114700D01*
X168767014Y-71033208D01*
X168972770Y-70955476D01*
X169139727Y-70888355D01*
X169246982Y-70839698D01*
X169373306Y-70755070D01*
X169533478Y-70618420D01*
X169714524Y-70442592D01*
X169903466Y-70240428D01*
X170087330Y-70024771D01*
X170150322Y-69945607D01*
X170310014Y-69750494D01*
X170492260Y-69543729D01*
X170685638Y-69336755D01*
X170878728Y-69141013D01*
X171060109Y-68967945D01*
X171218359Y-68828994D01*
X171342057Y-68735599D01*
X171381043Y-68712669D01*
X171510985Y-68661208D01*
X171679469Y-68613382D01*
X171816836Y-68585403D01*
X171992485Y-68553875D01*
X172112080Y-68520186D01*
X172199175Y-68474298D01*
X172277329Y-68406176D01*
X172304800Y-68377504D01*
X172391533Y-68254552D01*
X172457935Y-68103876D01*
X172499151Y-67947043D01*
X172510326Y-67805623D01*
X172486604Y-67701183D01*
X172463569Y-67672260D01*
X172391938Y-67638362D01*
X172280539Y-67609112D01*
X172253569Y-67604409D01*
X172169195Y-67597874D01*
X172082695Y-67610201D01*
X171974811Y-67647195D01*
X171826286Y-67714664D01*
X171728733Y-67762654D01*
X171491747Y-67871535D01*
X171311809Y-67930414D01*
X171182573Y-67938083D01*
X171097690Y-67893336D01*
X171050814Y-67794965D01*
X171035598Y-67641765D01*
X171035554Y-67630841D01*
X171067741Y-67407281D01*
X171165550Y-67227499D01*
X171330855Y-67089096D01*
X171526338Y-67002026D01*
X171749252Y-66897856D01*
X171921419Y-66755271D01*
X172033323Y-66584918D01*
X172075449Y-66397441D01*
X172075554Y-66387594D01*
X172036993Y-66246957D01*
X171924624Y-66125928D01*
X171773332Y-66042102D01*
X171611175Y-65993224D01*
X171472490Y-66002926D01*
X171326061Y-66074701D01*
X171294839Y-66095607D01*
X171213700Y-66147204D01*
X171137182Y-66179580D01*
X171043342Y-66197155D01*
X170910234Y-66204351D01*
X170748776Y-66205607D01*
X170566622Y-66203996D01*
X170444969Y-66196534D01*
X170364344Y-66179280D01*
X170305270Y-66148292D01*
X170254652Y-66105607D01*
X170191797Y-66028076D01*
X170107634Y-65898472D01*
X170014795Y-65737167D01*
X169952208Y-65617887D01*
X169792268Y-65324857D01*
X169637896Y-65101111D01*
X169478107Y-64937666D01*
X169301911Y-64825538D01*
X169098321Y-64755743D01*
X168856351Y-64719298D01*
X168852817Y-64718997D01*
X168536958Y-64692297D01*
X168606626Y-64788952D01*
X168681271Y-64909999D01*
X168756543Y-65059981D01*
X168821268Y-65213034D01*
X168864272Y-65343295D01*
X168875554Y-65411442D01*
X168911575Y-65508328D01*
X168973353Y-65551883D01*
X169065233Y-65620097D01*
X169102657Y-65701871D01*
X169085913Y-65775838D01*
X169015286Y-65820632D01*
X168969672Y-65825607D01*
X168871253Y-65859252D01*
X168751576Y-65953359D01*
X168723951Y-65981211D01*
X168538148Y-66131819D01*
X168342126Y-66203506D01*
X168239987Y-66200306D01*
X168133503Y-66196970D01*
X168056202Y-66176046D01*
X167871794Y-66115336D01*
X167749396Y-66357806D01*
X167693992Y-66471295D01*
X167659768Y-66561458D01*
X167643238Y-66651944D01*
X167640914Y-66766404D01*
X167649309Y-66928487D01*
X167654277Y-67002942D01*
X167665485Y-67216266D01*
X167660989Y-67377873D01*
X167633879Y-67512290D01*
X167577248Y-67644047D01*
X167484188Y-67797674D01*
X167392198Y-67933495D01*
X167333883Y-68018065D01*
X167193686Y-68221383D01*
X167433922Y-68500509D01*
X167566208Y-68644989D01*
X167705424Y-68782238D01*
X167826714Y-68888109D01*
X167854856Y-68909402D01*
X167954676Y-68990005D01*
X168020301Y-69060095D01*
X168035554Y-69092388D01*
X168011559Y-69140036D01*
X167942920Y-69128697D01*
X167834656Y-69062105D01*
X167691785Y-68943992D01*
X167519324Y-68778090D01*
X167322292Y-68568134D01*
X167305301Y-68549191D01*
X167115049Y-68336394D01*
X166825301Y-68610946D01*
X166679386Y-68755603D01*
X166589523Y-68861746D01*
X166548099Y-68939308D01*
X166543494Y-68978548D01*
X166562717Y-69047407D01*
X166610038Y-69172536D01*
X166679005Y-69338049D01*
X166763167Y-69528061D01*
X166793494Y-69594121D01*
X166879852Y-69782819D01*
X166952605Y-69946136D01*
X167005710Y-70070169D01*
X167033127Y-70141016D01*
X167035554Y-70151126D01*
X167003539Y-70182646D01*
X166981810Y-70185607D01*
X166946299Y-70151067D01*
X166885789Y-70056160D01*
X166807014Y-69913958D01*
X166716706Y-69737532D01*
X166621596Y-69539956D01*
X166528417Y-69334299D01*
X166458346Y-69169223D01*
X166394301Y-69012839D01*
X166304927Y-69094544D01*
X166146691Y-69208224D01*
X165973869Y-69283231D01*
X165839462Y-69305607D01*
X165753438Y-69320543D01*
X165678382Y-69376464D01*
X165600877Y-69475607D01*
X165405424Y-69712275D01*
X165155083Y-69948680D01*
X164872511Y-70164883D01*
X164678680Y-70287218D01*
X164341807Y-70481270D01*
X163763648Y-70481270D01*
X163912583Y-70466024D01*
X164038324Y-70443879D01*
X164146894Y-70413764D01*
X164247266Y-70374310D01*
X164348414Y-70324142D01*
X164459310Y-70261890D01*
X164588928Y-70186181D01*
X164655554Y-70147473D01*
X164910193Y-69990026D01*
X165110396Y-69838496D01*
X165277588Y-69673407D01*
X165433196Y-69475280D01*
X165496732Y-69382810D01*
X165593377Y-69250786D01*
X165687935Y-69142886D01*
X165762149Y-69079612D01*
X165770875Y-69075017D01*
X165854050Y-69014261D01*
X165953733Y-68909793D01*
X166053500Y-68783388D01*
X166136929Y-68656817D01*
X166187596Y-68551855D01*
X166195554Y-68511973D01*
X166187097Y-68461362D01*
X166148629Y-68435472D01*
X166060500Y-68426185D01*
X165985554Y-68425217D01*
X165750015Y-68391439D01*
X165515536Y-68300161D01*
X165314354Y-68165206D01*
X165262274Y-68115054D01*
X165194029Y-68023442D01*
X165188287Y-67972014D01*
X165235006Y-67967225D01*
X165324148Y-68015530D01*
X165366072Y-68048320D01*
X165488318Y-68134631D01*
X165632249Y-68214596D01*
X165668569Y-68231187D01*
X165790312Y-68272095D01*
X165917773Y-68297831D01*
X166028466Y-68306158D01*
X166099910Y-68294835D01*
X166114644Y-68275607D01*
X166104389Y-68227107D01*
X166077239Y-68118168D01*
X166037461Y-67965504D01*
X165994679Y-67805607D01*
X165930808Y-67558353D01*
X165892371Y-67380155D01*
X165878626Y-67264470D01*
X165888832Y-67204758D01*
X165922248Y-67194478D01*
X165925554Y-67195479D01*
X165954117Y-67238409D01*
X165996241Y-67343813D01*
X166046529Y-67496446D01*
X166099586Y-67681058D01*
X166106304Y-67706230D01*
X166156955Y-67893801D01*
X166201542Y-68051729D01*
X166235614Y-68164751D01*
X166254722Y-68217606D01*
X166255897Y-68219284D01*
X166304700Y-68218376D01*
X166395351Y-68183827D01*
X166504100Y-68127788D01*
X166607197Y-68062408D01*
X166677359Y-68003686D01*
X166763556Y-67911933D01*
X166559555Y-67580443D01*
X166471441Y-67430189D01*
X166402466Y-67299107D01*
X166362113Y-67205942D01*
X166355554Y-67177280D01*
X166379083Y-67117299D01*
X166430828Y-67111503D01*
X166482523Y-67157419D01*
X166496832Y-67189635D01*
X166536021Y-67279573D01*
X166600584Y-67395667D01*
X166678493Y-67519952D01*
X166757723Y-67634464D01*
X166826248Y-67721239D01*
X166872041Y-67762313D01*
X166880412Y-67762605D01*
X166933444Y-67699928D01*
X166995637Y-67583131D01*
X167056583Y-67435665D01*
X167105871Y-67280980D01*
X167119778Y-67223336D01*
X167154056Y-67016695D01*
X167182105Y-66755712D01*
X167203500Y-66457683D01*
X167217820Y-66139904D01*
X167224642Y-65819672D01*
X167223544Y-65514284D01*
X167214101Y-65241035D01*
X167195892Y-65017223D01*
X167176694Y-64894392D01*
X167069490Y-64553507D01*
X166895391Y-64241486D01*
X166739487Y-64043331D01*
X166734045Y-64037147D01*
X166940714Y-64037147D01*
X167015518Y-64161377D01*
X167123681Y-64350673D01*
X167207592Y-64525439D01*
X167269761Y-64699482D01*
X167312701Y-64886609D01*
X167338923Y-65100627D01*
X167350939Y-65355343D01*
X167351260Y-65664565D01*
X167344520Y-65969892D01*
X167338138Y-66215485D01*
X167333640Y-66431460D01*
X167331179Y-66605966D01*
X167330909Y-66727154D01*
X167332986Y-66783174D01*
X167333883Y-66785607D01*
X167364017Y-66752880D01*
X167420217Y-66666587D01*
X167492466Y-66544565D01*
X167570748Y-66404650D01*
X167645047Y-66264678D01*
X167705347Y-66142484D01*
X167738227Y-66065607D01*
X167773708Y-65947939D01*
X167915935Y-65947939D01*
X167985205Y-66001757D01*
X168038342Y-66026763D01*
X168239987Y-66071741D01*
X168434428Y-66037100D01*
X168530119Y-65988966D01*
X168671276Y-65859827D01*
X168744638Y-65690636D01*
X168749841Y-65484392D01*
X168686519Y-65244092D01*
X168635297Y-65125069D01*
X168515167Y-64913464D01*
X168379762Y-64741735D01*
X168239360Y-64618918D01*
X168104234Y-64554048D01*
X167987270Y-64555254D01*
X167981872Y-64581930D01*
X168040720Y-64626795D01*
X168060758Y-64637707D01*
X168262055Y-64773259D01*
X168426087Y-64944420D01*
X168547387Y-65137615D01*
X168620488Y-65339269D01*
X168639923Y-65535808D01*
X168600226Y-65713655D01*
X168535992Y-65817792D01*
X168410335Y-65924126D01*
X168266471Y-65957589D01*
X168100016Y-65924699D01*
X168088881Y-65922199D01*
X167980338Y-65897830D01*
X167916645Y-65909437D01*
X167915935Y-65947939D01*
X167773708Y-65947939D01*
X167841809Y-65722087D01*
X167849055Y-65681568D01*
X168009438Y-65681568D01*
X168018620Y-65730842D01*
X168060714Y-65744971D01*
X168088881Y-65745607D01*
X168202805Y-65708032D01*
X168298760Y-65604836D01*
X168354425Y-65479905D01*
X168384127Y-65368035D01*
X168388298Y-65285722D01*
X168367206Y-65186892D01*
X168356341Y-65148354D01*
X168313197Y-65051771D01*
X168243807Y-64944847D01*
X168166284Y-64850946D01*
X168098744Y-64793431D01*
X168075095Y-64785607D01*
X168063441Y-64822388D01*
X168055412Y-64919912D01*
X168052405Y-65058954D01*
X168052578Y-65095607D01*
X168049971Y-65273125D01*
X168040291Y-65444177D01*
X168025611Y-65572601D01*
X168025081Y-65575607D01*
X168009438Y-65681568D01*
X167849055Y-65681568D01*
X167902362Y-65383461D01*
X167918506Y-65066480D01*
X167888863Y-64787894D01*
X167853874Y-64660848D01*
X167775806Y-64485658D01*
X167664565Y-64293538D01*
X167536825Y-64109161D01*
X167409262Y-63957200D01*
X167327707Y-63882334D01*
X167186241Y-63774433D01*
X167063478Y-63905790D01*
X166940714Y-64037147D01*
X166734045Y-64037147D01*
X166571340Y-63852245D01*
X166484796Y-63998926D01*
X166414587Y-64096606D01*
X166335479Y-64142604D01*
X166218052Y-64150581D01*
X166165554Y-64147173D01*
X166102167Y-64155018D01*
X166078108Y-64207542D01*
X166075554Y-64264731D01*
X166049712Y-64416977D01*
X165982789Y-64558135D01*
X165890685Y-64656447D01*
X165874579Y-64666129D01*
X165766550Y-64689373D01*
X165763853Y-64689120D01*
X165629826Y-64676548D01*
X165504197Y-64632927D01*
X165472087Y-64612771D01*
X165377853Y-64501619D01*
X165326563Y-64337210D01*
X165317581Y-64114689D01*
X165350269Y-63829198D01*
X165361134Y-63767455D01*
X165384018Y-63617580D01*
X165383425Y-63505053D01*
X165356038Y-63389805D01*
X165321908Y-63293411D01*
X165273669Y-63145486D01*
X165270516Y-63120903D01*
X165407638Y-63120903D01*
X165451567Y-63257565D01*
X165468481Y-63298033D01*
X165506277Y-63391347D01*
X165526665Y-63469195D01*
X165530443Y-63554578D01*
X165518413Y-63670498D01*
X165491375Y-63839955D01*
X165488026Y-63859844D01*
X165454675Y-64098812D01*
X165449074Y-64273442D01*
X165473793Y-64395331D01*
X165531402Y-64476077D01*
X165624472Y-64527277D01*
X165636900Y-64531575D01*
X165763853Y-64552511D01*
X165850445Y-64512933D01*
X165902209Y-64407430D01*
X165923617Y-64251160D01*
X165935554Y-64045607D01*
X166114769Y-64032857D01*
X166266362Y-64010303D01*
X166356333Y-63962436D01*
X166401666Y-63878811D01*
X166407705Y-63852703D01*
X166426278Y-63733293D01*
X166420253Y-63650837D01*
X166385405Y-63564927D01*
X166375596Y-63545689D01*
X166273344Y-63413733D01*
X166111283Y-63281257D01*
X165908553Y-63160653D01*
X165684295Y-63064315D01*
X165583300Y-63032688D01*
X165470838Y-63014627D01*
X165413173Y-63041978D01*
X165407638Y-63120903D01*
X165270516Y-63120903D01*
X165260402Y-63042063D01*
X165277351Y-62960879D01*
X165308625Y-62896824D01*
X165354437Y-62870537D01*
X165440994Y-62872490D01*
X165499865Y-62879996D01*
X165647358Y-62917677D01*
X165827351Y-62988917D01*
X166017381Y-63081900D01*
X166194988Y-63184811D01*
X166337708Y-63285832D01*
X166414701Y-63361241D01*
X166485254Y-63472600D01*
X166532690Y-63580501D01*
X166535766Y-63591587D01*
X166582368Y-63679653D01*
X166669732Y-63780152D01*
X166716727Y-63821741D01*
X166871247Y-63945916D01*
X166973400Y-63811986D01*
X167039577Y-63703356D01*
X167069866Y-63582542D01*
X167075554Y-63458957D01*
X167062414Y-63310674D01*
X167016790Y-63178351D01*
X166929379Y-63048067D01*
X166790873Y-62905897D01*
X166595554Y-62740787D01*
X166333672Y-62550725D01*
X166101640Y-62425858D01*
X165889607Y-62361931D01*
X165699449Y-62353622D01*
X165478579Y-62399212D01*
X165233425Y-62494655D01*
X164990151Y-62627716D01*
X164775554Y-62785614D01*
X164622818Y-62903098D01*
X164458796Y-63004840D01*
X164297834Y-63084878D01*
X164154276Y-63137250D01*
X164042468Y-63155994D01*
X163976757Y-63135148D01*
X163968444Y-63121052D01*
X163994481Y-63085524D01*
X164078101Y-63036049D01*
X164194642Y-62985948D01*
X164358240Y-62909332D01*
X164520314Y-62809040D01*
X164606161Y-62741424D01*
X164775554Y-62587449D01*
X164675554Y-62503950D01*
X164472433Y-62374615D01*
X164209940Y-62269458D01*
X163906400Y-62193605D01*
X163580139Y-62152183D01*
X163395681Y-62145936D01*
X163125824Y-62152200D01*
X162857415Y-62169209D01*
X162607932Y-62194968D01*
X162394855Y-62227484D01*
X162235664Y-62264765D01*
X162182374Y-62284281D01*
X162027222Y-62359515D01*
X161863882Y-62447541D01*
X161707378Y-62539094D01*
X161572731Y-62624903D01*
X161474967Y-62695700D01*
X161429107Y-62742218D01*
X161427671Y-62749884D01*
X161450230Y-62816564D01*
X161490427Y-62919280D01*
X161499710Y-62941725D01*
X161559631Y-63085136D01*
X161632548Y-62925372D01*
X161743126Y-62745320D01*
X161902434Y-62595253D01*
X162124733Y-62462365D01*
X162175554Y-62437869D01*
X162311816Y-62379751D01*
X162432177Y-62346240D01*
X162568339Y-62331406D01*
X162752001Y-62329317D01*
X162755554Y-62329356D01*
X163039469Y-62354388D01*
X163285054Y-62418825D01*
X163485683Y-62516628D01*
X163634734Y-62641760D01*
X163725582Y-62788183D01*
X163751604Y-62949859D01*
X163706176Y-63120749D01*
X163678810Y-63170974D01*
X163530830Y-63342694D01*
X163324584Y-63484600D01*
X163077364Y-63593163D01*
X162806462Y-63664853D01*
X162529170Y-63696140D01*
X162262780Y-63683496D01*
X162024585Y-63623389D01*
X161868384Y-63540503D01*
X161816481Y-63506640D01*
X161793924Y-63491923D01*
X161756572Y-63476251D01*
X161755554Y-63477907D01*
X161770487Y-63520974D01*
X161809349Y-63615273D01*
X161855554Y-63721771D01*
X161908897Y-63853232D01*
X161945030Y-63963049D01*
X161955184Y-64016748D01*
X161925043Y-64069530D01*
X161847164Y-64152226D01*
X161739834Y-64249580D01*
X161621340Y-64346333D01*
X161509969Y-64427228D01*
X161424009Y-64477005D01*
X161393234Y-64485607D01*
X161334621Y-64455032D01*
X161299913Y-64413154D01*
X161284961Y-64367713D01*
X161304703Y-64316344D01*
X161368905Y-64244169D01*
X161473847Y-64148176D01*
X161692141Y-63955652D01*
X161463847Y-63469362D01*
X161379626Y-63287216D01*
X161309418Y-63130143D01*
X161292567Y-63090454D01*
X161713271Y-63090454D01*
X161725995Y-63201580D01*
X161775554Y-63265607D01*
X161816481Y-63288362D01*
X161833067Y-63254160D01*
X161835554Y-63186505D01*
X161872787Y-63044850D01*
X161974641Y-62918278D01*
X162126347Y-62812007D01*
X162313136Y-62731256D01*
X162520240Y-62681244D01*
X162732890Y-62667190D01*
X162936316Y-62694312D01*
X163078716Y-62747221D01*
X163210300Y-62840179D01*
X163318567Y-62962921D01*
X163384314Y-63090683D01*
X163395404Y-63155607D01*
X163412099Y-63216374D01*
X163453818Y-63219066D01*
X163508615Y-63176554D01*
X163564546Y-63101708D01*
X163609665Y-63007398D01*
X163632026Y-62906495D01*
X163632396Y-62900262D01*
X163606269Y-62838039D01*
X163535921Y-62749765D01*
X163477820Y-62692414D01*
X163353691Y-62597391D01*
X163212790Y-62529108D01*
X163033098Y-62479145D01*
X162828206Y-62444048D01*
X162683809Y-62436737D01*
X162528762Y-62460504D01*
X162368206Y-62507230D01*
X162168473Y-62592926D01*
X161994995Y-62704484D01*
X161855889Y-62831518D01*
X161759275Y-62963637D01*
X161713271Y-63090454D01*
X161292567Y-63090454D01*
X161259571Y-63012740D01*
X161236431Y-62949606D01*
X161235554Y-62944340D01*
X161220033Y-62908628D01*
X161169867Y-62927407D01*
X161079643Y-63003923D01*
X160993882Y-63089322D01*
X160815554Y-63273037D01*
X160108958Y-63245448D01*
X159847736Y-63237803D01*
X159584793Y-63234593D01*
X159342724Y-63235786D01*
X159144127Y-63241350D01*
X159053815Y-63246893D01*
X158876171Y-63264710D01*
X158756094Y-63286953D01*
X158671179Y-63320253D01*
X158599023Y-63371248D01*
X158581077Y-63386890D01*
X158506919Y-63458306D01*
X158477606Y-63517115D01*
X158484532Y-63596729D01*
X158505600Y-63679983D01*
X158590019Y-63894528D01*
X158724694Y-64121939D01*
X158891205Y-64334058D01*
X159011985Y-64454110D01*
X159140440Y-64550495D01*
X159316099Y-64660898D01*
X159511707Y-64770080D01*
X159700009Y-64862803D01*
X159850121Y-64922679D01*
X159901684Y-64959182D01*
X159903418Y-65034878D01*
X159898830Y-65056105D01*
X159869501Y-65217048D01*
X159844978Y-65422187D01*
X159825707Y-65656205D01*
X159812138Y-65903784D01*
X159804716Y-66149607D01*
X159803890Y-66378356D01*
X159810106Y-66574713D01*
X159823813Y-66723361D01*
X159845457Y-66808982D01*
X159847521Y-66812610D01*
X159892403Y-66816567D01*
X160000373Y-66802643D01*
X160157379Y-66774157D01*
X160349367Y-66734428D01*
X160562285Y-66686777D01*
X160782081Y-66634521D01*
X160994703Y-66580980D01*
X161186098Y-66529474D01*
X161342213Y-66483321D01*
X161448998Y-66445841D01*
X161488827Y-66424924D01*
X161478654Y-66386022D01*
X161418677Y-66314990D01*
X161338827Y-66241864D01*
X161221079Y-66127249D01*
X161161182Y-66031632D01*
X161155553Y-66001417D01*
X161179248Y-65914543D01*
X161244939Y-65890235D01*
X161344536Y-65928677D01*
X161432458Y-65995101D01*
X161556180Y-66097284D01*
X161701718Y-66207803D01*
X161767867Y-66254783D01*
X161895468Y-66362491D01*
X161952542Y-66458743D01*
X161937140Y-66538163D01*
X161885554Y-66579153D01*
X161807769Y-66609150D01*
X161669230Y-66652738D01*
X161487079Y-66705279D01*
X161278459Y-66762138D01*
X161060510Y-66818680D01*
X160850377Y-66870267D01*
X160665199Y-66912266D01*
X160615554Y-66922611D01*
X160435960Y-66961187D01*
X160261076Y-67002379D01*
X160126063Y-67037867D01*
X160115945Y-67040830D01*
X159936337Y-67094206D01*
X159949232Y-67373326D01*
X159950733Y-67538737D01*
X159932856Y-67676402D01*
X159887621Y-67802333D01*
X159807045Y-67932542D01*
X159683146Y-68083041D01*
X159507945Y-68269842D01*
X159496404Y-68281753D01*
X159352837Y-68430990D01*
X159257561Y-68535729D01*
X159202642Y-68608381D01*
X159180146Y-68661359D01*
X159182140Y-68707077D01*
X159197273Y-68749760D01*
X159272855Y-68867945D01*
X159409733Y-69015025D01*
X159598488Y-69182484D01*
X159829703Y-69361808D01*
X160027974Y-69500755D01*
X160218868Y-69637007D01*
X160338611Y-69742423D01*
X160388800Y-69819454D01*
X160371032Y-69870549D01*
X160286918Y-69898157D01*
X160197256Y-69880637D01*
X160063690Y-69816463D01*
X159899022Y-69715410D01*
X159716053Y-69587258D01*
X159527585Y-69441783D01*
X159346420Y-69288762D01*
X159185357Y-69137972D01*
X159096582Y-69041838D01*
X159057200Y-68999191D01*
X158989226Y-68907032D01*
X158940036Y-68840555D01*
X158893206Y-68836150D01*
X158831620Y-68872908D01*
X158728491Y-68954496D01*
X158598251Y-69074374D01*
X158461240Y-69211861D01*
X158337799Y-69346272D01*
X158248269Y-69456925D01*
X158229078Y-69485607D01*
X158157101Y-69669400D01*
X158037378Y-69669400D01*
X158044005Y-69611579D01*
X158107780Y-69452083D01*
X158223841Y-69281222D01*
X158398910Y-69088253D01*
X158533560Y-68958791D01*
X158678977Y-68823116D01*
X158774449Y-68728577D01*
X158828712Y-68661939D01*
X158850502Y-68609963D01*
X158848555Y-68559412D01*
X158833678Y-68504029D01*
X158811534Y-68391883D01*
X158794155Y-68235186D01*
X158786795Y-68099508D01*
X159036163Y-68099508D01*
X159036166Y-68103439D01*
X159040687Y-68280257D01*
X159058306Y-68389506D01*
X159096582Y-68432410D01*
X159163078Y-68410194D01*
X159265353Y-68324082D01*
X159410968Y-68175297D01*
X159420114Y-68165607D01*
X159550054Y-68022250D01*
X159663259Y-67887216D01*
X159745273Y-67778322D01*
X159777124Y-67725607D01*
X159816365Y-67586481D01*
X159830244Y-67419420D01*
X159816760Y-67266213D01*
X159801613Y-67213882D01*
X159780477Y-67181354D01*
X159742965Y-67178522D01*
X159673757Y-67210325D01*
X159557533Y-67281696D01*
X159523869Y-67303369D01*
X159299872Y-67474640D01*
X159148700Y-67656581D01*
X159063186Y-67860951D01*
X159036163Y-68099508D01*
X158786795Y-68099508D01*
X158785800Y-68081172D01*
X158785984Y-67921389D01*
X158801722Y-67806274D01*
X158841985Y-67700767D01*
X158915743Y-67569807D01*
X158917299Y-67567222D01*
X159069126Y-67356624D01*
X159256485Y-67180375D01*
X159500839Y-67018512D01*
X159517428Y-67009023D01*
X159688605Y-66911792D01*
X159694193Y-66058700D01*
X159697254Y-65800813D01*
X159702624Y-65566313D01*
X159709794Y-65368342D01*
X159718254Y-65220042D01*
X159727497Y-65134556D01*
X159730420Y-65122923D01*
X159738365Y-65067086D01*
X159702541Y-65022311D01*
X159607950Y-64971673D01*
X159588655Y-64962923D01*
X159395054Y-64863499D01*
X159189708Y-64737245D01*
X158994076Y-64599247D01*
X158829618Y-64464589D01*
X158721902Y-64353623D01*
X158594104Y-64170902D01*
X158484330Y-63974125D01*
X158402883Y-63785161D01*
X158360064Y-63625881D01*
X158356060Y-63576941D01*
X158371493Y-63461642D01*
X158429525Y-63360377D01*
X158493788Y-63290040D01*
X158561737Y-63230523D01*
X158639165Y-63184124D01*
X158735842Y-63149669D01*
X158861542Y-63125983D01*
X159026035Y-63111890D01*
X159239095Y-63106216D01*
X159510493Y-63107787D01*
X159850000Y-63115427D01*
X159928065Y-63117612D01*
X160760576Y-63141458D01*
X160954851Y-62934556D01*
X161149125Y-62727654D01*
X161086411Y-62586631D01*
X161022831Y-62411099D01*
X161003453Y-62275601D01*
X161029006Y-62190417D01*
X161056913Y-62170621D01*
X161138615Y-62166848D01*
X161206937Y-62229377D01*
X161268479Y-62364685D01*
X161275365Y-62385035D01*
X161315820Y-62483955D01*
X161354074Y-62540490D01*
X161364903Y-62545608D01*
X161412886Y-62528255D01*
X161516472Y-62481015D01*
X161660391Y-62411112D01*
X161828500Y-62326221D01*
X162040696Y-62222586D01*
X162229712Y-62145446D01*
X162414038Y-62091063D01*
X162612167Y-62055697D01*
X162842593Y-62035607D01*
X163123806Y-62027055D01*
X163313489Y-62025910D01*
X163553055Y-62027973D01*
X163735845Y-62036237D01*
X163885002Y-62053349D01*
X164023673Y-62081953D01*
X164173489Y-62124233D01*
X164359355Y-62190607D01*
X164547395Y-62273091D01*
X164699387Y-62354784D01*
X164709862Y-62361436D01*
X164924171Y-62500012D01*
X165149862Y-62387114D01*
X165284825Y-62322423D01*
X165403243Y-62270497D01*
X165465554Y-62247216D01*
X165540776Y-62191937D01*
X165555554Y-62137591D01*
X165567799Y-62071239D01*
X165601446Y-61945247D01*
X165651861Y-61775619D01*
X165714410Y-61578360D01*
X165739699Y-61501581D01*
X165835681Y-61231087D01*
X165930816Y-60996051D01*
X166020553Y-60805682D01*
X166100343Y-60669191D01*
X166165632Y-60595788D01*
X166192312Y-60585607D01*
X166248937Y-60613871D01*
G37*
D12*
%TO.C,J1*%
X117739400Y-63738600D02*
X117739400Y-71418600D01*
X117739400Y-63738600D02*
X120399400Y-63738600D01*
X117739400Y-71418600D02*
X120399400Y-71418600D01*
X119069400Y-61138600D02*
X120399400Y-61138600D01*
X120399400Y-61138600D02*
X120399400Y-62468600D01*
X120399400Y-63738600D02*
X120399400Y-71418600D01*
D13*
X117169400Y-60268600D02*
X155169400Y-60268600D01*
X155169400Y-72268600D01*
X117169400Y-72268600D01*
X117169400Y-60268600D01*
%TD*%
M02*
