%TF.GenerationSoftware,KiCad,Pcbnew,9.0.7*%
%TF.CreationDate,2026-04-19T23:56:59+08:00*%
%TF.ProjectId,final macropad,66696e61-6c20-46d6-9163-726f7061642e,rev?*%
%TF.SameCoordinates,Original*%
%TF.FileFunction,Legend,Bot*%
%TF.FilePolarity,Positive*%
%FSLAX46Y46*%
G04 Gerber Fmt 4.6, Leading zero omitted, Abs format (unit mm)*
G04 Created by KiCad (PCBNEW 9.0.7) date 2026-04-19 23:56:59*
%MOMM*%
%LPD*%
G01*
G04 APERTURE LIST*
%ADD10C,0.150000*%
%ADD11C,0.120000*%
G04 APERTURE END LIST*
D10*
X131564047Y-79423419D02*
X132135475Y-79423419D01*
X131849761Y-79423419D02*
X131849761Y-78423419D01*
X131849761Y-78423419D02*
X131944999Y-78566276D01*
X131944999Y-78566276D02*
X132040237Y-78661514D01*
X132040237Y-78661514D02*
X132135475Y-78709133D01*
X131135475Y-79423419D02*
X131135475Y-78423419D01*
X131040237Y-79042466D02*
X130754523Y-79423419D01*
X130754523Y-78756752D02*
X131135475Y-79137704D01*
X131611666Y-77340619D02*
X131944999Y-76864428D01*
X132183094Y-77340619D02*
X132183094Y-76340619D01*
X132183094Y-76340619D02*
X131802142Y-76340619D01*
X131802142Y-76340619D02*
X131706904Y-76388238D01*
X131706904Y-76388238D02*
X131659285Y-76435857D01*
X131659285Y-76435857D02*
X131611666Y-76531095D01*
X131611666Y-76531095D02*
X131611666Y-76673952D01*
X131611666Y-76673952D02*
X131659285Y-76769190D01*
X131659285Y-76769190D02*
X131706904Y-76816809D01*
X131706904Y-76816809D02*
X131802142Y-76864428D01*
X131802142Y-76864428D02*
X132183094Y-76864428D01*
X131040237Y-76769190D02*
X131135475Y-76721571D01*
X131135475Y-76721571D02*
X131183094Y-76673952D01*
X131183094Y-76673952D02*
X131230713Y-76578714D01*
X131230713Y-76578714D02*
X131230713Y-76531095D01*
X131230713Y-76531095D02*
X131183094Y-76435857D01*
X131183094Y-76435857D02*
X131135475Y-76388238D01*
X131135475Y-76388238D02*
X131040237Y-76340619D01*
X131040237Y-76340619D02*
X130849761Y-76340619D01*
X130849761Y-76340619D02*
X130754523Y-76388238D01*
X130754523Y-76388238D02*
X130706904Y-76435857D01*
X130706904Y-76435857D02*
X130659285Y-76531095D01*
X130659285Y-76531095D02*
X130659285Y-76578714D01*
X130659285Y-76578714D02*
X130706904Y-76673952D01*
X130706904Y-76673952D02*
X130754523Y-76721571D01*
X130754523Y-76721571D02*
X130849761Y-76769190D01*
X130849761Y-76769190D02*
X131040237Y-76769190D01*
X131040237Y-76769190D02*
X131135475Y-76816809D01*
X131135475Y-76816809D02*
X131183094Y-76864428D01*
X131183094Y-76864428D02*
X131230713Y-76959666D01*
X131230713Y-76959666D02*
X131230713Y-77150142D01*
X131230713Y-77150142D02*
X131183094Y-77245380D01*
X131183094Y-77245380D02*
X131135475Y-77293000D01*
X131135475Y-77293000D02*
X131040237Y-77340619D01*
X131040237Y-77340619D02*
X130849761Y-77340619D01*
X130849761Y-77340619D02*
X130754523Y-77293000D01*
X130754523Y-77293000D02*
X130706904Y-77245380D01*
X130706904Y-77245380D02*
X130659285Y-77150142D01*
X130659285Y-77150142D02*
X130659285Y-76959666D01*
X130659285Y-76959666D02*
X130706904Y-76864428D01*
X130706904Y-76864428D02*
X130754523Y-76816809D01*
X130754523Y-76816809D02*
X130849761Y-76769190D01*
X164682466Y-118394819D02*
X165015799Y-117918628D01*
X165253894Y-118394819D02*
X165253894Y-117394819D01*
X165253894Y-117394819D02*
X164872942Y-117394819D01*
X164872942Y-117394819D02*
X164777704Y-117442438D01*
X164777704Y-117442438D02*
X164730085Y-117490057D01*
X164730085Y-117490057D02*
X164682466Y-117585295D01*
X164682466Y-117585295D02*
X164682466Y-117728152D01*
X164682466Y-117728152D02*
X164730085Y-117823390D01*
X164730085Y-117823390D02*
X164777704Y-117871009D01*
X164777704Y-117871009D02*
X164872942Y-117918628D01*
X164872942Y-117918628D02*
X165253894Y-117918628D01*
X163825323Y-117394819D02*
X164015799Y-117394819D01*
X164015799Y-117394819D02*
X164111037Y-117442438D01*
X164111037Y-117442438D02*
X164158656Y-117490057D01*
X164158656Y-117490057D02*
X164253894Y-117632914D01*
X164253894Y-117632914D02*
X164301513Y-117823390D01*
X164301513Y-117823390D02*
X164301513Y-118204342D01*
X164301513Y-118204342D02*
X164253894Y-118299580D01*
X164253894Y-118299580D02*
X164206275Y-118347200D01*
X164206275Y-118347200D02*
X164111037Y-118394819D01*
X164111037Y-118394819D02*
X163920561Y-118394819D01*
X163920561Y-118394819D02*
X163825323Y-118347200D01*
X163825323Y-118347200D02*
X163777704Y-118299580D01*
X163777704Y-118299580D02*
X163730085Y-118204342D01*
X163730085Y-118204342D02*
X163730085Y-117966247D01*
X163730085Y-117966247D02*
X163777704Y-117871009D01*
X163777704Y-117871009D02*
X163825323Y-117823390D01*
X163825323Y-117823390D02*
X163920561Y-117775771D01*
X163920561Y-117775771D02*
X164111037Y-117775771D01*
X164111037Y-117775771D02*
X164206275Y-117823390D01*
X164206275Y-117823390D02*
X164253894Y-117871009D01*
X164253894Y-117871009D02*
X164301513Y-117966247D01*
X165444371Y-112988152D02*
X165444371Y-113654819D01*
X165682466Y-112607200D02*
X165920561Y-113321485D01*
X165920561Y-113321485D02*
X165301514Y-113321485D01*
X164920561Y-113559580D02*
X164872942Y-113607200D01*
X164872942Y-113607200D02*
X164920561Y-113654819D01*
X164920561Y-113654819D02*
X164968180Y-113607200D01*
X164968180Y-113607200D02*
X164920561Y-113559580D01*
X164920561Y-113559580D02*
X164920561Y-113654819D01*
X164539609Y-112654819D02*
X163872943Y-112654819D01*
X163872943Y-112654819D02*
X164301514Y-113654819D01*
X163491990Y-113654819D02*
X163491990Y-112654819D01*
X163396752Y-113273866D02*
X163111038Y-113654819D01*
X163111038Y-112988152D02*
X163491990Y-113369104D01*
X164682466Y-99344819D02*
X165015799Y-98868628D01*
X165253894Y-99344819D02*
X165253894Y-98344819D01*
X165253894Y-98344819D02*
X164872942Y-98344819D01*
X164872942Y-98344819D02*
X164777704Y-98392438D01*
X164777704Y-98392438D02*
X164730085Y-98440057D01*
X164730085Y-98440057D02*
X164682466Y-98535295D01*
X164682466Y-98535295D02*
X164682466Y-98678152D01*
X164682466Y-98678152D02*
X164730085Y-98773390D01*
X164730085Y-98773390D02*
X164777704Y-98821009D01*
X164777704Y-98821009D02*
X164872942Y-98868628D01*
X164872942Y-98868628D02*
X165253894Y-98868628D01*
X164349132Y-98344819D02*
X163730085Y-98344819D01*
X163730085Y-98344819D02*
X164063418Y-98725771D01*
X164063418Y-98725771D02*
X163920561Y-98725771D01*
X163920561Y-98725771D02*
X163825323Y-98773390D01*
X163825323Y-98773390D02*
X163777704Y-98821009D01*
X163777704Y-98821009D02*
X163730085Y-98916247D01*
X163730085Y-98916247D02*
X163730085Y-99154342D01*
X163730085Y-99154342D02*
X163777704Y-99249580D01*
X163777704Y-99249580D02*
X163825323Y-99297200D01*
X163825323Y-99297200D02*
X163920561Y-99344819D01*
X163920561Y-99344819D02*
X164206275Y-99344819D01*
X164206275Y-99344819D02*
X164301513Y-99297200D01*
X164301513Y-99297200D02*
X164349132Y-99249580D01*
X165444371Y-93938152D02*
X165444371Y-94604819D01*
X165682466Y-93557200D02*
X165920561Y-94271485D01*
X165920561Y-94271485D02*
X165301514Y-94271485D01*
X164920561Y-94509580D02*
X164872942Y-94557200D01*
X164872942Y-94557200D02*
X164920561Y-94604819D01*
X164920561Y-94604819D02*
X164968180Y-94557200D01*
X164968180Y-94557200D02*
X164920561Y-94509580D01*
X164920561Y-94509580D02*
X164920561Y-94604819D01*
X164539609Y-93604819D02*
X163872943Y-93604819D01*
X163872943Y-93604819D02*
X164301514Y-94604819D01*
X163491990Y-94604819D02*
X163491990Y-93604819D01*
X163396752Y-94223866D02*
X163111038Y-94604819D01*
X163111038Y-93938152D02*
X163491990Y-94319104D01*
X145657866Y-99344819D02*
X145991199Y-98868628D01*
X146229294Y-99344819D02*
X146229294Y-98344819D01*
X146229294Y-98344819D02*
X145848342Y-98344819D01*
X145848342Y-98344819D02*
X145753104Y-98392438D01*
X145753104Y-98392438D02*
X145705485Y-98440057D01*
X145705485Y-98440057D02*
X145657866Y-98535295D01*
X145657866Y-98535295D02*
X145657866Y-98678152D01*
X145657866Y-98678152D02*
X145705485Y-98773390D01*
X145705485Y-98773390D02*
X145753104Y-98821009D01*
X145753104Y-98821009D02*
X145848342Y-98868628D01*
X145848342Y-98868628D02*
X146229294Y-98868628D01*
X145276913Y-98440057D02*
X145229294Y-98392438D01*
X145229294Y-98392438D02*
X145134056Y-98344819D01*
X145134056Y-98344819D02*
X144895961Y-98344819D01*
X144895961Y-98344819D02*
X144800723Y-98392438D01*
X144800723Y-98392438D02*
X144753104Y-98440057D01*
X144753104Y-98440057D02*
X144705485Y-98535295D01*
X144705485Y-98535295D02*
X144705485Y-98630533D01*
X144705485Y-98630533D02*
X144753104Y-98773390D01*
X144753104Y-98773390D02*
X145324532Y-99344819D01*
X145324532Y-99344819D02*
X144705485Y-99344819D01*
X146419771Y-93938152D02*
X146419771Y-94604819D01*
X146657866Y-93557200D02*
X146895961Y-94271485D01*
X146895961Y-94271485D02*
X146276914Y-94271485D01*
X145895961Y-94509580D02*
X145848342Y-94557200D01*
X145848342Y-94557200D02*
X145895961Y-94604819D01*
X145895961Y-94604819D02*
X145943580Y-94557200D01*
X145943580Y-94557200D02*
X145895961Y-94509580D01*
X145895961Y-94509580D02*
X145895961Y-94604819D01*
X145515009Y-93604819D02*
X144848343Y-93604819D01*
X144848343Y-93604819D02*
X145276914Y-94604819D01*
X144467390Y-94604819D02*
X144467390Y-93604819D01*
X144372152Y-94223866D02*
X144086438Y-94604819D01*
X144086438Y-93938152D02*
X144467390Y-94319104D01*
X145632466Y-118394819D02*
X145965799Y-117918628D01*
X146203894Y-118394819D02*
X146203894Y-117394819D01*
X146203894Y-117394819D02*
X145822942Y-117394819D01*
X145822942Y-117394819D02*
X145727704Y-117442438D01*
X145727704Y-117442438D02*
X145680085Y-117490057D01*
X145680085Y-117490057D02*
X145632466Y-117585295D01*
X145632466Y-117585295D02*
X145632466Y-117728152D01*
X145632466Y-117728152D02*
X145680085Y-117823390D01*
X145680085Y-117823390D02*
X145727704Y-117871009D01*
X145727704Y-117871009D02*
X145822942Y-117918628D01*
X145822942Y-117918628D02*
X146203894Y-117918628D01*
X144727704Y-117394819D02*
X145203894Y-117394819D01*
X145203894Y-117394819D02*
X145251513Y-117871009D01*
X145251513Y-117871009D02*
X145203894Y-117823390D01*
X145203894Y-117823390D02*
X145108656Y-117775771D01*
X145108656Y-117775771D02*
X144870561Y-117775771D01*
X144870561Y-117775771D02*
X144775323Y-117823390D01*
X144775323Y-117823390D02*
X144727704Y-117871009D01*
X144727704Y-117871009D02*
X144680085Y-117966247D01*
X144680085Y-117966247D02*
X144680085Y-118204342D01*
X144680085Y-118204342D02*
X144727704Y-118299580D01*
X144727704Y-118299580D02*
X144775323Y-118347200D01*
X144775323Y-118347200D02*
X144870561Y-118394819D01*
X144870561Y-118394819D02*
X145108656Y-118394819D01*
X145108656Y-118394819D02*
X145203894Y-118347200D01*
X145203894Y-118347200D02*
X145251513Y-118299580D01*
X146394371Y-112988152D02*
X146394371Y-113654819D01*
X146632466Y-112607200D02*
X146870561Y-113321485D01*
X146870561Y-113321485D02*
X146251514Y-113321485D01*
X145870561Y-113559580D02*
X145822942Y-113607200D01*
X145822942Y-113607200D02*
X145870561Y-113654819D01*
X145870561Y-113654819D02*
X145918180Y-113607200D01*
X145918180Y-113607200D02*
X145870561Y-113559580D01*
X145870561Y-113559580D02*
X145870561Y-113654819D01*
X145489609Y-112654819D02*
X144822943Y-112654819D01*
X144822943Y-112654819D02*
X145251514Y-113654819D01*
X144441990Y-113654819D02*
X144441990Y-112654819D01*
X144346752Y-113273866D02*
X144061038Y-113654819D01*
X144061038Y-112988152D02*
X144441990Y-113369104D01*
X126582466Y-118369419D02*
X126915799Y-117893228D01*
X127153894Y-118369419D02*
X127153894Y-117369419D01*
X127153894Y-117369419D02*
X126772942Y-117369419D01*
X126772942Y-117369419D02*
X126677704Y-117417038D01*
X126677704Y-117417038D02*
X126630085Y-117464657D01*
X126630085Y-117464657D02*
X126582466Y-117559895D01*
X126582466Y-117559895D02*
X126582466Y-117702752D01*
X126582466Y-117702752D02*
X126630085Y-117797990D01*
X126630085Y-117797990D02*
X126677704Y-117845609D01*
X126677704Y-117845609D02*
X126772942Y-117893228D01*
X126772942Y-117893228D02*
X127153894Y-117893228D01*
X125725323Y-117702752D02*
X125725323Y-118369419D01*
X125963418Y-117321800D02*
X126201513Y-118036085D01*
X126201513Y-118036085D02*
X125582466Y-118036085D01*
X127344371Y-112962752D02*
X127344371Y-113629419D01*
X127582466Y-112581800D02*
X127820561Y-113296085D01*
X127820561Y-113296085D02*
X127201514Y-113296085D01*
X126820561Y-113534180D02*
X126772942Y-113581800D01*
X126772942Y-113581800D02*
X126820561Y-113629419D01*
X126820561Y-113629419D02*
X126868180Y-113581800D01*
X126868180Y-113581800D02*
X126820561Y-113534180D01*
X126820561Y-113534180D02*
X126820561Y-113629419D01*
X126439609Y-112629419D02*
X125772943Y-112629419D01*
X125772943Y-112629419D02*
X126201514Y-113629419D01*
X125391990Y-113629419D02*
X125391990Y-112629419D01*
X125296752Y-113248466D02*
X125011038Y-113629419D01*
X125011038Y-112962752D02*
X125391990Y-113343704D01*
X126582466Y-99324819D02*
X126915799Y-98848628D01*
X127153894Y-99324819D02*
X127153894Y-98324819D01*
X127153894Y-98324819D02*
X126772942Y-98324819D01*
X126772942Y-98324819D02*
X126677704Y-98372438D01*
X126677704Y-98372438D02*
X126630085Y-98420057D01*
X126630085Y-98420057D02*
X126582466Y-98515295D01*
X126582466Y-98515295D02*
X126582466Y-98658152D01*
X126582466Y-98658152D02*
X126630085Y-98753390D01*
X126630085Y-98753390D02*
X126677704Y-98801009D01*
X126677704Y-98801009D02*
X126772942Y-98848628D01*
X126772942Y-98848628D02*
X127153894Y-98848628D01*
X125630085Y-99324819D02*
X126201513Y-99324819D01*
X125915799Y-99324819D02*
X125915799Y-98324819D01*
X125915799Y-98324819D02*
X126011037Y-98467676D01*
X126011037Y-98467676D02*
X126106275Y-98562914D01*
X126106275Y-98562914D02*
X126201513Y-98610533D01*
X127344371Y-93938152D02*
X127344371Y-94604819D01*
X127582466Y-93557200D02*
X127820561Y-94271485D01*
X127820561Y-94271485D02*
X127201514Y-94271485D01*
X126820561Y-94509580D02*
X126772942Y-94557200D01*
X126772942Y-94557200D02*
X126820561Y-94604819D01*
X126820561Y-94604819D02*
X126868180Y-94557200D01*
X126868180Y-94557200D02*
X126820561Y-94509580D01*
X126820561Y-94509580D02*
X126820561Y-94604819D01*
X126439609Y-93604819D02*
X125772943Y-93604819D01*
X125772943Y-93604819D02*
X126201514Y-94604819D01*
X125391990Y-94604819D02*
X125391990Y-93604819D01*
X125296752Y-94223866D02*
X125011038Y-94604819D01*
X125011038Y-93938152D02*
X125391990Y-94319104D01*
X131564047Y-71922619D02*
X132135475Y-71922619D01*
X131849761Y-71922619D02*
X131849761Y-70922619D01*
X131849761Y-70922619D02*
X131944999Y-71065476D01*
X131944999Y-71065476D02*
X132040237Y-71160714D01*
X132040237Y-71160714D02*
X132135475Y-71208333D01*
X131135475Y-71922619D02*
X131135475Y-70922619D01*
X131040237Y-71541666D02*
X130754523Y-71922619D01*
X130754523Y-71255952D02*
X131135475Y-71636904D01*
X131611666Y-74292619D02*
X131944999Y-73816428D01*
X132183094Y-74292619D02*
X132183094Y-73292619D01*
X132183094Y-73292619D02*
X131802142Y-73292619D01*
X131802142Y-73292619D02*
X131706904Y-73340238D01*
X131706904Y-73340238D02*
X131659285Y-73387857D01*
X131659285Y-73387857D02*
X131611666Y-73483095D01*
X131611666Y-73483095D02*
X131611666Y-73625952D01*
X131611666Y-73625952D02*
X131659285Y-73721190D01*
X131659285Y-73721190D02*
X131706904Y-73768809D01*
X131706904Y-73768809D02*
X131802142Y-73816428D01*
X131802142Y-73816428D02*
X132183094Y-73816428D01*
X131278332Y-73292619D02*
X130611666Y-73292619D01*
X130611666Y-73292619D02*
X131040237Y-74292619D01*
D11*
%TO.C,U1*%
X142087600Y-57327800D02*
X175107600Y-57327800D01*
X142087600Y-59994800D02*
X142087600Y-57327800D01*
X142087600Y-72694800D02*
X142087600Y-75364800D01*
X142087600Y-72694800D02*
X172567600Y-72694800D01*
X142087600Y-75361800D02*
X142087600Y-59994800D01*
X144627600Y-59994800D02*
X142087600Y-59994800D01*
X144627600Y-59994800D02*
X172567600Y-59994800D01*
X170027600Y-72694800D02*
X170027600Y-75364800D01*
X172567600Y-59994800D02*
X172567600Y-57324800D01*
X172567600Y-72694800D02*
X172567600Y-75364800D01*
X175107600Y-57327800D02*
X175107600Y-62407800D01*
X175107600Y-70281800D02*
X175107600Y-75361800D01*
X175107600Y-75361800D02*
X142087600Y-75364800D01*
X177647600Y-62407800D02*
X175107600Y-62407800D01*
X177647600Y-62407800D02*
X177647600Y-70281800D01*
X177647600Y-70281800D02*
X175107600Y-70281800D01*
%TO.C,R8*%
X128175000Y-75515800D02*
X134715000Y-75515800D01*
X128175000Y-75845800D02*
X128175000Y-75515800D01*
X128175000Y-77925800D02*
X128175000Y-78255800D01*
X128175000Y-78255800D02*
X134715000Y-78255800D01*
X134715000Y-75515800D02*
X134715000Y-75845800D01*
X134715000Y-78255800D02*
X134715000Y-77925800D01*
%TO.C,R6*%
X161245800Y-114200000D02*
X167785800Y-114200000D01*
X161245800Y-114530000D02*
X161245800Y-114200000D01*
X161245800Y-116610000D02*
X161245800Y-116940000D01*
X161245800Y-116940000D02*
X167785800Y-116940000D01*
X167785800Y-114200000D02*
X167785800Y-114530000D01*
X167785800Y-116940000D02*
X167785800Y-116610000D01*
%TO.C,R3*%
X161245800Y-95150000D02*
X167785800Y-95150000D01*
X161245800Y-95480000D02*
X161245800Y-95150000D01*
X161245800Y-97560000D02*
X161245800Y-97890000D01*
X161245800Y-97890000D02*
X167785800Y-97890000D01*
X167785800Y-95150000D02*
X167785800Y-95480000D01*
X167785800Y-97890000D02*
X167785800Y-97560000D01*
%TO.C,R2*%
X142221200Y-95150000D02*
X148761200Y-95150000D01*
X142221200Y-95480000D02*
X142221200Y-95150000D01*
X142221200Y-97560000D02*
X142221200Y-97890000D01*
X142221200Y-97890000D02*
X148761200Y-97890000D01*
X148761200Y-95150000D02*
X148761200Y-95480000D01*
X148761200Y-97890000D02*
X148761200Y-97560000D01*
%TO.C,R5*%
X142195800Y-114200000D02*
X148735800Y-114200000D01*
X142195800Y-114530000D02*
X142195800Y-114200000D01*
X142195800Y-116610000D02*
X142195800Y-116940000D01*
X142195800Y-116940000D02*
X148735800Y-116940000D01*
X148735800Y-114200000D02*
X148735800Y-114530000D01*
X148735800Y-116940000D02*
X148735800Y-116610000D01*
%TO.C,R4*%
X123145800Y-114174600D02*
X129685800Y-114174600D01*
X123145800Y-114504600D02*
X123145800Y-114174600D01*
X123145800Y-116584600D02*
X123145800Y-116914600D01*
X123145800Y-116914600D02*
X129685800Y-116914600D01*
X129685800Y-114174600D02*
X129685800Y-114504600D01*
X129685800Y-116914600D02*
X129685800Y-116584600D01*
%TO.C,R1*%
X123145800Y-95150000D02*
X129685800Y-95150000D01*
X123145800Y-95480000D02*
X123145800Y-95150000D01*
X123145800Y-97560000D02*
X123145800Y-97890000D01*
X123145800Y-97890000D02*
X129685800Y-97890000D01*
X129685800Y-95150000D02*
X129685800Y-95480000D01*
X129685800Y-97890000D02*
X129685800Y-97560000D01*
%TO.C,R7*%
X128175000Y-72467800D02*
X134715000Y-72467800D01*
X128175000Y-72797800D02*
X128175000Y-72467800D01*
X128175000Y-74877800D02*
X128175000Y-75207800D01*
X128175000Y-75207800D02*
X134715000Y-75207800D01*
X134715000Y-72467800D02*
X134715000Y-72797800D01*
X134715000Y-75207800D02*
X134715000Y-74877800D01*
%TD*%
M02*
