M48
; DRILL file {KiCad 9.0.7} date 2026-04-19T23:57:08+0800
; FORMAT={-:-/ absolute / metric / decimal}
; #@! TF.CreationDate,2026-04-19T23:57:08+08:00
; #@! TF.GenerationSoftware,Kicad,Pcbnew,9.0.7
; #@! TF.FileFunction,Plated,1,2,PTH
FMAT,2
METRIC
; #@! TA.AperFunction,Plated,PTH,ViaDrill
T1C0.300
; #@! TA.AperFunction,Plated,PTH,ComponentDrill
T2C0.800
; #@! TA.AperFunction,Plated,PTH,ComponentDrill
T3C1.000
%
G90
G05
T1
X117.246Y-84.455
X117.246Y-86.665
X117.805Y-106.883
X117.856Y-72.796
X118.11Y-102.362
X120.117Y-102.337
X120.32Y-72.796
X121.92Y-69.266
X121.945Y-71.069
X125.73Y-76.733
X130.023Y-91.643
X130.886Y-80.289
X130.886Y-85.344
X130.937Y-104.14
X130.988Y-99.441
X133.579Y-104.14
X133.604Y-90.17
X133.629Y-99.441
X133.706Y-85.344
X133.756Y-80.289
X136.296Y-84.455
X136.296Y-86.665
X136.906Y-76.733
X137.084Y-106.883
X137.566Y-102.413
X139.243Y-102.413
X140.64Y-76.708
X145.923Y-76.708
X148.615Y-91.643
X149.936Y-99.441
X149.962Y-104.445
X150.114Y-80.289
X150.266Y-85.344
X151.74Y-90.094
X152.679Y-104.496
X152.705Y-99.441
X155.346Y-84.455
X155.346Y-86.665
X156.235Y-106.883
X156.413Y-102.438
X158.115Y-102.413
X162.077Y-76.708
X163.195Y-82.067
X168.478Y-91.643
X168.758Y-60.503
X169.062Y-99.441
X169.088Y-104.343
X169.291Y-80.289
X169.545Y-85.344
X170.155Y-76.708
X170.79Y-90.094
X171.044Y-85.344
X171.171Y-80.289
X171.806Y-99.441
X171.831Y-104.369
T2
X122.606Y-96.52
X122.606Y-115.545
X127.635Y-73.838
X127.635Y-76.886
X130.226Y-96.52
X130.226Y-115.545
X135.255Y-73.838
X135.255Y-76.886
X141.656Y-115.57
X141.681Y-96.52
X143.358Y-58.725
X143.358Y-73.965
X145.898Y-58.725
X145.898Y-73.965
X148.438Y-58.725
X148.438Y-73.965
X149.276Y-115.57
X149.301Y-96.52
X150.978Y-58.725
X150.978Y-73.965
X153.518Y-58.725
X153.518Y-73.965
X156.058Y-58.725
X156.058Y-73.965
X158.598Y-58.725
X158.598Y-73.965
X160.706Y-96.52
X160.706Y-115.57
X161.138Y-58.725
X161.138Y-73.965
X163.678Y-58.725
X163.678Y-73.965
X166.218Y-58.725
X166.218Y-73.965
X168.326Y-96.52
X168.326Y-115.57
X168.758Y-58.725
X168.758Y-73.965
X171.298Y-58.725
X171.298Y-73.965
T3
X119.069Y-62.469
X119.069Y-65.009
X119.069Y-67.549
X119.069Y-70.089
M30
